<svg xmlns="http://www.w3.org/2000/svg" width="32" height="32" viewBox="0 0 32 32">
  <path fill="#4A4A4A" d="M15.944454,19.4799879 C14.3569245,20.4445511 12.4933283,21 10.5,21 C4.70101013,21 0,16.2989899 0,10.5 C0,4.70101013 4.70101013,0 10.5,0 C16.2989899,0 21,4.70101013 21,10.5 C21,12.4933283 20.4445511,14.3569245 19.4799879,15.944454 L25.7869694,22.2514355 C26.7632801,23.2277462 26.7632801,24.8106586 25.7869694,25.7869694 C24.8106586,26.7632801 23.2277462,26.7632801 22.2514355,25.7869694 L15.944454,19.4799879 Z M10.5,18 C14.6421356,18 18,14.6421356 18,10.5 C18,6.35786438 14.6421356,3 10.5,3 C6.35786438,3 3,6.35786438 3,10.5 C3,14.6421356 6.35786438,18 10.5,18 Z" transform="translate(3 3)"/>
</svg>
