<svg xmlns="http://www.w3.org/2000/svg" width="32" height="32" viewBox="0 0 32 32">
  <g fill="none" fill-rule="evenodd">
    <path fill="#4A4A4A" fill-rule="nonzero" d="M7.5 3C9.45932824 3 11.1261868 4.25221144 11.7439414 6L31 6 31 9 11.7439414 9C11.1261868 10.7477886 9.45932824 12 7.5 12 5.54067176 12 3.87381317 10.7477886 3.25605856 9L1 9 1 6 3.25605856 6C3.87381317 4.25221144 5.54067176 3 7.5 3zM7.5 9C8.32842712 9 9 8.32842712 9 7.5 9 6.67157288 8.32842712 6 7.5 6 6.67157288 6 6 6.67157288 6 7.5 6 8.32842712 6.67157288 9 7.5 9zM19.2560586 15C19.8738132 13.2522114 21.5406718 12 23.5 12 25.4593282 12 27.1261868 13.2522114 27.7439414 15L31 15 31 18 27.7439414 18C27.1261868 19.7477886 25.4593282 21 23.5 21 21.5406718 21 19.8738132 19.7477886 19.2560586 18L1 18 1 15 19.2560586 15zM23.5 18C24.3284271 18 25 17.3284271 25 16.5 25 15.6715729 24.3284271 15 23.5 15 22.6715729 15 22 15.6715729 22 16.5 22 17.3284271 22.6715729 18 23.5 18zM7.25605856 24C7.87381317 22.2522114 9.54067176 21 11.5 21 13.4593282 21 15.1261868 22.2522114 15.7439414 24L31 24 31 27 15.7439414 27C15.1261868 28.7477886 13.4593282 30 11.5 30 9.54067176 30 7.87381317 28.7477886 7.25605856 27L1 27 1 24 7.25605856 24zM11.5 27C12.3284271 27 13 26.3284271 13 25.5 13 24.6715729 12.3284271 24 11.5 24 10.6715729 24 10 24.6715729 10 25.5 10 26.3284271 10.6715729 27 11.5 27z"/>
  </g>
</svg>
