<?xml version="1.0" encoding="UTF-8"?>
<svg viewBox="0 0 608 208" version="1.1" xmlns="http://www.w3.org/2000/svg" xmlns:xlink="http://www.w3.org/1999/xlink">
    <g id="qj-logo-horiz" stroke="none" stroke-width="1" fill="none" fill-rule="evenodd">
        <path d="M204,1.42108547e-14 L204,208 L-9.9475983e-14,208 L-9.9475983e-14,1.42108547e-14 L204,1.42108547e-14 Z M197.334772,105.239868 C195.644491,105.208918 194.046122,105.583642 192.534061,106.3248 C190.264848,107.437367 188.274733,108.924658 186.4662,110.667844 C182.484288,114.506835 178.917662,118.708942 175.416606,122.966872 C170.894433,128.466145 167.342377,134.519767 164.725693,141.121658 C162.957175,145.58407 161.39113,150.114698 159.858212,154.65652 L157.892242,160.497685 L154.977146,169.053565 L150.708747,181.689193 C148.915193,187.040077 147.326548,192.444972 146.371352,198.014541 C146.204565,198.989045 146.081897,199.972746 145.984694,200.957155 L145.916276,201.695461 C145.823146,202.757204 145.953809,202.982225 146.863673,203.028476 L147.145317,203.037394 L148.893462,203.047619 L151.160156,203.04126 L151.31775,203.039195 C152.636961,203.016112 152.811054,202.845094 152.799205,201.541378 L152.786684,200.952092 L152.767922,199.901363 C152.739719,196.400547 153.045505,192.915717 153.403166,189.442307 C153.72766,186.284232 154.237658,183.141632 154.878799,180.020587 C155.688632,176.076586 156.659871,172.177905 157.955043,168.365997 C159.993355,162.370408 162.568007,156.584841 165.099505,150.78214 C166.70628,147.100114 168.681824,143.664589 171.416761,140.673979 C173.75771,138.113915 176.046538,135.507426 178.397015,132.956205 C180.145021,131.05937 181.912642,129.171931 184.089943,127.72554 C186.220167,126.310099 188.496666,125.364997 191.140812,125.599891 C193.208268,125.782832 194.999987,126.685928 196.751916,127.685193 C197.25519,127.97204 197.71643,128.331289 198.216901,128.624215 C198.763853,128.943394 198.956154,128.86959 199.026542,128.285765 L199.039063,128.162165 L199.054545,127.69901 L199.050272,127.234198 L199.051813,112.115618 L199.04747,106.943261 L199.042117,106.630059 C199.000566,105.460265 198.695342,105.264357 197.334772,105.239868 Z M10.8949692,4.95238095 L6.35378136,4.95577813 L6.20259207,4.95954704 C5.23479092,4.99149184 5.00784949,5.1700614 4.9584466,6.05415179 L4.94822981,6.34964608 L4.94841866,200.272027 L4.94566205,201.162466 L4.95224954,201.607315 L4.97164764,202.042274 L4.982025,202.164904 C5.0599094,202.94721 5.32275028,203.035147 6.42549619,203.038856 L11.4161055,203.045463 L16.4071253,203.043307 L18.7056528,203.047619 L21.1488717,203.035147 L21.4161406,203.023494 C22.1467173,202.972714 22.2552182,202.759954 22.2545455,201.855758 L22.2535941,201.706349 L22.2257518,200.771995 L21.4310496,185.450321 L21.1316938,179.052062 L20.9762521,176.148018 C20.7629662,172.276162 20.5336388,168.404803 20.3852196,164.53024 C20.2270591,160.396409 19.9134742,156.272036 19.7613336,152.136535 C19.5424262,146.18226 19.125955,140.234661 18.8134647,134.283724 C18.6016718,130.241693 18.4325658,126.197437 18.2284347,122.155407 L17.7380822,112.427898 C17.5717126,109.18558 17.399323,105.94361 17.2116099,102.702475 C17.0726038,100.30285 17.0994199,97.8937661 16.9029505,95.5047119 C16.5802185,91.5816335 16.4527983,87.6493987 16.2854776,83.7191298 L16.1974033,81.7542106 L16.0076194,78.3173197 L15.9294698,76.9577938 C15.7954909,74.3128795 15.7625489,71.6604116 15.7634815,69.0102511 L15.7675687,67.4205106 L15.7895665,63.8537222 C15.8226274,58.7624868 15.8671082,53.6645505 16.3622493,48.5787693 C16.4962693,47.2036691 16.6294244,45.8275799 16.7563336,44.4505503 L16.9413404,42.3843069 L17.3252594,37.6427979 C17.5611169,34.9110067 17.8547416,32.1826285 17.9838057,29.4457501 C18.1293791,26.3812623 18.0795777,23.3050908 18.0604233,20.2350393 C18.0326092,15.7688911 17.3755538,11.3963824 16.1672777,7.11287492 L15.9342854,6.31075911 L15.7994436,5.8891392 L15.7522082,5.76155865 C15.4995344,5.11403408 15.2228997,4.98448493 14.3490803,4.96465037 L10.8949692,4.95238095 Z M60.6933792,4.96400844 L49.7055914,4.95238095 L38.8046434,4.96257372 C37.7801158,4.97792521 37.6141512,5.15616296 37.5832059,6.2215289 L37.579755,6.37237282 C37.5396069,8.68464089 37.4708601,10.9974653 37.4230123,13.3086207 C37.3103775,18.7743862 37.315784,24.241519 37.2810745,29.7088524 L37.2450494,33.8093719 L37.1193605,40.8849115 L37.1113317,41.4973538 C37.0580519,45.9969399 37.125175,50.6955796 37.1311125,56.616869 L37.1315258,57.4319921 L37.1605544,59.1159903 L37.1666201,59.7529181 C37.2006227,64.0577353 37.1117591,69.5159823 37.2508703,74.9754081 C37.3916638,80.4897631 37.3640428,86.0073328 37.4002189,91.52482 L37.4314379,94.835276 L37.5313573,99.8005768 L37.5861186,102.276462 C37.6818264,108.145728 37.5592422,114.018275 37.7340807,119.887791 L37.8145941,122.088705 C37.9740867,125.732363 37.9812364,129.382697 38.0499832,133.028581 C38.203976,141.168254 38.4234158,149.305702 38.6417556,157.443706 C38.6714543,158.550385 38.7053082,159.656927 38.7412716,160.76338 L38.9659961,167.401427 L39.1086839,172.379979 L39.2054574,176.008829 C39.2778341,178.42759 39.3643781,180.845515 39.4557618,183.263244 L39.7351048,190.516484 L40.032641,199.852906 L40.0606639,200.385212 C40.0853612,200.739966 40.1209549,201.094442 40.160639,201.448362 L40.2223822,201.97879 L40.2767508,202.341798 L40.3009581,202.450482 C40.4217268,202.929126 40.6609205,203.01571 41.4053772,203.029771 C42.0308814,203.04167 42.6564943,203.047875 43.2821193,203.047875 L44.2205537,203.047875 L45.7906085,203.036695 L46.0928898,203.029262 C46.8792042,202.996851 47.087758,202.851797 47.1905672,202.182072 L47.2232307,201.923242 L47.5013549,198.667264 L47.7547709,195.878414 L47.7547709,195.878414 L48.5718089,187.070275 L48.5718089,187.070275 L48.8448814,184.059826 L49.5499486,175.689816 L50.4370574,165.861564 L51.1399247,157.222828 L52.0281334,146.991765 L52.2623818,144.021952 C52.4131155,142.041568 52.5568422,140.060524 52.7167014,138.080965 C53.0103878,134.446765 53.3425723,130.815903 53.6214094,127.18059 C53.7723773,125.207985 53.8939217,123.232459 54.0242656,121.257768 L54.2311591,118.296826 L54.4799194,115.339953 L54.7162888,112.63815 C55.0824928,108.133032 55.3303632,103.619028 55.7657597,99.1212507 C55.9588007,97.1261128 55.9621005,95.1254111 56.1408422,93.1308296 C56.4215492,89.9786674 56.684657,86.8229445 56.8859564,83.6642305 L57.0246512,81.2946431 C57.1255027,79.3959308 57.2820392,77.5019715 57.425742,75.606725 L57.5626293,73.7108256 L57.7055195,71.1793048 L57.7555121,70.2180593 C57.9082496,67.6555337 58.1969522,65.098381 58.1553986,62.5227651 C58.0921515,58.6037044 58.4391854,54.698553 58.7416713,50.8006343 C59.0408574,46.9472251 59.5798324,43.1144015 59.7981722,39.2493085 C60.0891087,34.0995604 60.4141436,28.950925 60.7969258,23.8072969 C60.9591683,21.6313392 60.8816219,19.4436977 61.1208608,17.2783109 C61.4022827,14.7378761 61.4519454,12.1843554 61.5729953,9.63511492 L61.6301283,8.54289596 L61.7918296,6.36124544 L61.8044095,6.21242742 C61.8754907,5.25878944 61.6888311,5.01485021 60.8339701,4.9695799 L60.6933792,4.96400844 Z M157.310029,4.96602007 L157.218165,4.96750686 L155.496225,4.95770133 L135.324131,4.96504774 C134.137968,4.9768879 133.965105,5.11941245 133.61442,6.18478345 C132.309696,10.1509465 131.008285,14.1176659 129.732824,18.0938432 C127.752824,24.2692409 125.820308,30.4602161 124.009265,36.6890227 C122.062946,43.3846003 120.050369,50.0612622 118.174725,56.7768681 C116.35816,63.2799513 114.660307,69.8175278 112.944785,76.3489844 C111.647239,81.2893026 110.377853,86.2374095 109.14546,91.1944179 C108.631104,93.2637634 108.127982,95.3360761 107.630083,97.4097441 L106.8864,100.521061 L104.902392,108.861227 C104.321901,111.309586 103.746563,113.759099 103.186686,116.212567 C102.168526,120.675544 101.175766,125.14464 100.191839,129.615962 C99.1797531,134.21413 98.1715321,138.81341 97.200305,143.419923 C96.8010411,145.314206 96.40963,147.210248 96.022824,149.107217 L95.4456626,151.953264 L94.5875439,156.223581 L93.5937401,161.189779 C92.933372,164.500963 92.2793841,167.8133 91.6440466,171.129099 C90.8075435,175.493047 90.0494452,179.872016 89.2223286,184.238189 L88.5962844,187.557812 C87.8733645,191.431933 87.1903038,195.312674 86.6912853,199.224377 C86.5736779,200.148462 86.5482792,201.087567 86.5454237,202.019997 C86.5427577,202.847834 86.7155798,202.999715 87.5791382,203.028645 C87.9514082,203.041294 88.3242235,203.047406 88.6971963,203.047406 L89.2567253,203.047406 L90.2532269,203.031424 C91.2093693,203.003265 91.4575189,202.831936 91.6492156,201.987529 L91.680754,201.840472 L91.7252123,201.608303 L92.0187161,199.98017 C92.1681007,199.166673 92.3263903,198.35526 92.5158872,197.551456 C94.2286482,190.29898 96.9142927,183.391436 99.9014096,176.593492 C102.813987,169.966901 105.907668,163.423205 108.721411,156.750993 C112.674233,147.374959 116.193068,137.835361 119.396627,128.178374 C121.101658,123.037773 122.705645,117.860453 124.259388,112.670893 C125.814235,107.479109 127.302824,102.265626 128.722395,97.0343413 C129.560658,93.9484158 130.368523,90.8538648 131.163776,87.7559363 L131.955485,84.6570762 L133.92929,76.8814484 C135.161559,72.0248931 136.386972,67.1665575 137.538531,62.290775 C138.846016,56.7557271 140.000556,51.1850733 141.14847,45.6133069 C142.188715,40.5672837 143.307366,35.5357254 144.775525,30.5915129 C146.32209,25.3796998 148.239145,20.3225498 150.881722,15.5630428 C152.499939,12.6491795 154.373149,9.92019292 156.53349,7.39358626 L157.079576,6.76616098 L157.606148,6.19529164 L157.759413,6.01988716 C157.958983,5.78275104 158.136342,5.53072538 158.254545,5.24178353 C158.018427,4.95531791 157.753689,4.9428117 157.498773,4.95558542 L157.310029,4.96602007 Z M102.684357,4.97138388 L95.552015,4.95238095 L95.2871564,4.95466102 C94.5208808,4.97338967 94.4181587,5.12381617 94.2762399,6.04341682 C94.225116,6.37473761 94.1822545,6.70770677 94.1450462,7.041494 L94.0931477,7.54268462 L94.0269189,8.2954092 L93.156772,19.2004376 L92.6784252,24.9151186 L91.5072906,38.601619 L90.9124345,45.3326235 L90.622834,48.6988675 L89.9144981,57.6055864 L89.0261888,67.8374648 L88.3525268,76.347526 L87.7676131,83.3929993 L87.1736181,90.4380554 L86.4647319,98.5420014 L86.0264938,103.859121 L85.2528694,113.363677 L84.9022101,117.549863 L84.4583307,122.53152 L84.0194046,127.513594 L83.3242778,136.287352 L82.4194572,146.651635 L81.7435936,155.161696 L81.161019,162.207656 L80.5685376,169.252782 L79.8563491,177.357284 L79.418799,182.741162 L78.9845511,188.125457 L78.5197879,193.7071 L78.3960294,195.101584 L78.2663085,196.495325 L78.0634058,198.567132 L78.0088972,199.18895 C77.9576945,199.81099 77.9176818,200.433806 77.90031,201.058384 L77.8909091,201.683586 L77.8961365,202.098852 L77.9022189,202.220954 C77.9448428,202.878424 78.1366818,203.001653 78.9353478,203.032113 L79.2542361,203.0399 L80.3109609,203.047619 L81.5212655,203.037756 L81.8204547,203.030405 C82.5461586,203.002385 82.7149779,202.886949 82.8114069,202.202177 L82.8278749,202.074452 L82.874069,201.614603 L82.9865707,200.419666 C83.1812807,198.429046 83.4147419,196.443495 83.7276708,194.468486 L83.9252901,193.28479 L84.5818216,189.610421 L86.0569022,181.521686 C86.593826,178.577175 87.1327067,175.633242 87.6882211,172.692522 C87.9705036,171.198612 88.2630055,169.706789 88.5588655,168.215687 L89.6706809,162.624759 L91.3078298,154.250379 L91.7230794,152.158174 L92.1451782,150.067454 C92.5045135,148.307003 92.8752641,146.54897 93.2500856,144.791791 L94.6604034,138.203326 L96.5682157,129.16482 L97.0534244,126.907048 L97.5476838,124.651316 C98.5664326,120.0522 99.6479244,115.466993 100.716207,110.878447 L102.463656,103.351963 C103.048982,100.843785 103.641188,98.3372748 104.252383,95.8354937 C106.107705,88.2405826 108.018616,80.6595796 110.001076,73.0969352 C112.185524,64.7610029 114.437669,56.4439856 116.812548,48.1625729 C118.697591,41.5868441 120.643175,35.0283613 122.643247,28.4865682 C123.900172,24.3768421 125.18792,20.2776773 126.495912,16.1852125 L127.81026,12.094838 L129.627212,6.4981726 L129.710536,6.21820585 C129.987872,5.21636508 129.768092,5.01663428 128.593791,4.97769646 L128.441474,4.97360917 L102.684357,4.97138388 Z M191.017782,4.9523811 L190.782941,4.95859434 C189.706986,5.01685331 188.905604,5.48462878 188.169671,6.35446723 C185.071238,10.0204584 182.268419,13.8961731 179.848354,18.0489233 C176.376543,24.0085232 173.538427,30.2668541 171.169654,36.7510411 C169.307175,41.8483821 167.734243,47.0341741 166.467404,52.3084172 C165.714029,55.4459271 165.051349,58.6044526 164.43998,61.7739391 L164.079001,63.676866 L159.805608,87.1325516 L159.458272,89.0165232 C158.631132,93.4085883 157.686604,97.773661 156.612866,102.113605 C153.739452,113.721279 149.394035,124.789346 144.612367,135.69998 C140.566425,144.931714 136.27616,154.05497 132.495498,163.405194 C129.430156,170.986953 126.730472,178.684978 124.882332,186.678397 C124.008542,190.45781 123.360624,194.268521 122.852164,198.103461 L122.66786,199.542686 L122.4317,201.553082 C122.315407,202.713649 122.485236,202.988675 123.514021,203.034239 L123.659688,203.039092 L123.898422,203.041846 L131.375846,203.047617 L138.852856,203.041289 L139.325097,203.029295 L139.463536,203.018848 C140.213705,202.94896 140.435636,202.687008 140.495674,201.847394 L140.505124,201.683103 L140.541411,200.371615 C140.723834,195.069102 141.498147,189.834855 142.493983,184.63679 C143.430462,179.748616 144.663107,174.924417 145.991716,170.126919 C147.639654,164.177333 149.417751,158.266687 151.244933,152.371061 C152.901695,147.025612 154.610852,141.69574 156.364131,136.381443 C157.989567,131.45533 159.668655,126.547731 161.395747,121.656366 L162.699979,117.990851 L165.660103,109.711085 L166.325827,107.874223 C168.109626,102.979266 169.968528,98.1137125 172.066423,93.3419284 C175.078819,86.4894733 178.703953,79.9863722 183.268874,74.0429049 C187.331362,68.7525292 192.010999,64.1480666 197.829523,60.8358797 C198.713677,60.3326056 199.020513,59.7012313 199.05186,58.7611575 L199.054545,58.5689732 L199.035669,49.9812865 L199.031851,6.40303967 L199.028049,6.25916629 C198.99229,5.19916499 198.791798,5.02289597 197.680002,4.99205718 L197.35363,4.98669762 L197.083318,4.98542259 L196.112425,4.98877582 L194.170333,5.00753536 C193.523126,5.01170758 192.876225,5.01062589 192.23008,4.99477145 L191.261485,4.95872037 L191.017782,4.9523811 Z M90.5117164,4.9684547 L90.204109,4.95238095 L73.5151206,4.95622307 C72.0579277,4.96374391 71.8770821,5.05593677 71.4506915,6.31833018 L71.342864,6.64432824 L71.2076778,7.16066643 L69.9461034,11.2347842 L69.6346182,12.2544728 L67.5035068,19.3412124 L67.054184,20.8595012 C66.6085965,22.3788028 66.1756472,23.9015275 65.7682263,25.4311377 C64.612798,29.7649288 63.5991774,34.1365551 62.7152251,38.5398961 C62.092265,41.6440457 61.7187097,44.7749024 61.431232,47.9152179 C61.300129,49.3496421 61.2121559,50.7878971 61.132116,52.2269409 L60.9721852,55.1051786 L60.8099273,57.5014148 L60.7330613,58.5790171 C60.3662595,64.3245963 60.6855819,70.0440538 61.4858583,75.7373893 C62.2528331,81.1945499 63.1715475,86.6305673 63.95949,92.0855023 C64.1498543,93.4058369 64.4329176,94.710036 64.5813466,96.0348218 C64.9824909,99.6119104 65.5149591,103.172863 65.8223008,106.76108 C66.0466915,109.381719 66.3699428,111.995789 66.5784316,114.616493 L66.6880443,116.189816 L67.1435288,123.825752 L67.2479737,125.735548 L67.3430076,127.64607 C67.4553639,130.045957 67.5428901,132.446471 67.6180982,134.847288 L67.6896637,137.248194 L67.9494143,146.852404 L67.9907582,148.854252 C68.026796,151.523952 67.9951018,154.195646 67.9990746,156.865915 C68.0216976,171.507553 67.9990746,186.148634 67.8076068,200.789715 C67.8015372,201.233721 67.8136764,201.679397 67.8175388,202.124516 C67.8231749,202.672688 68.0624139,202.992019 68.5798764,203.035731 L68.70425,203.040905 L74.0002386,203.047619 L74.1328759,203.043457 C74.6885594,203.004802 74.9961629,202.697686 75.0530357,202.105598 C75.1495973,201.087388 75.2478142,200.069178 75.3305813,199.050412 L75.7872511,193.288963 L75.7872511,193.288963 L76.0230657,190.40898 L76.9285374,180.044381 L77.6039167,171.535373 L78.5524272,160.371229 L79.4016173,149.99884 L79.8861495,144.21709 L80.3777169,138.435758 L81.073512,130.46423 L81.5166607,125.348281 L81.9519465,120.231498 L82.6482934,111.591736 L83.5504544,101.227136 L84.2296961,92.7186843 L85.1759996,81.5534272 L86.009188,71.3140179 L86.5031695,65.3992888 L87.0046,59.484977 L88.0043648,48.0587276 C88.198101,45.8441775 88.3908563,43.6294625 88.5733117,41.4142529 C88.8100255,38.5343321 89.0014934,35.6505166 89.2475874,32.7717086 C89.5323061,29.4494506 89.8937223,26.1333131 90.150852,22.809386 C90.459849,18.8200057 90.7550516,14.8300691 91.1639209,10.8490349 C91.3272479,9.25717755 91.4177399,7.65641787 91.4867124,6.05732738 C91.5209877,5.25768395 91.3543768,5.06525078 90.6501428,4.98275561 L90.5117164,4.9684547 Z M19.9009895,4.95238095 L19.5625666,4.96225694 L19.1993026,5.00177713 L19.0903165,5.02163201 C18.6452143,5.11545604 18.5499327,5.31590684 18.6716902,5.83380535 L18.7035804,5.95905151 L18.9924044,6.93736624 C20.122415,10.8854084 20.6889003,14.9288703 20.8902584,19.0173218 C21.1674539,24.6493762 20.8436377,30.2654082 20.3341578,35.8677968 L20.2222931,37.0681007 L19.7655198,41.7357992 C19.4014123,45.5603347 19.0755767,49.387078 18.7848297,53.2177383 C18.514531,56.7727241 18.5273705,60.3312267 18.5669061,63.8901202 L18.5824825,65.2247174 L18.5556347,69.7647521 L18.552897,70.8995977 C18.5534269,72.0343347 18.5652434,73.1687 18.6016998,74.3022829 C18.7243516,78.1247086 19.0420029,81.9393448 19.1036114,85.7662216 C19.131307,87.4548769 19.2861761,89.1413067 19.3805671,90.8288492 L19.8976349,99.9751808 L19.8976349,99.9751808 L20.1447388,104.548965 L20.7625197,117.343798 L21.084902,123.11626 C21.3063828,126.96428 21.5349812,130.812052 21.7346908,134.661556 L22.1013038,141.856841 C22.2254393,144.255177 22.3552977,146.653234 22.5022538,149.050457 C22.8673831,154.998864 23.079339,160.955616 23.4133815,166.905692 C23.5535551,169.393885 23.5818158,171.886529 23.7412067,174.370272 C24.1775532,181.161615 24.5262914,187.95574 24.7998558,194.755429 C24.8976381,197.197998 25.1344635,199.635559 25.2938544,202.076459 C25.3362455,202.725771 25.633549,203.047619 26.3095471,203.047619 L32.8197021,203.047619 C33.904728,203.047619 34.9897538,203.04273 36.0747797,203.034569 C36.9180816,203.027893 37.1012115,202.828704 37.0904724,201.967962 C37.0769072,200.901912 36.9259946,199.83753 36.9141251,198.77148 C36.8700382,194.881333 36.6457283,190.998544 36.4853685,187.113653 L36.4116483,185.170989 L36.0083354,173.701857 L35.6650401,162.586736 C35.5479358,159.000263 35.4234627,155.414119 35.3326514,151.827975 C35.1291737,143.779182 35.0364783,135.727607 34.7436966,127.679926 C34.6069144,123.915365 34.6419577,120.148084 34.6183861,116.380556 L34.5953659,114.120029 L34.5102625,110.729388 L34.4451513,108.542098 C34.3818534,105.807482 34.3789865,103.071141 34.3531813,100.334952 L34.3166421,97.5988847 L34.1861677,92.8753414 C34.1498131,90.9534591 34.1753156,89.0295828 34.1671765,87.1071308 C34.0733507,65.6559226 34.0671333,44.2052709 34.1728287,22.7540628 L34.1939981,20.0852785 L34.2289525,17.4164324 L34.4152195,6.57452894 L34.4162665,6.27320095 C34.408443,5.10279869 34.2231653,4.97192559 32.91808,4.95776639 L19.9009895,4.95238095 Z M59.524384,80.4761905 C59.3680823,80.6058974 59.309607,80.7291623 59.2866828,80.8486281 L59.2766961,80.9198729 L59.2134941,82.6448275 C59.0435321,86.4213793 58.6447042,90.1828858 58.4105965,93.9554896 C58.3260097,95.3183414 58.2367645,96.6811931 58.140736,98.0433842 L57.9913402,100.086093 L57.107592,111.407946 L56.4351269,120.735694 L55.9651875,126.662678 L54.6461161,143.112368 L54.3228474,147.107741 L53.9955333,151.10262 L53.6564506,155.096507 L53.2186832,160.064641 L53.1151027,161.307255 L53.0176363,162.550566 C52.773254,165.79231 52.3909585,169.022347 52.113477,172.260746 C51.7030471,177.051725 51.4057061,181.853855 50.9230097,186.63703 C50.4717575,191.113033 50.1220095,195.596842 49.6795838,200.07173 C49.6233152,200.648164 49.5085713,201.219023 49.4683007,201.796015 C49.3982407,202.793903 49.5725631,202.983446 50.5351976,203.038637 L50.7996233,203.047164 L50.7996233,203.047164 L51.329578,203.044769 L63.5045606,203.044769 L64.4313378,203.037522 C65.045585,203.033359 65.4070624,202.728108 65.3803186,202.160748 L65.3685963,202.035173 C65.1164908,200.203296 65.4601707,198.387027 65.4518959,196.561281 C65.4298298,191.657691 65.4855467,186.7541 65.4745137,181.849952 C65.444979,168.602179 65.6800811,155.35298 65.3445817,142.106303 L65.2483359,138.794688 L65.0231925,131.580763 L64.9383886,129.176514 C64.8776864,127.573801 64.8073812,125.971357 64.7198523,124.369346 C64.4374059,119.209315 64.1218604,114.052629 63.5933768,108.912667 C63.1658457,104.750524 62.7443828,100.585037 62.1756285,96.4412911 C61.9496346,94.794868 61.7066621,93.1508607 61.4547405,91.5081129 L61.0711501,89.0447912 L59.9000597,81.6574897 L59.8425899,81.2502077 C59.8001771,80.9889008 59.7285645,80.7260633 59.524384,80.4761905 Z M179.678603,191.303337 C179.501052,191.43449 179.323501,191.569124 179.166458,191.725811 C176.415232,194.464932 175.291644,197.873744 175.618683,201.852433 C175.700172,202.845945 175.910643,203.021202 176.864236,203.03513 C177.591228,203.045705 178.31822,203.048141 179.045213,203.047619 L181.771434,203.040933 L185.214874,203.047209 L186.075509,203.043217 L186.936054,203.033389 C187.848092,203.019461 188.001897,202.800099 187.8999,201.861718 C187.875075,201.633652 187.81895,201.407907 187.761745,201.185643 C187.265791,199.258393 186.566381,197.418772 185.631677,195.692313 C184.807065,194.170709 183.902042,192.697271 182.672679,191.508771 C181.562043,190.435755 180.887998,190.411382 179.678603,191.303337 Z M185.189217,163.598148 C185.100491,163.608544 185.015134,163.640278 184.927532,163.658334 C180.893311,164.49219 177.700302,166.662733 175.042456,169.637587 C172.687289,172.274301 171.039121,175.336151 169.736872,178.565429 C168.110605,182.595187 166.796563,186.725073 165.698159,190.924994 C165.029345,193.480184 164.688481,196.068749 164.474528,198.681936 C164.381309,199.817819 164.466666,200.950419 164.645802,202.081378 C164.750102,202.737592 165.064259,203.020607 165.678674,203.041191 L167.22854,203.030272 L170.528791,203.044625 L171.471519,203.032324 L171.606617,203.028256 C172.330667,203.002252 172.447873,202.914737 172.442124,202.306758 L172.43515,202.053473 L172.387938,201.267401 L172.381633,201.071111 L172.382364,200.874912 C172.48569,196.686481 174.038955,193.126725 177.276889,190.323677 C178.192787,189.530857 179.233912,188.966198 180.50696,188.848561 C182.45893,188.668002 183.872367,189.585025 185.076344,190.910768 C186.966543,192.991579 188.459721,195.320248 189.511516,197.908266 C189.829222,198.689509 190.104376,199.481957 190.332266,200.289483 L190.494248,200.898015 L190.704529,201.820471 C190.949012,202.900583 191.197918,203.025734 192.385,203.037248 C193.073468,203.044543 193.761936,203.049893 194.450237,203.046651 L195.482544,203.034512 L195.886246,203.019316 L196.003371,203.009676 C196.557507,202.953928 196.645506,202.77719 196.546648,202.131911 L196.524468,201.996505 L196.305977,200.800177 C195.841462,198.179982 195.494146,195.545394 195.356323,192.890532 L195.314639,191.893997 L195.20024,188.369013 L195.158365,187.247813 C195.010801,183.51106 194.774807,179.780759 194.191526,176.076445 C193.650579,172.642697 192.668205,169.338326 190.818308,166.345346 L190.518948,165.875385 L189.99115,165.082418 L189.884872,164.928972 C188.736303,163.290313 188.231588,163.264133 185.189217,163.598148 Z M184.16056,5.00044132 L184.059395,5.0034201 L170.887243,4.99612684 L167.59432,4.9904792 L164.301475,4.97838815 C163.147229,4.9728255 162.273895,5.34441082 161.456744,6.15210824 C157.783181,9.78396535 154.805503,13.9203552 152.440271,18.4956385 C148.9614,25.2236691 146.872075,32.4350943 145.193828,39.777242 C144.33162,43.5464966 143.575101,47.3407832 142.761288,51.1211632 C141.933924,54.9596618 141.084004,58.7926921 140.175508,62.6123797 L139.482592,65.4745206 L138.580412,69.0440359 L137.670826,72.6314787 C136.776902,76.2228849 135.918414,79.8232087 134.991401,83.4056972 C133.63245,88.654618 132.188946,93.8812881 130.7994,99.1218649 C129.009901,105.869921 127.01069,112.556788 124.945284,119.222517 C122.971105,125.592312 120.830604,131.907594 118.581075,138.187831 C116.031163,145.307472 113.329392,152.364812 110.297757,159.290873 C107.231077,166.297593 104.013093,173.239229 100.950863,180.248174 C98.3837073,186.121781 96.1770104,192.131116 94.7234941,198.391884 C94.4520376,199.560598 94.1989378,200.736543 94.0036893,201.920832 C93.8651797,202.760793 94.0682159,202.967167 94.8914857,203.033363 C95.0291918,203.044241 95.1674473,203.047611 95.3059103,203.047611 L95.8254519,203.043376 L117.317801,203.043376 L117.852231,203.039968 L118.385826,203.032807 C118.849194,203.026688 119.141788,202.80585 119.227453,202.343037 C119.284192,202.037091 119.345937,201.730589 119.373194,201.421306 C119.606268,198.762913 119.963946,196.122877 120.384481,193.485623 C121.296196,187.765545 122.710774,182.170071 124.443535,176.653587 C127.207607,167.856249 130.818313,159.389332 134.571422,150.980267 C139.155589,140.707713 143.978392,130.538625 147.979039,120.012414 C149.98715,114.730117 151.773868,109.375506 153.246853,103.922436 C154.466606,99.4091627 155.500686,94.8532655 156.397068,90.2665532 L156.72685,88.5451147 L157.198548,85.9578431 L157.902176,82.0488582 L158.621645,78.1425654 L159.34692,74.2372065 L160.423763,68.3770736 L160.793749,66.351454 C161.790757,60.952221 162.877132,55.57345 164.205242,50.2417075 C165.842881,43.6699876 167.96447,37.2623659 170.548313,31.0077172 C174.074793,22.4707689 178.405562,14.395861 184.190504,7.1635118 L184.815913,6.39185865 L185.243169,5.9506463 L185.303982,5.87721551 C185.437945,5.70363092 185.510632,5.51353869 185.401658,5.29045307 C185.184239,4.84607644 184.692184,4.95238095 184.265636,4.99246345 L184.16056,5.00044132 Z M196.975971,65.1071456 L196.878472,65.1829926 L196.72905,65.2896321 L196.047075,65.7514712 C192.437746,68.2450737 189.272692,71.2241518 186.472578,74.5977294 C180.184242,82.174822 175.65075,90.7467577 171.992723,99.793958 C169.134591,106.863105 166.526672,114.028633 163.938345,121.199702 C161.139548,128.954603 158.468936,136.752156 155.895163,144.581837 C153.432221,152.074734 151.0622,159.598096 148.857308,167.171311 C146.628346,174.82983 144.578507,182.524908 143.350395,190.421059 C142.764327,194.192157 142.436308,197.977103 142.192253,201.776451 C142.177699,201.996911 142.178819,202.219588 142.192813,202.440602 C142.210165,202.713132 142.26782,203.000063 142.59528,203.042715 C142.94401,203.088137 143.03749,202.810068 143.085069,202.538093 C143.122573,202.319848 143.13041,202.097171 143.159517,201.877818 C143.360471,200.385554 143.506008,198.883872 143.775812,197.403794 C144.538764,193.216701 145.564243,189.089986 146.843853,185.026971 C148.3636,180.202315 150.010459,175.419202 151.638011,170.630192 L152.611054,167.755698 L155.753687,158.378657 L156.700342,155.566924 C157.966416,151.819276 159.250427,148.077791 160.582028,144.352514 C162.94925,137.730936 165.888547,131.385211 170.002778,125.61778 C171.825635,123.062401 173.793644,120.623242 175.825334,118.233703 L176.69972,117.212458 L178.55127,115.083568 C180.579275,112.759189 182.615668,110.44033 184.91141,108.366448 C188.624853,105.011899 192.664077,102.333134 197.991307,102.466075 C198.54521,102.47971 198.844738,102.236402 198.933798,101.792757 L198.951704,101.677705 L198.962489,101.473448 L198.970326,100.410473 L198.971757,77.6348812 C198.972752,73.8833553 198.972005,70.1318294 198.958571,66.3803036 C198.956332,65.7388624 199.298345,64.8492645 198.70444,64.5052792 C198.215112,64.2221275 197.781093,64.4686782 197.374481,64.7848318 L196.975971,65.1071456 Z M190.501089,127.523447 C188.962612,127.506756 187.630306,128.092854 186.362079,128.858904 C184.516018,129.974829 182.941322,131.422246 181.508717,133.020086 C178.74269,136.104342 175.987807,139.197511 173.24797,142.304052 C171.650985,144.114715 170.261285,146.073016 169.213159,148.260297 C167.788912,151.23257 166.506755,154.267241 165.205653,157.293556 C163.339532,161.633019 161.636119,166.029865 160.202956,170.530895 C159.230054,173.586737 158.481711,176.701635 157.815837,179.833803 C157.344988,182.050612 156.971095,184.294162 156.6858,186.542727 C156.367072,189.057042 156.069518,191.578042 155.941358,194.11297 C155.811526,196.694697 155.736302,199.276981 155.812083,201.860936 C155.840501,202.842594 156.027169,203.007504 157.027374,203.027003 C158.363581,203.053188 159.70146,203.056531 161.037667,203.024775 C162.028957,203.001375 162.181634,202.815295 162.137614,201.797424 C162.101395,200.953933 161.921971,200.104315 161.981036,199.269738 C162.176619,196.518088 162.420681,193.761423 163.089341,191.078299 C164.392673,185.848547 165.915547,180.680636 168.061949,175.726105 C169.904109,171.475225 172.317974,167.600964 175.945459,164.603063 C179.154473,161.950024 182.771371,160.295356 186.981148,160.031278 C189.087986,159.898682 190.66714,160.669746 191.89469,162.389597 C193.941349,165.259359 195.332163,168.412698 196.186935,171.814516 C197.150009,175.648225 197.52539,179.56095 197.700765,183.482583 L197.735425,184.323044 L197.84211,187.520194 C197.961177,190.745973 198.141189,193.965239 198.406331,197.182183 C198.441854,197.614235 198.497436,198.04284 198.740453,198.444964 L198.856566,198.615614 L199.052146,198.837408 L199.048246,134.703167 L199.043602,134.301808 C199.040548,134.12339 199.037603,133.945009 199.040493,133.767006 L199.049917,133.50033 C199.098952,132.631211 198.756264,131.947059 198.121036,131.379347 C196.648868,130.062855 195.031823,128.954173 193.206937,128.201494 C192.35328,127.84939 191.465633,127.536284 190.501089,127.523447 Z M293.064039,134 L293.064039,149.108333 C293.064039,150.625008 293.187191,151.966661 293.433498,153.133333 C293.679804,154.300006 294.100572,155.28194 294.695813,156.079167 C295.291054,156.876393 296.091538,157.479165 297.097291,157.8875 C298.103043,158.295835 299.365345,158.5 300.884236,158.5 L301.351713,158.457143 L301.801648,158.394169 C302.031164,158.359961 302.300072,158.317461 302.608374,158.266667 C303.55255,158.11111 304.548024,157.683337 305.594828,156.983333 C306.641631,156.28333 307.57553,155.23334 308.396552,153.833333 C309.217574,152.433326 309.628079,150.488901 309.628079,148 L309.628079,134 L313.692118,134 L313.692118,155.291667 L313.706896,156.271667 L313.737377,157.129165 L313.737377,157.129165 L313.784483,158.091667 C313.846059,159.21945 313.917898,160.288884 314,161.3 L309.812808,161.3 C309.730706,160.561107 309.679393,159.831948 309.658867,159.1125 C309.638341,158.393052 309.628079,157.663893 309.628079,156.925 L309.504926,156.925 C309.053364,157.663893 308.478657,158.344441 307.780788,158.966667 C307.082919,159.588892 306.30296,160.123609 305.440887,160.570833 C304.578813,161.018058 303.66544,161.368054 302.700739,161.620833 C301.736038,161.873612 300.781614,162 299.837438,162 C296.142839,162 293.412981,161.076398 291.647783,159.229167 C289.882586,157.381935 289,154.747239 289,151.325 L289,134 L293.064039,134 Z M339.236842,134 C340.289479,134 341.210522,134.116665 342,134.35 L341.266917,138.141667 C340.778193,137.947221 340.063914,137.85 339.12406,137.85 C337.695482,137.85 336.473689,138.131942 335.458647,138.695833 C334.443604,139.259725 333.597748,139.979162 332.921053,140.854167 C332.244358,141.729171 331.746242,142.672217 331.426692,143.683333 C331.107141,144.694449 330.947368,145.666662 330.947368,146.6 L330.947368,162 L327.225564,162 L327.225564,143.216667 C327.225564,142.412959 327.213033,141.600617 327.18797,140.779631 L327.073653,137.738096 L327.039833,136.524687 C327.025553,135.955851 327.012276,135.347622 327,134.7 L330.665414,134.7 L330.665414,139.775 L330.778195,139.775 C331.041355,139.036107 331.417291,138.326392 331.906015,137.645833 C332.394739,136.965274 332.986839,136.35278 333.682331,135.808333 C334.377823,135.263886 335.186086,134.826391 336.107143,134.495833 C337.0282,134.165276 338.071423,134 339.236842,134 Z M399,116 L399,161.28125 L395.296593,161.28125 L395.296593,156.609375 L395.184369,156.609375 C394.585835,157.567713 393.875088,158.386281 393.052104,159.065104 C392.229121,159.743927 391.368742,160.302949 390.470942,160.742188 C389.573142,161.181426 388.647299,161.500867 387.693387,161.700521 C386.739474,161.900175 385.832336,162 384.971944,162 C382.914485,162 381.034745,161.630646 379.332665,160.891927 C377.630586,160.153208 376.162331,159.125007 374.927856,157.807292 C373.693381,156.489577 372.73013,154.932301 372.038076,153.135417 C371.346022,151.338533 371,149.381955 371,147.265625 C371,145.149295 371.346022,143.192717 372.038076,141.395833 C372.73013,139.598949 373.693381,138.041673 374.927856,136.723958 C376.162331,135.406243 377.630586,134.378042 379.332665,133.639323 C381.034745,132.900604 382.914485,132.53125 384.971944,132.53125 C385.832336,132.53125 386.739474,132.631075 387.693387,132.830729 C388.647299,133.030383 389.573142,133.349824 390.470942,133.789063 C391.368742,134.228301 392.229121,134.787323 393.052104,135.466146 C393.875088,136.144969 394.585835,136.963537 395.184369,137.921875 L395.296593,137.921875 L395.296593,116 L399,116 Z M480.971831,134 C483.037569,134 484.924874,134.350945 486.633803,135.052846 C488.342732,135.754746 489.816895,136.731701 491.056338,137.98374 C492.295781,139.235779 493.262907,140.715439 493.957746,142.422764 C494.652586,144.13009 495,145.98915 495,148 C495,150.01085 494.652586,151.86991 493.957746,153.577236 C493.262907,155.284561 492.295781,156.764221 491.056338,158.01626 C489.816895,159.268299 488.342732,160.245254 486.633803,160.947154 C484.924874,161.649055 483.037569,162 480.971831,162 C478.943652,162 477.075126,161.649055 475.366197,160.947154 C473.657268,160.245254 472.183105,159.268299 470.943662,158.01626 C469.704219,156.764221 468.737093,155.284561 468.042254,153.577236 C467.347414,151.86991 467,150.01085 467,148 C467,145.98915 467.347414,144.13009 468.042254,142.422764 C468.737093,140.715439 469.704219,139.235779 470.943662,137.98374 C472.183105,136.731701 473.657268,135.754746 475.366197,135.052846 C477.075126,134.350945 478.943652,134 480.971831,134 Z M274,120 L274,149.735537 C274,151.123974 273.809339,152.541315 273.42801,153.987603 C273.046682,155.433892 272.384385,156.745173 271.441099,157.921488 C270.497814,159.097802 269.263533,160.071621 267.73822,160.842975 C266.212907,161.614329 264.306294,162 262.018325,162 C259.088118,162 256.639626,161.276867 254.672775,159.830579 C252.705924,158.38429 251.481678,156.253458 251,153.438017 L255.395288,152.570248 C255.796686,154.305794 256.539262,155.674926 257.623037,156.677686 C258.706812,157.680446 260.212032,158.181818 262.138743,158.181818 C263.704196,158.181818 264.978616,157.882923 265.962042,157.285124 C266.945467,156.687325 267.708112,155.915983 268.25,154.971074 C268.791888,154.026166 269.163175,152.946287 269.363874,151.731405 C269.564573,150.516523 269.664921,149.272734 269.664921,148 L269.664921,120 L274,120 Z M447.797136,134.002918 C449.706453,134.040851 451.536189,134.429655 453.286396,135.169341 C455.036604,135.909028 456.607789,137.056474 458,138.611713 L454.778043,140.94456 C454.101826,139.958311 453.157126,139.123805 451.943914,138.441017 C450.730702,137.758229 449.348456,137.41684 447.797136,137.41684 C446.166261,137.378908 444.704462,137.625466 443.411695,138.156524 C442.118928,138.687581 441.01512,139.427257 440.100239,140.375573 C439.185357,141.32389 438.489263,142.452369 438.011933,143.761046 C437.534604,145.069723 437.295943,146.482694 437.295943,148 C437.295943,149.517306 437.534604,150.930277 438.011933,152.238954 C438.489263,153.547631 439.185357,154.67611 440.100239,155.624427 C441.01512,156.572743 442.118928,157.312419 443.411695,157.843476 C444.704462,158.374534 446.166261,158.621092 447.797136,158.58316 C449.348456,158.58316 450.730702,158.241771 451.943914,157.558983 C453.157126,156.876195 454.101826,156.041689 454.778043,155.05544 L458,157.388287 C456.607789,158.943526 455.036604,160.090972 453.286396,160.830659 C451.536189,161.570345 449.706453,161.959149 447.797136,161.997082 C445.529822,162.035015 443.481314,161.703109 441.651551,161.001355 C439.821789,160.2996 438.260547,159.322849 436.96778,158.071071 C435.675013,156.819293 434.690536,155.330459 434.01432,153.604523 C433.338103,151.878587 433,150.010431 433,148 C433,145.989569 433.338103,144.121413 434.01432,142.395477 C434.690536,140.669541 435.675013,139.180707 436.96778,137.928929 C438.260547,136.677151 439.821789,135.7004 441.651551,134.998645 C443.481314,134.296891 445.529822,133.964985 447.797136,134.002918 Z M357,133 L357,160 L353,160 L353,133 L357,133 Z M420,133 L420,160 L416,160 L416,133 L420,133 Z M480.970916,137.733333 C479.38098,137.733333 477.955877,138.000117 476.695562,138.533692 C475.435247,139.067267 474.368843,139.794022 473.496317,140.713978 C472.623792,141.633935 471.945171,142.719468 471.460434,143.970609 C470.975698,145.221751 470.733333,146.564867 470.733333,148 C470.733333,149.435133 470.975698,150.778249 471.460434,152.029391 C471.945171,153.280532 472.623792,154.366065 473.496317,155.286022 C474.368843,156.205978 475.435247,156.932733 476.695562,157.466308 C477.955877,157.999883 479.38098,158.266667 480.970916,158.266667 C482.560852,158.266667 483.985955,157.999883 485.24627,157.466308 C486.506585,156.932733 487.582684,156.205978 488.474599,155.286022 C489.366514,154.366065 490.054829,153.280532 490.539566,152.029391 C491.024302,150.778249 491.266667,149.435133 491.266667,148 C491.266667,146.564867 491.024302,145.221751 490.539566,143.970609 C490.054829,142.719468 489.366514,141.633935 488.474599,140.713978 C487.582684,139.794022 486.506585,139.067267 485.24627,138.533692 C483.985955,138.000117 482.560852,137.733333 480.970916,137.733333 Z M384.717949,137.083333 C383.176061,137.083333 381.794023,137.357263 380.571795,137.90513 C379.349567,138.452997 378.305987,139.199219 377.441026,140.143817 C376.576064,141.088416 375.908549,142.203025 375.438462,143.487679 C374.968374,144.772333 374.733333,146.151426 374.733333,147.625 C374.733333,149.098574 374.968374,150.477667 375.438462,151.762321 C375.908549,153.046975 376.576064,154.161584 377.441026,155.106183 C378.305987,156.050781 379.349567,156.797003 380.571795,157.34487 C381.794023,157.892737 383.176061,158.166667 384.717949,158.166667 C386.22223,158.166667 387.62307,157.892737 388.920513,157.34487 C390.217955,156.797003 391.336747,156.050781 392.276923,155.106183 C393.217099,154.161584 393.950425,153.046975 394.476923,151.762321 C395.003421,150.477667 395.266667,149.098574 395.266667,147.625 C395.266667,146.151426 395.003421,144.772333 394.476923,143.487679 C393.950425,142.203025 393.217099,141.088416 392.276923,140.143817 C391.336747,139.199219 390.217955,138.452997 388.920513,137.90513 C387.62307,137.357263 386.22223,137.083333 384.717949,137.083333 Z M363,120 L355.397906,128 L352,128 L357.759162,120 L363,120 Z M417,120 C417.750004,120 418.437497,120.281247 419.0625,120.84375 C419.687503,121.406253 420,122.124996 420,123 C420,123.875004 419.687503,124.593747 419.0625,125.15625 C418.437497,125.718753 417.750004,126 417,126 C416.249996,126 415.562503,125.718753 414.9375,125.15625 C414.312497,124.593747 414,123.875004 414,123 C414,122.124996 414.312497,121.406253 414.9375,120.84375 C415.562503,120.281247 416.249996,120 417,120 Z M415.741573,54 C417.779036,54 419.746557,54.1878512 421.644195,54.5635593 C423.541832,54.9392674 425.229705,55.5819164 426.707865,56.4915254 C428.186025,57.4011345 429.36454,58.6271109 430.243446,60.1694915 C431.122351,61.7118721 431.561798,63.6694797 431.561798,66.0423729 C431.561798,69.0875858 430.712867,71.6384078 429.014981,73.6949153 C427.317095,75.7514227 424.890153,76.997173 421.734082,77.4322034 L433,96 L423.891386,96 L414.06367,78.2033898 L408.550562,78.2033898 L408.550562,96 L401,96 L401,54 L415.741573,54 Z M274.909774,54 C277.893916,54 280.71114,54.5110142 283.361529,55.5330579 C286.011918,56.5551015 288.338336,57.9820845 290.340852,59.8140496 C292.343368,61.6460147 293.923762,63.8250562 295.08208,66.3512397 C296.240398,68.8774231 296.819549,71.6446131 296.819549,74.6528926 C296.819549,76.812683 296.554514,78.712113 296.024436,80.3512397 C295.494358,81.9903663 294.797415,83.4366329 293.933584,84.6900826 C293.069753,85.9435324 292.117591,86.9944861 291.077068,87.8429752 C290.036545,88.6914643 289.025485,89.4049558 288.04386,89.9834711 L288.04386,90.0991736 L300,90.0991736 L300,96 L275.734336,96 C272.475339,96 269.461793,95.5082694 266.693609,94.5247934 C263.925425,93.5413174 261.530294,92.133618 259.508145,90.3016529 C257.485997,88.4696878 255.895787,86.2327956 254.737469,83.5909091 C253.57915,80.9490226 253,77.9697136 253,74.6528926 C253,71.6446131 253.57915,68.8774231 254.737469,66.3512397 C255.895787,63.8250562 257.47618,61.6460147 259.478697,59.8140496 C261.481213,57.9820845 263.807631,56.5551015 266.45802,55.5330579 C269.108409,54.5110142 271.925633,54 274.909774,54 Z M385.965092,54 L385.965092,60.7627119 L366.244353,60.7627119 L366.244353,71.0847458 L384.930185,71.0847458 L384.930185,77.8474576 L366.244353,77.8474576 L366.244353,89.2372881 L387,89.2372881 L387,96 L359,96 L359,54 L385.965092,54 Z M463.275862,52 C466.134811,52 468.785254,52.5026831 471.227273,53.5080645 C473.669291,54.5134459 475.942518,56.218626 478.047022,58.6236559 L472.210031,62.8817204 C470.661434,61.2257982 469.162494,60.1218666 467.713166,59.5698925 C466.263838,59.0179184 464.804605,58.7419355 463.335423,58.7419355 C461.151504,58.7419355 459.17608,59.1263402 457.409091,59.8951613 C455.642102,60.6639823 454.123308,61.7284878 452.852665,63.0887097 C451.582021,64.4489315 450.599272,66.0358332 449.904389,67.8494624 C449.209505,69.6630915 448.862069,71.6146849 448.862069,73.7043011 C448.862069,75.9516241 449.209505,78.0214959 449.904389,79.9139785 C450.599272,81.8064611 451.582021,83.4426454 452.852665,84.8225806 C454.123308,86.2025159 455.642102,87.2867344 457.409091,88.0752688 C459.17608,88.8638032 461.151504,89.2580645 463.335423,89.2580645 C465.042851,89.2580645 466.700619,88.8539467 468.308777,88.0456989 C469.916936,87.2374512 471.415876,85.9462454 472.805643,84.172043 L479,88.5483871 C477.094034,91.1505506 474.771174,93.0430048 472.031348,94.2258065 C469.291522,95.4086081 466.373056,96 463.275862,96 C460.019837,96 457.031884,95.4776038 454.311912,94.4327957 C451.59194,93.3879876 449.249226,91.9095078 447.283699,89.9973118 C445.318172,88.0851159 443.779525,85.7885439 442.667712,83.1075269 C441.555898,80.4265099 441,77.4498372 441,74.1774194 C441,70.8261481 441.555898,67.7804797 442.667712,65.0403226 C443.779525,62.3001655 445.318172,59.9641674 447.283699,58.0322581 C449.249226,56.1003488 451.59194,54.6120124 454.311912,53.5672043 C457.031884,52.5223962 460.019837,52 463.275862,52 Z M497.515789,54 L497.515789,79.6859504 C497.515789,80.6887102 497.674852,81.7396639 497.992982,82.838843 C498.311113,83.938022 498.838008,84.9504086 499.573684,85.8760331 C500.30936,86.8016575 501.28362,87.5633579 502.496491,88.161157 C503.709363,88.7589562 505.210517,89.0578512 507,89.0578512 C508.789483,89.0578512 510.290637,88.7589562 511.503509,88.161157 C512.71638,87.5633579 513.69064,86.8016575 514.426316,85.8760331 C515.161992,84.9504086 515.688887,83.938022 516.007018,82.838843 C516.325148,81.7396639 516.484211,80.6887102 516.484211,79.6859504 L516.484211,54 L524,54 L524,79.9173554 C524,82.3856873 523.562577,84.6129377 522.687719,86.5991736 C521.812861,88.5854094 520.619891,90.2727203 519.108772,91.661157 C517.597653,93.0495937 515.808197,94.119831 513.740351,94.8719008 C511.672504,95.6239707 509.425743,96 507,96 C504.574257,96 502.327496,95.6239707 500.259649,94.8719008 C498.191803,94.119831 496.392405,93.0495937 494.861404,91.661157 C493.330402,90.2727203 492.137431,88.5854094 491.282456,86.5991736 C490.427481,84.6129377 490,82.3856873 490,79.9173554 L490,54 L497.515789,54 Z M317.515789,54 L317.515789,79.6859504 C317.515789,80.6887102 317.674852,81.7396639 317.992982,82.838843 C318.311113,83.938022 318.838008,84.9504086 319.573684,85.8760331 C320.30936,86.8016575 321.28362,87.5633579 322.496491,88.161157 C323.709363,88.7589562 325.210517,89.0578512 327,89.0578512 C328.789483,89.0578512 330.290637,88.7589562 331.503509,88.161157 C332.71638,87.5633579 333.69064,86.8016575 334.426316,85.8760331 C335.161992,84.9504086 335.688887,83.938022 336.007018,82.838843 C336.325148,81.7396639 336.484211,80.6887102 336.484211,79.6859504 L336.484211,54 L344,54 L344,79.9173554 C344,82.3856873 343.562577,84.6129377 342.687719,86.5991736 C341.812861,88.5854094 340.619891,90.2727203 339.108772,91.661157 C337.597653,93.0495937 335.808197,94.119831 333.740351,94.8719008 C331.672504,95.6239707 329.425743,96 327,96 C324.574257,96 322.327496,95.6239707 320.259649,94.8719008 C318.191803,94.119831 316.392405,93.0495937 314.861404,91.661157 C313.330402,90.2727203 312.137431,88.5854094 311.282456,86.5991736 C310.427481,84.6129377 310,82.3856873 310,79.9173554 L310,54 L317.515789,54 Z M552.195519,52 C554.324518,52 556.386955,52.3351221 558.382892,53.0053763 C560.378829,53.6756306 562.175145,54.7795622 563.771894,56.3172043 L558.525458,62.0537634 C557.765101,60.9103885 556.748139,60.0725833 555.474542,59.5403226 C554.200944,59.0080619 552.860835,58.7419355 551.454175,58.7419355 C550.617783,58.7419355 549.809916,58.8405008 549.03055,59.0376344 C548.251184,59.234768 547.547865,59.550177 546.92057,59.983871 C546.293276,60.4175649 545.789547,60.9793872 545.409369,61.6693548 C545.02919,62.3593224 544.839104,63.1774146 544.839104,64.1236559 C544.839104,65.5430178 545.31432,66.6272364 546.264766,67.3763441 C547.215212,68.1254518 548.393747,68.7759829 549.800407,69.327957 C551.207067,69.8799311 552.746767,70.4121838 554.419552,70.9247312 C556.092337,71.4372785 557.632036,72.1469489 559.038697,73.0537634 C560.445357,73.960578 561.623892,75.1630749 562.574338,76.6612903 C563.524784,78.1595057 564,80.1505252 564,82.6344086 C564,84.8817317 563.600819,86.8431816 562.802444,88.5188172 C562.004069,90.1944528 560.930081,91.5842239 559.580448,92.688172 C558.230815,93.7921202 556.662602,94.6200689 554.875764,95.172043 C553.088925,95.7240171 551.20707,96 549.230143,96 C546.720965,96 544.306868,95.5663126 541.98778,94.6989247 C539.668692,93.8315369 537.672785,92.3727701 536,90.3225806 L541.417515,84.8817204 C542.291926,86.2616556 543.441948,87.3360177 544.867617,88.1048387 C546.293286,88.8736598 547.804473,89.2580645 549.401222,89.2580645 C550.237615,89.2580645 551.073994,89.1397861 551.910387,88.9032258 C552.746779,88.6666655 553.507125,88.3118303 554.191446,87.8387097 C554.875767,87.365589 555.427018,86.7643406 555.845214,86.0349462 C556.26341,85.3055519 556.472505,84.4677467 556.472505,83.5215054 C556.472505,81.9838633 555.997289,80.8010794 555.046843,79.9731183 C554.096397,79.1451572 552.917862,78.4453434 551.511202,77.8736559 C550.104542,77.3019685 548.564842,76.7598592 546.892057,76.2473118 C545.219272,75.7347645 543.679573,75.0349507 542.272912,74.1478495 C540.866252,73.2607483 539.687717,72.0779644 538.737271,70.5994624 C537.786825,69.1209603 537.311609,67.1397974 537.311609,64.655914 C537.311609,62.4874444 537.739303,60.6147032 538.594705,59.0376344 C539.450106,57.4605656 540.571616,56.1496468 541.959267,55.1048387 C543.346918,54.0600306 544.934139,53.2813646 546.720978,52.7688172 C548.507816,52.2562698 550.332645,52 552.195519,52 Z M274.92375,61 C272.92624,61 271.075634,61.3545967 269.371875,62.0638007 C267.668116,62.7730046 266.199381,63.7601251 264.965625,65.0251917 C263.731869,66.2902582 262.762504,67.7853145 262.0575,69.5104053 C261.352496,71.235496 261,73.1139 261,75.1456736 C261,77.2157825 261.352496,79.142105 262.0575,80.9246988 C262.762504,82.7072926 263.74166,84.2406836 264.995,85.5249179 C266.24834,86.8091521 267.726866,87.81544 269.430625,88.5438116 C271.134384,89.2721833 273.004573,89.6363636 275.04125,89.6363636 C277.077927,89.6363636 278.9677,89.2721833 280.710625,88.5438116 C282.45355,87.81544 283.95166,86.8091521 285.205,85.5249179 C286.45834,84.2406836 287.437496,82.7072926 288.1425,80.9246988 C288.847504,79.142105 289.2,77.2157825 289.2,75.1456736 C289.2,73.1139 288.847504,71.235496 288.1425,69.5104053 C287.437496,67.7853145 286.45834,66.2902582 285.205,65.0251917 C283.95166,63.7601251 282.45355,62.7730046 280.710625,62.0638007 C278.9677,61.3545967 277.038761,61 274.92375,61 Z M415.042951,59.7272727 L408.529412,59.7272727 L408.529412,71.1818182 L414.385621,71.1818182 C415.461257,71.1818182 416.536876,71.1321028 417.612512,71.0326705 C418.688147,70.9332381 419.674132,70.6946042 420.570495,70.3167614 C421.466858,69.9389186 422.193897,69.3622198 422.751634,68.5866477 C423.309371,67.8110757 423.588235,66.7272727 423.588235,65.3352273 C423.588235,64.1022666 423.32929,63.1079583 422.811391,62.3522727 C422.293493,61.5965871 421.616251,61.0298314 420.779645,60.6519886 C419.94304,60.2741458 419.016812,60.0255688 418.000934,59.90625 C416.985056,59.7869312 415.999071,59.7272727 415.042951,59.7272727 Z M65.1555522,4.96540804 C64.4655072,4.96649737 64.1651072,5.30582543 64.1166932,5.93382743 C63.959202,7.97088509 63.6961333,10.0035854 63.6278871,12.0428217 C63.5398086,14.695354 63.3204875,17.335359 63.1134156,19.9797213 C63.0098068,21.2998599 63.0709896,22.6308408 63.0879042,24.1156989 L63.0918335,24.7619048 L63.3324708,24.162073 L63.3636517,24.0630959 C64.2291427,20.9129926 65.2267685,17.7992474 66.2531653,14.6935361 L67.8749013,9.81567501 L68.7380138,7.24766708 L68.9445564,6.60339565 L69.1412476,5.95670348 C69.3681517,5.18708784 69.2188266,5.0084368 68.3683739,4.97412272 C67.2991832,4.93163863 66.2264928,4.9643187 65.1555522,4.96540804 Z" id="Shape" fill="#220E58"></path>
    </g>
</svg>
