<?xml version="1.0" encoding="UTF-8"?>
<svg width="149px" height="185px" viewBox="0 0 149 185" version="1.1" xmlns="http://www.w3.org/2000/svg" xmlns:xlink="http://www.w3.org/1999/xlink">
    <!-- Generator: Sketch 60.1 (88133) - https://sketch.com -->
    <title>qj-logo-anagrama</title>
    <desc>Created with Sketch.</desc>
    <g id="qj-logo-anagrama" stroke="none" stroke-width="1" fill="none" fill-rule="evenodd">
        <path d="M49.4,146 C65.8,146 78.1666667,139.782967 86.5,127.348901 C94.8333333,114.914835 99,96.7985348 99,73 C99,61.9029304 98.0333333,51.842033 96.1,42.8173077 C94.1666667,33.7925824 91.2,26.1048535 87.2,19.7541209 C83.2,13.4033883 78.0666667,8.52335165 71.8,5.11401099 C65.5333333,1.70467033 58.0666667,0 49.4,0 C32.7333333,0 20.3333333,6.21703297 12.2,18.6510989 C4.06666667,31.0851648 0,49.2014652 0,73 C0,84.0970696 0.933333333,94.157967 2.8,103.182692 C4.66666667,112.207418 7.6,119.895147 11.6,126.245879 C15.6,132.596612 20.7,137.476648 26.9,140.885989 C33.1,144.29533 40.6,146 49.4,146 Z M49.9004329,122 C45.6522367,122 42.1010101,120.735887 39.2467532,118.207661 C36.3924964,115.679435 34.036075,112.219758 32.1774892,107.828629 C30.3189033,103.4375 28.991342,98.2147177 28.1948052,92.1602823 C27.3982684,86.1058468 27,79.5524194 27,72.5 C27,39.5 34.6334776,23 49.9004329,23 C54.2813853,23 57.9321789,24.297379 60.8528139,26.8921371 C63.7734488,29.4868952 66.1298701,33.0131048 67.9220779,37.4707661 C69.7142857,41.9284274 71.008658,47.1844758 71.8051948,53.2389113 C72.6017316,59.2933468 73,65.7137097 73,72.5 C73,89.7983871 71.0750361,102.372984 67.2251082,110.22379 C63.3751804,118.074597 57.6002886,122 49.9004329,122 Z M93.7608696,185 C96.4339775,185 99.1404992,184.797753 101.880435,184.393258 C104.62037,183.988764 107.326892,183.314607 110,182.370787 L110,182.370787 L110,159.516854 C107.326892,160.325843 104.720612,160.898876 102.181159,161.235955 C99.6417069,161.573034 97.1690821,161.741573 94.763285,161.741573 C89.2834138,161.741573 84.0374396,161.067416 79.0253623,159.719101 C74.013285,158.370787 69.1348631,156.921348 64.3900966,155.370787 C59.6453301,153.820225 54.9673913,152.370787 50.3562802,151.022472 C45.7451691,149.674157 41.1674718,149 36.6231884,149 C33.4154589,149 30.2077295,149.404494 27,150.213483 L27,150.213483 L27,172.865169 C28.2028986,172.460674 29.439211,172.191011 30.7089372,172.05618 C31.9786634,171.921348 33.2818035,171.853933 34.6183575,171.853933 C38.7616747,171.853933 43.1388889,172.52809 47.75,173.876404 C52.3611111,175.224719 57.1392915,176.741573 62.0845411,178.426966 C67.0297907,180.11236 72.1421095,181.629213 77.4214976,182.977528 C82.7008857,184.325843 88.147343,185 93.7608696,185 Z M119.714844,146 C125.292969,146 129.941406,145.02926 133.660156,143.087781 C137.378906,141.146301 140.367188,138.401451 142.625,134.85323 C144.882812,131.305009 146.509766,127.020365 147.505859,121.999298 C148.501953,116.97823 149,111.388109 149,105.228933 L149,105.228933 L149,3 L123.898438,3 L123.898438,99.8061798 C123.898438,107.170412 123.333984,112.827481 122.205078,116.777388 C121.076172,120.727294 118.1875,122.702247 113.539063,122.702247 C109.820313,122.702247 106.566406,121.831929 103.777344,120.091292 L103.777344,120.091292 L98,141.380618 C101.054688,142.853464 104.474609,143.991573 108.259766,144.794944 C112.044922,145.598315 115.863281,146 119.714844,146 Z" id="QJ" fill="#220E58" fill-rule="nonzero"></path>
    </g>
</svg>