<?xml version="1.0" encoding="UTF-8"?>
<svg viewBox="0 0 249 368" version="1.1" xmlns="http://www.w3.org/2000/svg" xmlns:xlink="http://www.w3.org/1999/xlink">
    <g id="qj-logo-vert" stroke="none" stroke-width="1" fill-rule="evenodd">
        <path d="M18.1090909,334.819672 L18.1090909,358.310979 C18.1090909,359.407854 17.9589734,360.527565 17.6587339,361.670144 C17.3584945,362.812723 16.8370337,363.848646 16.094336,364.777943 C15.3516384,365.707241 14.3798251,366.476566 13.1788672,367.085941 C11.9779093,367.695317 10.4767344,368 8.67529748,368 C6.36819408,368 4.44036948,367.428719 2.89176583,366.28614 C1.34316218,365.143561 0.379249873,363.460187 0,361.235966 L3.46063779,360.550422 C3.77667935,361.921517 4.36134747,363.003142 5.21465969,363.79533 C6.0679719,364.587518 7.25310998,364.983607 8.77010947,364.983607 C10.0026716,364.983607 11.0060885,364.747477 11.7803903,364.275211 C12.5546921,363.802945 13.1551621,363.193579 13.5818182,362.447094 C14.0084743,361.700609 14.3008083,360.847496 14.4588291,359.88773 C14.6168499,358.927963 14.6958591,357.94536 14.6958591,356.939891 L14.6958591,334.819672 L18.1090909,334.819672 Z M183.331772,345.377049 C185.001801,345.377049 186.527577,345.6606 187.909146,346.227709 C189.290715,346.794818 190.48249,347.584161 191.484507,348.595762 C192.486524,349.607362 193.268389,350.802872 193.830126,352.182327 C194.391863,353.561782 194.672727,355.063833 194.672727,356.688525 C194.672727,358.313216 194.391863,359.815267 193.830126,361.194722 C193.268389,362.574177 192.486524,363.769687 191.484507,364.781287 C190.48249,365.792888 189.290715,366.582231 187.909146,367.14934 C186.527577,367.71645 185.001801,368 183.331772,368 C181.692108,368 180.181514,367.71645 178.799945,367.14934 C177.418376,366.582231 176.226601,365.792888 175.224584,364.781287 C174.222567,363.769687 173.440702,362.574177 172.878965,361.194722 C172.317228,359.815267 172.036364,358.313216 172.036364,356.688525 C172.036364,355.063833 172.317228,353.561782 172.878965,352.182327 C173.440702,350.802872 174.222567,349.607362 175.224584,348.595762 C176.226601,347.584161 177.418376,346.794818 178.799945,346.227709 C180.181514,345.6606 181.692108,345.377049 183.331772,345.377049 Z M156.484443,345.379407 C157.982737,345.410055 159.41858,345.724194 160.792016,346.321833 C162.165451,346.919473 163.398403,347.846566 164.490909,349.103141 L161.962552,350.987994 C161.431906,350.191141 160.690574,349.516892 159.738533,348.965225 C158.786493,348.413558 157.701807,348.137728 156.484443,348.137728 C155.204651,348.10708 154.057537,348.30629 153.043068,348.735364 C152.028598,349.164439 151.16241,349.762069 150.444478,350.528273 C149.726546,351.294478 149.180301,352.206247 148.805728,353.263609 C148.431155,354.320971 148.243871,355.462598 148.243871,356.688525 C148.243871,357.914451 148.431155,359.056079 148.805728,360.11344 C149.180301,361.170802 149.726546,362.082572 150.444478,362.848776 C151.16241,363.61498 152.028598,364.21261 153.043068,364.641685 C154.057537,365.070759 155.204651,365.269969 156.484443,365.239321 C157.701807,365.239321 158.786493,364.963492 159.738533,364.411825 C160.690574,363.860158 161.431906,363.185908 161.962552,362.389056 L164.490909,364.273908 C163.398403,365.530483 162.165451,366.457577 160.792016,367.055216 C159.41858,367.652855 157.982737,367.966994 156.484443,367.997642 C154.70522,368.028291 153.0977,367.760123 151.661836,367.193132 C150.225971,366.626141 149.000822,365.836962 147.986353,364.825573 C146.971883,363.814183 146.199337,362.611261 145.668692,361.216769 C145.138046,359.822277 144.872727,358.312878 144.872727,356.688525 C144.872727,355.064172 145.138046,353.554772 145.668692,352.16028 C146.199337,350.765789 146.971883,349.562866 147.986353,348.551476 C149.000822,347.540087 150.225971,346.750908 151.661836,346.183917 C153.0977,345.616926 154.70522,345.348759 156.484443,345.379407 Z M117.709091,331.803279 L117.709091,367.434426 L114.715103,367.434426 L114.715103,363.758197 L114.624376,363.758197 C114.140497,364.512299 113.565899,365.156418 112.900565,365.690574 C112.235231,366.224729 111.539665,366.664616 110.813846,367.010246 C110.088027,367.355876 109.339537,367.60724 108.568355,367.764344 C107.797172,367.921449 107.063804,368 106.368227,368 C104.704892,368 103.185232,367.709361 101.8092,367.128074 C100.433169,366.546787 99.24617,365.73771 98.2481691,364.70082 C97.2501681,363.663929 96.4714366,362.438532 95.9119512,361.02459 C95.3524658,359.610649 95.0727273,358.071047 95.0727273,356.405738 C95.0727273,354.740429 95.3524658,353.200827 95.9119512,351.786885 C96.4714366,350.372944 97.2501681,349.147546 98.2481691,348.110656 C99.24617,347.073765 100.433169,346.264689 101.8092,345.683402 C103.185232,345.102115 104.704892,344.811475 106.368227,344.811475 C107.063804,344.811475 107.797172,344.890027 108.568355,345.047131 C109.339537,345.204236 110.088027,345.455599 110.813846,345.80123 C111.539665,346.14686 112.235231,346.586746 112.900565,347.120902 C113.565899,347.655057 114.140497,348.299177 114.624376,349.053279 L114.715103,349.053279 L114.715103,331.803279 L117.709091,331.803279 Z M33.3709807,345.377049 L33.3709807,357.584016 C33.3709807,358.809432 33.4676211,359.893438 33.6609046,360.836066 C33.8541882,361.778693 34.1843759,362.57206 34.6514778,363.216189 C35.1185797,363.860317 35.7467418,364.347334 36.535983,364.677254 C37.3252241,365.007174 38.3157874,365.172131 39.5077026,365.172131 L39.8745443,365.137504 C40.1085864,365.106725 40.4372977,365.055426 40.8606807,364.983607 C41.601601,364.857923 42.3827769,364.512298 43.204232,363.946721 C44.025687,363.381145 44.7585428,362.532793 45.4028213,361.401639 C46.0470998,360.270486 46.3692342,358.699464 46.3692342,356.688525 L46.3692342,345.377049 L49.5583968,345.377049 L49.5583968,362.579918 L49.5699937,363.371721 C49.5777249,363.660792 49.5893219,363.974998 49.6047845,364.314343 L49.6308777,364.842213 C49.6791986,365.75342 49.7355722,366.617482 49.8,367.434426 L46.5141961,367.434426 C46.4497683,366.837429 46.4095015,366.248295 46.3933945,365.667008 C46.3772876,365.085721 46.3692342,364.496588 46.3692342,363.89959 L46.2725929,363.89959 C45.9182398,364.496588 45.4672516,365.046446 44.9196149,365.54918 C44.3719782,366.051915 43.7599228,366.483946 43.0834304,366.845287 C42.406938,367.206627 41.6901889,367.489412 40.9331617,367.693648 C40.1761344,367.897884 39.4271719,368 38.6862517,368 C35.7869985,368 33.6448047,367.253764 32.2596059,365.76127 C30.8744072,364.268777 30.1818182,362.140041 30.1818182,359.375 L30.1818182,345.377049 L33.3709807,345.377049 Z M134.309091,345.377049 L134.309091,366.491803 L131.290909,366.491803 L131.290909,345.377049 L134.309091,345.377049 Z M84.5090909,345.377049 L84.5090909,366.491803 L81.4909091,366.491803 L81.4909091,345.377049 L84.5090909,345.377049 Z M70.2124402,345.377049 C71.0596534,345.377049 71.8009538,345.471311 72.4363636,345.659836 L71.8463431,348.723361 C71.4529942,348.566256 70.8781081,348.487705 70.1216678,348.487705 C68.9718785,348.487705 67.9885208,348.715503 67.1715653,349.171107 C66.3546097,349.62671 65.6738236,350.207988 65.1291866,350.914959 C64.5845496,351.62193 64.1836422,352.383876 63.9264525,353.20082 C63.6692628,354.017764 63.5406699,354.803275 63.5406699,355.557377 L63.5406699,368 L60.5451811,368 L60.5451811,352.82377 C60.5451811,352.174405 60.5350954,351.518063 60.5149238,350.854737 L60.4229162,348.39729 C60.4006863,347.676538 60.3809264,346.858318 60.3636364,345.942623 L63.3137389,345.942623 L63.3137389,350.043033 L63.4045113,350.043033 C63.6163146,349.446035 63.9188862,348.872612 64.3122351,348.322746 C64.7055841,347.77288 65.1821344,347.278008 65.7419002,346.838115 C66.301666,346.398222 66.952195,346.044742 67.6935065,345.777664 C68.434818,345.510586 69.2744542,345.377049 70.2124402,345.377049 Z M106.162887,348.393443 C104.916361,348.393443 103.799064,348.608994 102.810964,349.040102 C101.822864,349.471211 100.979191,350.058402 100.27992,350.801692 C99.5806492,351.544983 99.0410026,352.422053 98.660964,353.432928 C98.2809255,354.443803 98.0909091,355.528991 98.0909091,356.688525 C98.0909091,357.848058 98.2809255,358.933246 98.660964,359.944121 C99.0410026,360.954997 99.5806492,361.832066 100.27992,362.575357 C100.979191,363.318648 101.822864,363.905838 102.810964,364.336947 C103.799064,364.768056 104.916361,364.983607 106.162887,364.983607 C107.37901,364.983607 108.511508,364.768056 109.560415,364.336947 C110.609321,363.905838 111.513799,363.318648 112.273876,362.575357 C113.033953,361.832066 113.626804,360.954997 114.052448,359.944121 C114.478091,358.933246 114.690909,357.848058 114.690909,356.688525 C114.690909,355.528991 114.478091,354.443803 114.052448,353.432928 C113.626804,352.422053 113.033953,351.544983 112.273876,350.801692 C111.513799,350.058402 110.609321,349.471211 109.560415,349.040102 C108.511508,348.608994 107.37901,348.393443 106.162887,348.393443 Z M183.331033,348.393443 C182.045663,348.393443 180.89355,348.608994 179.874659,349.040102 C178.855768,349.471211 177.993642,350.058402 177.288257,350.801692 C176.582871,351.544983 176.034245,352.422053 175.642364,353.432928 C175.250483,354.443803 175.054545,355.528991 175.054545,356.688525 C175.054545,357.848058 175.250483,358.933246 175.642364,359.944121 C176.034245,360.954997 176.582871,361.832066 177.288257,362.575357 C177.993642,363.318648 178.855768,363.905838 179.874659,364.336947 C180.89355,364.768056 182.045663,364.983607 183.331033,364.983607 C184.616403,364.983607 185.768516,364.768056 186.787407,364.336947 C187.806297,363.905838 188.67626,363.318648 189.397322,362.575357 C190.118383,361.832066 190.674846,360.954997 191.066727,359.944121 C191.458608,358.933246 191.654545,357.848058 191.654545,356.688525 C191.654545,355.528991 191.458608,354.443803 191.066727,353.432928 C190.674846,352.422053 190.118383,351.544983 189.397322,350.801692 C188.67626,350.058402 187.806297,349.471211 186.787407,349.040102 C185.768516,348.608994 184.616403,348.393443 183.331033,348.393443 Z M89.0363636,334.819672 L82.778772,340.852459 L79.9818182,340.852459 L84.7224179,334.819672 L89.0363636,334.819672 Z M132.045455,334.819672 C132.611366,334.819672 133.130111,335.03176 133.601705,335.455943 C134.073298,335.880125 134.309091,336.422128 134.309091,337.081967 C134.309091,337.741807 134.073298,338.283809 133.601705,338.707992 C133.130111,339.132174 132.611366,339.344262 132.045455,339.344262 C131.479543,339.344262 130.960798,339.132174 130.489205,338.707992 C130.017611,338.283809 129.781818,337.741807 129.781818,337.081967 C129.781818,336.422128 130.017611,335.880125 130.489205,335.455943 C130.960798,335.03176 131.479543,334.819672 132.045455,334.819672 Z M239.456767,280.52459 C241.177939,280.52459 242.845298,280.788792 244.458897,281.317204 C246.072495,281.845616 247.524711,282.715929 248.81559,283.928169 L244.574153,288.450732 C243.959449,287.549323 243.137295,286.888818 242.107665,286.469196 C241.078036,286.049575 239.994636,285.839767 238.857434,285.839767 C238.181259,285.839767 237.528146,285.917474 236.898074,286.072889 C236.268003,286.228304 235.69941,286.476965 235.192279,286.818879 C234.685148,287.160793 234.277913,287.60372 233.970561,288.147673 C233.663209,288.691627 233.509535,289.336591 233.509535,290.082584 C233.509535,291.201574 233.89372,292.056346 234.6621,292.646924 C235.43048,293.237502 236.383257,293.750365 237.520459,294.185528 C238.657662,294.620691 239.902419,295.040306 241.254768,295.444386 C242.607117,295.848466 243.851874,296.407952 244.989076,297.122863 C246.126279,297.837773 247.079056,298.785792 247.847436,299.966949 C248.615816,301.148105 249,302.717776 249,304.676009 C249,306.447744 248.677285,307.994103 248.031846,309.315133 C247.386407,310.636163 246.51815,311.731825 245.427051,312.602151 C244.335951,313.472476 243.068143,314.125211 241.623588,314.560374 C240.179034,314.995537 238.657664,315.213115 237.059433,315.213115 C235.03091,315.213115 233.079254,314.871206 231.204407,314.187379 C229.329559,313.503551 227.715985,312.353495 226.363636,310.737176 L230.743381,306.447735 C231.450291,307.535642 232.380016,308.382643 233.532587,308.988763 C234.685157,309.594882 235.906863,309.897938 237.197741,309.897938 C237.873916,309.897938 238.55008,309.80469 239.226254,309.618191 C239.902429,309.431693 240.517124,309.15195 241.070357,308.778953 C241.623591,308.405956 242.069245,307.931947 242.407332,307.35691 C242.745419,306.781873 242.91446,306.121368 242.91446,305.375375 C242.91446,304.163135 242.530276,303.230657 241.761896,302.577913 C240.993516,301.925169 240.040739,301.373453 238.903536,300.922748 C237.766334,300.472044 236.521577,300.044658 235.169228,299.640578 C233.816879,299.236498 232.572122,298.684782 231.434919,297.985413 C230.297717,297.286044 229.34494,296.353567 228.57656,295.187952 C227.80818,294.022337 227.423996,292.460436 227.423996,290.502203 C227.423996,288.792635 227.769761,287.316212 228.461303,286.072889 C229.152846,284.829567 230.05952,283.79607 231.181355,282.972369 C232.30319,282.148668 233.586366,281.534787 235.03092,281.130707 C236.475475,280.726627 237.950742,280.52459 239.456767,280.52459 Z M52.7864115,282.032787 L52.7864115,302.324888 C52.7864115,303.117076 52.9134916,303.947338 53.1676555,304.815698 C53.4218195,305.684058 53.8427722,306.483851 54.4305263,307.215102 C55.0182805,307.946352 55.7966459,308.548102 56.7656459,309.020368 C57.734646,309.492634 58.9339641,309.728763 60.3636364,309.728763 C61.7933086,309.728763 62.9926267,309.492634 63.9616268,309.020368 C64.9306269,308.548102 65.7089923,307.946352 66.2967464,307.215102 C66.8845005,306.483851 67.3054533,305.684058 67.5596172,304.815698 C67.8137812,303.947338 67.9408612,303.117076 67.9408612,302.324888 L67.9408612,282.032787 L73.9454545,282.032787 L73.9454545,302.5077 C73.9454545,304.457701 73.5959844,306.217247 72.8970335,307.786388 C72.1980826,309.35553 71.2449821,310.688519 70.0377033,311.785395 C68.8304246,312.882271 67.4007738,313.727767 65.7487081,314.321908 C64.0966425,314.916049 62.3016365,315.213115 60.3636364,315.213115 C58.4256362,315.213115 56.6306303,314.916049 54.9785646,314.321908 C53.3264989,313.727767 51.8889056,312.882271 50.6657416,311.785395 C49.4425776,310.688519 48.4894771,309.35553 47.8064115,307.786388 C47.1233459,306.217247 46.7818182,304.457701 46.7818182,302.5077 L46.7818182,282.032787 L52.7864115,282.032787 Z M196.150048,282.032787 L196.150048,302.324888 C196.150048,303.117076 196.277128,303.947338 196.531292,304.815698 C196.785456,305.684058 197.206409,306.483851 197.794163,307.215102 C198.381917,307.946352 199.160282,308.548102 200.129282,309.020368 C201.098282,309.492634 202.297601,309.728763 203.727273,309.728763 C205.156945,309.728763 206.356263,309.492634 207.325263,309.020368 C208.294263,308.548102 209.072629,307.946352 209.660383,307.215102 C210.248137,306.483851 210.66909,305.684058 210.923254,304.815698 C211.177418,303.947338 211.304498,303.117076 211.304498,302.324888 L211.304498,282.032787 L217.309091,282.032787 L217.309091,302.5077 C217.309091,304.457701 216.959621,306.217247 216.26067,307.786388 C215.561719,309.35553 214.608618,310.688519 213.40134,311.785395 C212.194061,312.882271 210.76441,313.727767 209.112344,314.321908 C207.460279,314.916049 205.665273,315.213115 203.727273,315.213115 C201.789273,315.213115 199.994267,314.916049 198.342201,314.321908 C196.690135,313.727767 195.252542,312.882271 194.029378,311.785395 C192.806214,310.688519 191.853113,309.35553 191.170048,307.786388 C190.486982,306.217247 190.145455,304.457701 190.145455,302.5077 L190.145455,282.032787 L196.150048,282.032787 Z M168.601881,280.52459 C170.872625,280.52459 172.977762,280.920893 174.917355,281.713511 C176.856949,282.506129 178.662479,283.850452 180.333998,285.746519 L175.69792,289.103473 C174.467933,287.797984 173.277388,286.927671 172.126247,286.492508 C170.975106,286.057345 169.816098,285.839767 168.649188,285.839767 C166.914592,285.839767 165.345595,286.142823 163.942149,286.748942 C162.538703,287.355062 161.332388,288.194292 160.323169,289.266658 C159.31395,290.339024 158.533393,291.590098 157.981476,293.019919 C157.429559,294.44974 157.153605,295.988328 157.153605,297.635731 C157.153605,299.407465 157.429559,301.039302 157.981476,302.531289 C158.533393,304.023276 159.31395,305.313203 160.323169,306.401111 C161.332388,307.489018 162.538703,308.343789 163.942149,308.96545 C165.345595,309.587112 166.914592,309.897938 168.649188,309.897938 C170.005326,309.897938 171.322023,309.579341 172.599316,308.942138 C173.876609,308.304935 175.067155,307.28698 176.170989,305.888243 L181.090909,309.338445 C179.57708,311.389927 177.732128,312.881892 175.555999,313.814384 C173.379869,314.746876 171.061853,315.213115 168.601881,315.213115 C166.015756,315.213115 163.642549,314.80127 161.482189,313.977569 C159.321828,313.153868 157.461108,311.988271 155.899972,310.480742 C154.338835,308.973214 153.116752,307.162652 152.233685,305.049004 C151.350618,302.935356 150.909091,300.58862 150.909091,298.008726 C150.909091,295.366665 151.350618,292.965535 152.233685,290.805262 C153.116752,288.644989 154.338835,286.803345 155.899972,285.280275 C157.461108,283.757205 159.321828,282.583837 161.482189,281.760136 C163.642549,280.936435 166.015756,280.52459 168.601881,280.52459 Z M131.036568,282.032787 C132.670012,282.032787 134.247382,282.181191 135.768727,282.478003 C137.290071,282.774815 138.643247,283.282513 139.828294,284.001111 C141.013342,284.71971 141.958162,285.688241 142.662785,286.906733 C143.367408,288.125226 143.719714,289.671751 143.719714,291.546355 C143.719714,293.952097 143.039123,295.967267 141.67792,297.591924 C140.316717,299.216581 138.371026,300.200733 135.84079,300.54441 L144.872727,315.213115 L137.57031,315.213115 L129.691386,301.153654 L125.271502,301.153654 L125.271502,315.213115 L119.218182,315.213115 L119.218182,282.032787 L131.036568,282.032787 Z M107.817883,282.032787 L107.817883,287.375382 L91.874818,287.375382 L91.874818,295.529869 L106.981221,295.529869 L106.981221,300.872465 L91.874818,300.872465 L91.874818,309.87052 L108.654545,309.87052 L108.654545,315.213115 L86.0181818,315.213115 L86.0181818,282.032787 L107.817883,282.032787 Z M19.5871497,282 C21.9825441,282 24.2439515,282.403705 26.37144,283.211128 C28.4989284,284.01855 30.3663624,285.145878 31.9737981,286.593145 C33.5812338,288.040411 34.8498283,289.761871 35.7796195,291.757576 C36.7094107,293.75328 37.1742994,295.939382 37.1742994,298.315946 C37.1742994,300.022198 36.9615537,301.522762 36.536056,302.817685 C36.1105584,304.112608 35.5511161,305.25517 34.8577125,306.245405 C34.1643088,307.23564 33.4000004,308.065902 32.5647642,308.736215 C31.729528,309.406528 30.9179427,309.970191 30.1299841,310.427223 L30.1299841,310.518629 L39.7272727,310.518629 L39.7272727,315.180328 L20.2490317,315.180328 C17.6330089,315.180328 15.214012,314.791857 12.9919686,314.014903 C10.7699251,313.237949 8.84733477,312.125856 7.2241399,310.678589 C5.60094502,309.231322 4.32447112,307.46416 3.39467988,305.377049 C2.46488864,303.289938 2,300.936261 2,298.315946 C2,295.939382 2.46488864,293.75328 3.39467988,291.757576 C4.32447112,289.761871 5.59306556,288.040411 7.20050125,286.593145 C8.80793695,285.145878 10.675371,284.01855 12.8028594,283.211128 C14.9303478,282.403705 17.1917553,282 19.5871497,282 Z M19.1767045,287 C17.5732874,287 16.0877909,287.280134 14.7201705,287.840411 C13.35255,288.400688 12.1735845,289.18052 11.1832386,290.179933 C10.1928928,291.179345 9.41477556,292.360451 8.84886364,293.723287 C8.28295172,295.086122 8,296.570076 8,298.175193 C8,299.810595 8.28295172,301.332405 8.84886364,302.740668 C9.41477556,304.148931 10.2007525,305.360321 11.2068182,306.374877 C12.2128838,307.389432 13.3997091,308.184407 14.7673295,308.759826 C16.13495,309.335245 17.6361661,309.622951 19.2710227,309.622951 C20.9058794,309.622951 22.422815,309.335245 23.821875,308.759826 C25.220935,308.184407 26.4234798,307.389432 27.4295455,306.374877 C28.4356111,305.360321 29.2215881,304.148931 29.7875,302.740668 C30.3534119,301.332405 30.6363636,299.810595 30.6363636,298.175193 C30.6363636,296.570076 30.3534119,295.086122 29.7875,293.723287 C29.2215881,292.360451 28.4356111,291.179345 27.4295455,290.179933 C26.4234798,289.18052 25.220935,288.400688 23.821875,287.840411 C22.422815,287.280134 20.8744403,287 19.1767045,287 Z M130.476479,286.557377 L125.254545,286.557377 L125.254545,295.606557 L129.949495,295.606557 C130.811837,295.606557 131.674166,295.567282 132.536508,295.48873 C133.39885,295.410177 134.189318,295.221654 134.907937,294.923156 C135.626555,294.624657 136.209425,294.16906 136.656566,293.556352 C137.103706,292.943644 137.327273,292.087437 137.327273,290.987705 C137.327273,290.013656 137.119675,289.228145 136.704473,288.631148 C136.289272,288.03415 135.746324,287.586409 135.075613,287.28791 C134.404903,286.989411 133.662342,286.793033 132.847908,286.69877 C132.033474,286.604508 131.243005,286.557377 130.476479,286.557377 Z M249,0 L249,253.377049 L0,253.377049 L0,0 L249,0 Z M232.523388,155.344262 C230.645542,155.323489 229.019344,156.037449 227.471361,156.970619 C225.218081,158.329994 223.296026,160.093177 221.547404,162.0396 C218.171224,165.796714 214.808647,169.564686 211.464434,173.348946 C209.515173,175.554621 207.818922,177.940143 206.539592,180.604599 C204.801172,184.2253 203.236186,187.922012 201.648076,191.608543 C199.370311,196.894698 197.291145,202.250757 195.541843,207.733726 C194.354331,211.456227 193.440912,215.250667 192.628154,219.066146 C192.053441,221.766571 191.597072,224.499572 191.248844,227.238682 C190.859808,230.301516 190.496617,233.372495 190.340187,236.46044 C190.181716,239.605394 190.089898,242.751026 190.182396,245.898694 C190.217083,247.09451 190.444927,247.295396 191.665766,247.319149 C193.296724,247.351047 194.929723,247.355119 196.560682,247.316434 C197.770638,247.28793 197.956995,247.061255 197.903264,245.821326 C197.859056,244.793821 197.640053,243.75885 197.712147,242.742203 C197.950874,239.390256 198.248772,236.0322 199.064931,232.763729 C200.655762,226.39306 202.514565,220.097723 205.134437,214.062317 C207.382956,208.88407 210.329292,204.164604 214.756957,200.512685 C218.673843,197.280861 223.088585,195.265213 228.226989,194.943524 C230.798571,194.782001 232.726068,195.721279 234.224401,197.816331 C236.722529,201.312157 238.420141,205.153425 239.463464,209.29738 C240.722947,214.301024 241.158963,219.415161 241.353534,224.534755 L241.405244,226.070692 C241.545351,230.790158 241.784078,235.49673 242.172434,240.199229 C242.221986,240.800724 242.303519,241.396734 242.721985,241.945376 L242.960708,242.215556 L242.955947,164.08986 L242.955947,164.08986 C242.955947,163.601218 242.930102,163.111219 242.957987,162.624613 C243.017839,161.565889 242.599557,160.732483 241.824206,160.040919 C240.027295,158.437224 238.053549,157.086672 235.826114,156.16979 C234.78415,155.740871 233.700699,155.359458 232.523388,155.344262 Z M232.545186,202.062575 L231.900962,201.096615 C230.403803,198.915882 229.865792,198.869326 226.03978,199.288538 C225.931482,199.301202 225.827297,199.33986 225.72037,199.361855 C220.796247,200.377624 216.898898,203.02169 213.654762,206.645534 C210.780073,209.857472 208.768339,213.587291 207.178829,217.521065 C205.193827,222.42995 203.589923,227.460808 202.249223,232.576979 C201.432877,235.689606 201.016822,238.84289 200.755674,242.026167 C200.641892,243.409853 200.746078,244.789539 200.964729,246.167227 C201.10113,247.023699 201.531579,247.358289 202.391793,247.336961 L204.117189,247.323131 L204.117189,247.323131 L208.145436,247.340614 L208.145436,247.340614 L209.296119,247.32563 C210.449011,247.296304 210.514127,247.208324 210.472315,246.133234 L210.414689,245.175674 C210.407352,245.016229 210.403773,244.856857 210.407885,244.69756 C210.534004,239.595386 212.429901,235.259037 216.382085,231.844479 C217.500019,230.878698 218.770805,230.190854 220.324672,230.047554 C222.707224,229.827604 224.432448,230.944683 225.902008,232.55965 C228.209162,235.094408 230.031718,237.931097 231.315527,241.083714 C231.800262,242.273311 232.203843,243.484236 232.515038,244.725703 L232.730938,245.662675 C233.044864,247.151003 233.308069,247.316966 234.822867,247.331629 C236.083371,247.344959 237.343875,247.352957 238.603694,247.328296 L239.096447,247.309784 C239.950695,247.252958 240.044954,247.043079 239.875453,246.063838 L239.82787,245.802643 C239.07664,241.818214 238.526926,237.807791 238.39875,233.757378 L238.259116,229.463388 C238.081261,224.454766 237.811033,219.452774 237.027892,214.489087 C236.332867,210.086086 235.040833,205.857713 232.545186,202.062575 Z M193.163636,6.3853252 C192.767357,5.90550432 192.305031,6.05663434 191.898643,6.05121264 L189.796862,6.03926794 L189.796862,6.03926794 L165.380274,6.04714636 C163.745959,6.0491795 163.535688,6.17726728 163.088189,7.53404894 C161.495658,12.3654658 159.907171,17.1975603 158.350359,22.0411759 C155.933594,29.5637915 153.574788,37.1053831 151.36425,44.6930592 C148.988596,52.8493365 146.532068,60.9825716 144.242679,69.1632467 C142.025401,77.0850353 139.953022,85.0488421 137.859076,93.0051941 C136.275307,99.0232866 134.725908,105.050867 133.221664,111.089291 C132.279939,114.870478 131.369066,118.659798 130.464283,122.450624 L129.108581,128.137164 C128.041053,132.610071 126.973525,137.0823 125.948455,141.565372 C124.705701,147.001987 123.493949,152.446056 122.29298,157.892837 C121.05764,163.494135 119.827017,169.09679 118.641549,174.708254 C117.910544,178.169561 117.201105,181.635687 116.499853,185.103219 L115.452443,190.305144 C114.237321,196.354411 113.022873,202.403679 111.859645,208.462434 C110.838619,213.778416 109.913293,219.112696 108.903725,224.431388 C107.751953,230.496243 106.597486,236.56042 105.814363,242.686946 C105.670813,243.812628 105.639811,244.956608 105.636364,246.092455 C105.633072,247.100892 105.844017,247.285908 106.898066,247.321149 C107.579648,247.344262 108.262728,247.347377 108.945709,247.341604 L109.969905,247.328604 C111.366947,247.308995 111.650884,247.117 111.90445,245.873765 L111.958715,245.590947 C112.25862,243.938682 112.538307,242.280996 112.923804,240.649063 C115.014379,231.814395 118.292445,223.399909 121.938485,215.118932 C125.493543,207.046691 129.269654,199.07543 132.704075,190.947616 C137.528843,179.526117 141.823892,167.90537 145.734118,156.141626 C147.815258,149.879557 149.773067,143.572758 151.669547,137.25105 C153.567375,130.926632 155.384329,124.575782 157.117041,118.203246 C158.481273,113.191049 159.779543,108.160173 161.063312,103.12577 L162.344154,98.0907534 C164.223111,90.6955478 166.120939,83.3044086 167.877912,75.8800614 C169.473813,69.1374936 170.883031,62.3515521 172.284162,55.5642553 C173.553873,49.4173973 174.919285,43.2881599 176.711303,37.2653234 C178.599022,30.9165069 180.938957,24.7560947 184.164455,18.958259 C186.304229,15.1129147 188.809281,11.5318786 191.729482,8.24225915 L192.37221,7.54684958 C192.690123,7.19500262 192.983289,6.82529656 193.163636,6.3853252 Z M74.0816247,6.04695101 L60.6700601,6.03278689 L60.6700601,6.03278689 L47.541596,6.04380025 C46.0714658,6.04651123 45.8962585,6.23763543 45.8694069,7.7625626 C45.8204025,10.5792725 45.736491,13.3966602 45.6780885,16.2120146 C45.5062377,24.5347282 45.5595115,32.8600443 45.4608691,41.1851869 L45.3074547,49.8043184 C45.2214355,55.7625841 45.3223036,61.9419689 45.3223036,69.9612917 L45.3577355,72.0126691 C45.4181846,77.3676021 45.2896867,84.3489895 45.467974,91.3319599 C45.674195,99.3927926 45.584403,107.459264 45.6883727,115.524435 L45.8103331,121.57296 C46.0687807,130.620183 45.7586436,139.67554 46.1560487,148.723441 C46.3507235,153.161996 46.3594503,157.608683 46.4433618,162.049949 C46.6313236,171.965364 46.8991693,181.878068 47.1656723,191.79145 C47.2744217,195.835783 47.4288189,199.87861 47.5614365,203.921537 L47.7355995,209.986204 C47.9061078,217.355329 48.2202726,224.715645 48.5002015,232.079348 L48.8633706,243.452594 L48.8633706,243.452594 C48.8929075,244.317397 48.9922588,245.181523 49.0949665,246.042259 L49.1613282,246.48446 C49.2997226,247.184401 49.5653358,247.304169 50.5389163,247.32252 C51.684141,247.344262 52.829664,247.346775 53.9750876,247.344262 L55.6930988,247.332686 C57.2716229,247.323716 57.5069817,247.231376 57.6401198,245.974592 L57.6908647,245.407212 C57.9640807,242.006963 58.2916713,238.611459 58.603151,235.213921 C58.9387971,231.547318 59.2945821,227.882071 59.6194876,224.214113 L60.4800843,214.018111 L60.4800843,214.018111 L61.5628788,202.045738 L61.5628788,202.045738 L62.4207904,191.522386 L62.4207904,191.522386 L63.5049275,179.059325 L63.5049275,179.059325 C63.8043239,175.442876 64.0527021,171.821682 64.3453855,168.204555 C64.7038556,163.777522 65.1093162,159.354555 65.4496614,154.926167 C65.726066,151.321747 65.9216638,147.709322 66.1939148,144.104331 L66.4975487,140.502389 C67.1211793,133.923514 67.4293025,127.320241 68.0670302,120.745433 C68.3026538,118.315038 68.3066816,115.877865 68.5248516,113.448148 C68.9531361,108.648355 69.347856,103.841785 69.6036183,99.0297922 C69.7677493,95.9458812 70.0527129,92.8722634 70.2602681,89.7914975 L70.4346782,86.707703 C70.5877329,83.1935931 71.0408552,79.6923603 70.9837953,76.1626622 C70.9065967,71.3886236 71.3301822,66.6315286 71.699393,61.8832443 C72.064576,57.1891796 72.7224425,52.5201915 72.9889455,47.8118941 C73.3440592,41.5386827 73.7407929,35.2668267 74.2080124,29.0010704 C74.4060436,26.3504081 74.3113914,23.6855132 74.6034036,21.047728 C74.9959753,17.5109814 75.0190678,13.9534145 75.2250095,10.4066047 L75.4223802,7.74900769 C75.5514473,6.37065427 75.3284828,6.08157326 74.0816247,6.04695101 Z M17.3056232,6.04464747 L13.2982712,6.03278689 L13.2982712,6.03278689 L7.75535078,6.03692518 C6.28696001,6.06311689 6.06629692,6.28134996 6.0397511,7.73487782 L6.0399816,243.96315 C6.0399816,244.505348 6.02929377,245.048223 6.04465753,245.589744 L6.06833462,246.119592 C6.14654679,247.210979 6.42958643,247.328844 7.84288505,247.333588 C11.9035928,247.34782 15.9649685,247.33901 20.0263442,247.33901 L22.8318997,247.344262 L22.8318997,247.344262 L25.6374553,247.332232 C27.046245,247.314611 27.1785069,247.16144 27.1624752,245.710383 L27.1284912,244.57219 L27.1284912,244.57219 L26.1584871,225.907957 L26.1584871,225.907957 L25.7930968,218.113861 L25.7930968,218.113861 C25.4891617,212.217459 25.1084077,206.323767 24.8819593,200.423975 C24.6889103,195.388311 24.3061524,190.364169 24.1204513,185.326473 C23.8532556,178.073219 23.3449156,170.828099 22.9634937,163.578912 C22.7049817,158.655077 22.498573,153.72853 22.249413,148.804695 C21.8499553,140.904871 21.4665294,133.004368 21.0082886,125.107933 C20.8386193,122.184808 20.8713508,119.250161 20.6315426,116.339914 C20.1719658,110.764492 20.0368717,105.173889 19.7703599,99.5896185 L19.5387119,95.4029393 C19.2531464,90.989109 19.2259629,86.554099 19.2457088,82.1288944 L19.2614963,79.4751962 C19.3075875,72.7112765 19.3122635,65.9351574 19.971569,59.1766597 C20.2169438,56.664024 20.4599435,54.1486772 20.6784008,51.6308203 L20.984909,47.8521774 C21.2835002,43.8561784 21.7617807,39.8703455 21.9508217,35.8696023 C22.1285069,32.1365692 22.0677198,28.3893035 22.0443402,24.649493 C22.0082688,18.8689849 21.1051471,13.2172489 19.4492013,7.68750731 L19.284615,7.17390727 C18.9386911,6.19560442 18.6110972,6.05522033 17.3056232,6.04464747 Z M240.864501,128.198881 C238.801364,128.161179 236.850414,128.617652 235.004809,129.520501 C232.235035,130.875784 229.805924,132.68754 227.59845,134.811019 C222.738176,139.487518 218.384793,144.606354 214.111446,149.793188 C208.591734,156.492177 204.256137,163.86645 201.062243,171.908603 C197.978483,179.674212 195.399081,187.60941 192.721413,195.511682 L189.163281,205.934103 L189.163281,205.934103 L184.394342,220.023498 C182.026113,226.967555 179.902778,233.976246 178.65915,241.213173 C178.404678,242.697049 178.234346,244.198431 178.10369,245.697119 C177.97919,247.113669 178.182357,247.307569 179.603842,247.331807 L181.737609,247.344262 L181.737609,247.344262 L184.504308,247.336516 C186.425194,247.318625 186.545779,247.133533 186.497875,245.109226 L186.489629,244.791577 C186.358289,240.096226 186.761887,235.425112 187.2421,230.77083 C187.638173,226.923793 188.260671,223.095607 189.04324,219.293679 C190.031712,214.489259 191.217195,209.740046 192.798067,205.096536 C195.286007,197.792956 198.428597,190.745216 201.518513,183.676605 C203.479725,179.191312 205.89105,175.006296 209.229282,171.363258 C212.086617,168.244694 214.880334,165.069575 217.749298,161.961783 C219.882893,159.651137 222.04043,157.351937 224.698019,155.590002 C227.298146,153.865769 230.076813,152.714486 233.304227,153.000624 C235.827738,153.223475 238.014691,154.32359 240.153074,155.540853 C240.767364,155.890278 241.330348,156.3279 241.941217,156.684731 C242.653328,157.099462 242.872912,156.969522 242.944739,156.121881 L242.963636,155.557685 L242.963636,155.557685 L242.95842,154.991469 L242.95842,142.875389 C242.95842,138.674887 242.964577,134.474386 242.955,130.273885 C242.950896,128.508583 242.663589,128.231198 240.864501,128.198881 Z M125.335318,6.05593547 L116.629665,6.03278689 C115.396941,6.03018329 115.263928,6.12370435 115.072469,7.36184192 C114.978867,7.96724398 114.907957,8.57716396 114.848989,9.18818833 L114.768151,10.1051265 L113.70606,23.3891837 L113.122195,30.3505732 L113.122195,30.3505732 L111.692722,47.0229054 L111.692722,47.0229054 C111.334661,51.122923 110.95779,55.2215853 110.613165,59.3229584 L109.748579,70.1727572 L109.748579,70.1727572 L108.664319,82.6368109 L108.664319,82.6368109 L107.842055,93.0034175 L107.842055,93.0034175 C107.370462,98.7251447 106.889465,104.446872 106.403093,110.167921 L105.537835,120.039815 L105.537835,120.039815 L105.002926,126.516911 L105.002926,126.516911 L104.475072,132.994515 C104.196281,136.394481 103.92488,139.795801 103.630639,143.194411 L103.088845,149.26286 L103.088845,149.26286 L102.553097,155.331818 L101.704633,166.019649 L100.60022,178.644993 L100.60022,178.644993 L99.7752687,189.0116 L99.7752687,189.0116 C99.3050196,194.734005 98.827381,200.455732 98.3410091,206.176781 L97.4717202,216.049353 L97.4717202,216.049353 C97.1055978,220.420446 96.7683621,224.794928 96.4076139,229.166698 L95.8403293,235.966026 C95.7416517,237.098745 95.6393166,238.231013 95.5309353,239.362527 L95.2832748,241.886317 C95.1665245,243.148396 95.0747733,244.411987 95.0727273,245.682654 L95.0791077,246.188513 C95.1174416,247.226937 95.3636611,247.314105 96.7367882,247.334859 L98.0266141,247.344262 L98.0266141,247.344262 L99.31644,247.334859 C100.745409,247.316477 100.96312,247.298095 101.09873,246.15879 L101.155114,245.59862 C101.464134,242.200688 101.84638,238.812244 102.438222,235.451585 L103.239576,230.975619 L103.239576,230.975619 L104.05655,226.502703 C105.042729,221.122532 106.01413,215.740327 107.031211,210.366931 C107.80645,206.272335 108.644837,202.190615 109.450978,198.102796 L111.449263,187.90147 C111.784981,186.201902 112.124456,184.503162 112.47132,182.806003 C113.458172,177.980858 114.51556,173.170622 115.541375,168.35361 L117.870028,157.343274 C118.261952,155.509072 118.658902,153.675999 119.065555,151.845109 C120.309028,146.242655 121.629084,140.657144 122.933018,135.067566 C124.357872,128.956167 125.757199,122.837992 127.249232,116.742859 C129.513817,107.49105 131.846252,98.256184 134.266019,89.0436815 C136.932331,78.8891914 139.681272,68.7577428 142.580022,58.6696663 C144.880883,50.6593838 147.25564,42.6701098 149.696905,34.7011663 C151.742488,28.0261004 153.854956,21.3739064 156.0037,14.7334344 L158.163402,8.09645666 C158.731732,6.3581847 158.567145,6.0965968 156.774152,6.05864622 L125.335318,6.05593547 L125.335318,6.05593547 Z M226.299083,6.44461244 C225.989473,5.81307088 225.223597,6.09631591 224.660732,6.09496067 L208.582958,6.08607633 C205.903396,6.08344114 203.223884,6.07756843 200.544448,6.06446779 C199.135588,6.05769159 198.069608,6.51034155 197.072203,7.49424535 C192.588294,11.9184244 188.953776,16.9572044 186.066802,22.5306265 C181.820532,30.7264367 179.270326,39.5110985 177.221878,48.4550009 C176.169477,53.046552 175.24608,57.668596 174.252749,62.2736994 C172.99041,68.1185759 171.685053,73.9530442 170.25081,79.7583693 L169.149621,84.1066062 C167.637558,89.9253265 166.277584,95.7826712 164.768916,101.601392 C163.110196,107.995411 161.348272,114.362326 159.652209,120.746181 C157.467967,128.966385 155.027754,137.112052 152.506744,145.231969 C150.097085,152.991392 147.484414,160.684408 144.738665,168.334735 C141.626273,177.007589 138.328523,185.60455 134.628144,194.041593 C130.88499,202.576891 126.957157,211.032907 123.219435,219.570915 C120.085996,226.725902 117.392527,234.046227 115.618383,241.672837 C115.287046,243.096516 114.978115,244.529004 114.739797,245.971657 C114.570734,246.994862 114.818558,247.246259 115.823431,247.326896 C116.201617,247.356711 116.583197,247.339093 116.963419,247.339093 L143.196727,247.339093 C143.631946,247.339093 144.066486,247.332317 144.500347,247.326218 C145.065928,247.318765 145.423065,247.049749 145.527626,246.48597 C145.596881,246.113279 145.672247,245.739911 145.705516,245.363154 C145.990004,242.12481 146.426581,238.908826 146.939881,235.696231 C148.05271,228.728268 149.779327,221.912092 151.894314,215.192137 C155.268109,204.475581 159.675294,194.161532 164.256295,183.917955 C169.851675,171.404352 175.738332,159.016786 180.621474,146.194189 C183.07255,139.759512 185.253397,133.236745 187.051306,126.594039 C188.726224,120.40892 190.114313,114.158086 191.298949,107.862019 L191.874699,104.710311 C192.719788,99.9461925 193.612255,95.1902057 194.496976,90.4327131 L195.811358,83.2941401 C197.153,75.8884344 198.603277,68.5091559 200.426986,61.2023827 C202.42587,53.1969836 205.015456,45.3914823 208.169265,37.7723264 C212.627372,27.0015612 218.13856,16.8345553 225.584129,7.78629944 L226.105633,7.24883269 C226.313501,7.01326922 226.451097,6.75518813 226.299083,6.44461244 Z M72.6547628,98.0327869 C72.4258268,98.2223912 72.3688352,98.4006954 72.3524379,98.5732625 L72.3456991,98.7016991 C72.2110309,103.966072 71.6218573,109.200565 71.2952869,114.452715 C71.1404184,116.94297 70.9727564,119.433225 70.7835475,121.920764 L69.7048549,135.71258 L69.7048549,135.71258 L68.884052,147.075259 L68.884052,147.075259 L68.3104494,154.295267 L68.3104494,154.295267 L66.7004064,174.333603 L66.7004064,174.333603 C66.3051551,179.200704 65.9166373,184.067804 65.4924323,188.932188 L64.9580986,194.984165 C64.8718361,195.99308 64.7890152,197.002371 64.7127032,198.012417 C64.414413,201.961376 63.9477876,205.896074 63.6090969,209.840959 C63.1081311,215.677133 62.7452002,221.52689 62.1560266,227.353557 C61.6052335,232.80604 61.1783352,238.268032 60.6383155,243.719157 C60.5696347,244.421345 60.4295797,245.116742 60.3804258,245.819609 C60.2949115,247.035196 60.5076873,247.26609 61.6826677,247.33332 C62.0051982,247.352335 62.3284019,247.34079 62.6522791,247.34079 L77.5129196,247.34079 C77.8899907,247.34079 78.2670618,247.334679 78.6441328,247.331962 C79.4474289,247.326529 79.8965475,246.900055 79.7881396,246.110943 C79.4804226,243.879424 79.8999142,241.666921 79.8898141,239.442872 C79.8628804,233.46952 79.9308879,227.496168 79.9174211,221.522136 C79.8783673,204.039419 80.2184046,186.554664 79.6413512,169.073983 L79.3665438,160.286276 C79.2694985,157.357323 79.1565455,154.42888 78.9962903,151.501625 C78.6515396,145.215887 78.2663884,138.934224 77.6213275,132.672934 C77.0994881,127.602783 76.5850554,122.528557 75.8908406,117.480816 C75.4770725,114.472409 75.0166754,111.470623 74.5427274,108.470704 L73.1133081,99.4717971 C73.0385673,98.9971071 73.0345272,98.4966113 72.6547628,98.0327869 Z M233.451519,6.04050931 C231.83522,5.95851281 230.704282,6.52977767 229.677686,7.74075075 C225.895775,12.2065104 222.474688,16.9277468 219.520785,21.9864564 C215.283134,29.246196 211.818963,36.8698374 208.927666,44.7686075 C206.654346,50.9779787 204.734444,57.2950973 203.188155,63.7199634 C202.084683,68.3063461 201.140619,72.9295933 200.272898,77.5685404 L195.056845,106.141292 L195.056845,106.141292 C193.949468,112.266634 192.657641,118.348606 191.159821,124.390596 C187.652567,138.530587 182.348602,152.013251 176.512154,165.304138 C171.573724,176.549856 166.337077,187.663431 161.722446,199.05349 C157.980926,208.289277 154.685723,217.666695 152.429905,227.403948 C151.230051,232.583366 150.379123,237.811034 149.726947,243.074697 L149.459173,245.33272 C149.272901,246.976317 149.464689,247.299304 150.93756,247.333875 L151.228957,247.337229 C157.313807,247.346717 163.397985,247.346717 169.482162,247.336552 L170.058574,247.321941 C171.172614,247.255603 171.442456,246.929852 171.498901,245.682065 L171.508426,245.377445 C171.641042,238.475509 172.62994,231.671155 173.92648,224.916947 C175.069535,218.962375 176.574086,213.085733 178.195771,207.241619 C180.207225,199.994078 182.377549,192.793972 184.607785,185.612163 C186.63001,179.100557 188.716187,172.607925 190.856218,166.134267 C193.336204,158.633282 195.918512,151.167535 198.58968,143.731604 L202.202773,133.645533 C204.629952,126.928647 207.141502,120.24469 210.022252,113.7053 C213.699147,105.357921 218.123942,97.4361103 223.695832,90.1960228 C228.654456,83.7515047 234.366367,78.1425376 241.468388,74.1077678 C242.619522,73.4538287 242.968901,72.6223436 242.963636,71.3463154 L242.940596,60.8851485 L242.940596,60.8851485 L242.935936,7.79991969 C242.904356,6.22640282 242.665145,6.08909969 240.887519,6.07459003 L240.557579,6.07303684 C238.187995,6.06761559 235.814371,6.16113226 233.451519,6.04050931 Z M222.968123,233.288112 C221.612493,231.981008 220.789762,231.951317 219.313589,233.03786 C219.096872,233.197625 218.880156,233.361632 218.688471,233.552501 C215.330357,236.889186 213.958918,241.041661 214.358098,245.888336 C214.457563,247.098591 214.714461,247.312082 215.878405,247.329049 C217.874961,247.358033 219.871518,247.336825 221.868074,247.336118 L226.071096,247.343763 C226.771453,247.342402 227.471737,247.337767 228.171948,247.326928 C229.285171,247.309962 229.472904,247.042744 229.348407,245.899647 C229.318107,245.621826 229.249601,245.346832 229.179777,245.07608 C228.574421,242.728383 227.72073,240.487432 226.579841,238.384331 C225.573329,236.530775 224.468669,234.735893 222.968123,233.288112 Z M110.477536,6.05236726 L110.102074,6.03278689 L110.102074,6.03278689 L89.952724,6.03677827 C87.8177394,6.04016718 87.7301848,6.10658985 87.0802605,8.09384751 L86.9152538,8.72282947 L86.9152538,8.72282947 C86.1501616,11.205546 85.3628439,13.6821625 84.6206505,16.1716568 L82.3939862,23.5606699 C81.6574334,26.0252557 80.9389808,28.4947555 80.2759233,30.9791664 C78.8656211,36.2584127 77.6284077,41.5837481 76.549466,46.9477171 C75.7890882,50.7290645 75.3331309,54.5429454 74.9822391,58.3683486 C74.7155344,61.2806097 74.5950627,64.2058333 74.4219319,67.1268632 L74.2238818,70.0458597 C73.6359192,77.4865536 74.0110569,84.8913251 75.0489153,92.2601741 C75.9850757,98.9078628 77.1064477,105.529796 78.068201,112.174773 C78.3005574,113.783151 78.6460612,115.371872 78.8272318,116.985672 C79.3168639,121.343134 79.9667883,125.680941 80.3419259,130.051959 C80.6705923,133.882784 81.1730209,137.702088 81.3986423,141.537658 L81.9546013,150.839441 C82.0426548,152.390157 82.1253452,153.941299 82.1980829,155.493195 C82.3809372,159.391121 82.5099118,163.290402 82.6212072,167.190107 L82.9382557,178.889562 C83.0547707,182.952866 82.992809,187.021593 82.9988705,191.087609 C83.0264838,208.92345 82.9988705,226.758613 82.7651671,244.593776 C82.7577586,245.134647 82.7725756,245.67755 82.77729,246.219776 C82.7846985,246.938903 83.1227938,247.334728 83.8595992,247.336084 L90.3238207,247.344262 L90.3238207,247.344262 C91.1044034,247.347606 91.5340943,246.97347 91.6088524,246.196732 C91.7267143,244.95639 91.8465967,243.716048 91.9476212,242.475029 C92.2325103,238.96615 92.4958476,235.455916 92.7928596,231.948392 L93.8980677,219.322664 L93.8980677,219.322664 L94.7224277,208.957339 L94.7224277,208.957339 L95.8801685,195.357638 L95.8801685,195.357638 L96.91668,182.72242 L96.91668,182.72242 C97.307308,178.026745 97.7060181,173.331747 98.1080956,168.636749 L98.957375,158.926162 C99.3176957,154.771357 99.6820574,150.617229 100.029582,146.461068 L100.879535,135.936465 L100.879535,135.936465 L101.980702,123.310736 L101.980702,123.310736 L102.809776,112.94609 L102.809776,112.94609 L103.964823,99.3450324 L103.964823,99.3450324 L104.981803,86.8718049 L104.981803,86.8718049 C105.380513,82.0683619 105.785958,77.2649188 106.196791,72.4621535 L107.062908,62.5895767 C107.415147,58.5432165 107.777488,54.4968562 108.111542,50.4491404 C108.400472,46.9409393 108.634176,43.4279937 108.934555,39.9211481 C109.28208,35.8741101 109.72322,31.8345277 110.037069,27.7854563 C110.414228,22.9257573 110.774548,18.0653805 111.273609,13.2158483 C111.472964,11.2767131 111.583418,9.32673349 111.667605,7.3787872 C111.712056,6.34381365 111.479699,6.14386787 110.477536,6.05236726 Z M24.2909137,6.03278689 L23.8778387,6.04481741 L23.4344429,6.09295927 C22.7306708,6.20353163 22.6119706,6.46073136 22.8293702,7.25907158 L22.896807,7.49051384 C24.4670096,12.6036568 25.2362433,17.8537105 25.4984037,23.1661196 C25.8609125,30.5169095 25.3812924,37.8452936 24.6830931,45.1548364 L24.4676995,47.3471376 C23.8826679,53.1692343 23.3721451,58.9947199 22.9285422,64.8276611 C22.5573783,69.6995157 22.6236083,74.5767925 22.6815595,79.4540694 L22.6487895,84.9845529 C22.6398208,86.8279345 22.6456849,88.6708077 22.705016,90.5119865 C22.8547233,95.1683083 23.2424447,99.8151413 23.3176433,104.476885 C23.3514482,106.533936 23.5404797,108.588275 23.6556922,110.64397 C23.9689049,116.214612 24.2972952,121.785254 24.5884312,127.357251 L25.3424872,142.94339 L25.3424872,142.94339 C25.7184804,149.975995 26.1634631,157.005211 26.5291078,164.039172 C26.831972,169.882279 27.1072404,175.726743 27.4659862,181.567139 C27.9116588,188.813244 28.1703697,196.069515 28.5780981,203.317652 C28.7491922,206.348667 28.783687,209.385104 28.9782376,212.410696 C29.5108371,220.683632 29.9365027,228.959956 30.2704122,237.243057 C30.3897642,240.218494 30.6788305,243.187832 30.8733811,246.161235 C30.9251232,246.9522 31.2880084,247.344262 32.1131236,247.344262 C36.086233,247.335144 40.0593423,247.358188 44.0324516,247.328366 C45.061776,247.320232 45.2853022,247.077589 45.2721942,246.029069 C45.2556367,244.73045 45.0714346,243.433864 45.0569468,242.135245 C44.9941663,236.606626 44.631971,231.090206 44.4436295,225.567686 L43.9513506,211.596461 L43.9513506,211.596461 L43.7337268,204.610171 C43.5515943,198.056076 43.2928835,191.503337 43.1266186,184.950598 C42.8782561,175.145889 42.7651132,165.337791 42.4077473,155.534437 C42.2074016,150.031437 42.3090646,144.523666 42.2266966,139.016328 L42.1228204,134.885988 C41.9246823,129.558126 41.9848412,124.223323 41.8864897,118.890949 L41.7764927,114.892271 C41.6647296,111.967667 41.7164718,109.037641 41.7040537,106.110326 C41.589531,79.9793459 41.5819421,53.8490438 41.7109526,27.7180639 C41.7213011,25.5507618 41.7466739,23.3833845 41.7794567,21.215982 L42.0041583,8.21166761 C42.0352036,6.11666168 41.953106,6.0393952 39.770276,6.03736187 L24.2909137,6.03278689 L24.2909137,6.03278689 Z M242.536302,78.5776793 C241.690172,78.0890374 240.979531,78.8953996 240.307546,79.4032419 L240.125163,79.5331458 C235.371893,82.6815966 231.237633,86.5054867 227.606235,90.8718873 C219.930765,100.10199 214.397239,110.54397 209.932294,121.564897 C206.443692,130.176241 203.260497,138.904994 200.101215,147.640494 C196.685037,157.087196 193.425319,166.585855 190.283801,176.12365 C187.277564,185.251189 184.384744,194.415839 181.693479,203.641219 C178.972834,212.970512 176.470825,222.344339 174.971806,231.963106 C174.256458,236.556902 173.856082,241.167568 173.558191,245.795777 C173.540427,246.064333 173.541793,246.335589 173.558874,246.60482 C173.580055,246.936804 173.650428,247.286332 174.050121,247.338289 C174.475777,247.393619 174.589877,247.054887 174.647952,246.723578 C174.693729,246.457721 174.703294,246.186466 174.738822,245.919259 C174.984104,244.101444 175.161745,242.272157 175.491065,240.469187 C176.422315,235.368642 177.674003,230.341647 179.23588,225.39225 C181.461862,218.339612 183.911262,211.359849 186.275257,204.353095 L190.111118,192.93037 C192.031956,187.220097 193.972864,181.516772 196.004534,175.844298 C198.893938,167.778164 202.481609,160.048062 207.503391,153.022415 C210.046199,149.464864 212.820415,146.092226 215.677599,142.783398 L217.112418,141.13374 C219.864492,137.990013 222.587186,134.814572 225.700691,132.007551 C230.233277,127.921178 235.163506,124.658017 241.66586,124.819961 C242.398289,124.837954 242.766325,124.48861 242.838109,123.8596 L242.851274,123.610783 L242.860839,122.31591 L242.860839,101.426553 C242.860839,94.5716207 242.871088,87.7166888 242.846491,80.8617569 C242.843758,80.0803797 243.261215,78.996708 242.536302,78.5776793 Z M83.4496328,6.05927181 C82.1445913,6.00751944 80.835278,6.04732896 79.5281005,6.04865594 C78.6858397,6.04998293 78.319175,6.46333841 78.2600815,7.22834463 C78.0678495,9.70980453 77.7467509,12.1859565 77.6634504,14.6700704 C77.5559429,17.9012762 77.288242,21.1172217 77.0354926,24.3384751 C76.8909626,26.1763478 77.0091497,28.0314713 77.0091497,30.1639344 L77.3028688,29.433244 C77.3174043,29.3919217 77.3299635,29.3524838 77.3409278,29.3126743 C78.9506926,23.4653197 80.9349538,17.7208064 82.847306,11.9570518 L83.900811,8.82881009 C84.072053,8.30637161 84.2377839,7.78258158 84.3929934,7.2562113 C84.6699499,6.31869717 84.4876855,6.10107181 83.4496328,6.05927181 Z" id="Shape" fill="#220E58"></path>
    </g>
</svg>
