<svg xmlns="http://www.w3.org/2000/svg" width="58" height="68" viewBox="0 0 58 68">
  <g fill="none" fill-rule="evenodd">
    <path fill="#002C41" d="M56.3891567,12.6448189 L30.1950917,0.2679927 C29.4381829,-0.0893308999 28.5628951,-0.0893308999 27.8059863,0.2679927 L1.61072547,12.6448189 C0.636190502,13.1052627 0.0120098225,14.086104 0.00244383507,15.1664683 C-0.0417988568,20.4951464 0.443675005,36.7066064 7.40532236,49.2453073 C13.2943834,59.8547006 25.7134265,68 29.000539,68 C32.2864557,68 44.7054988,59.8547006 50.5957556,49.2453073 C57.5562072,36.7066064 58.0428768,20.4951464 57.9974384,15.1664683 C57.9878724,14.086104 57.3648874,13.1052627 56.3891567,12.6448189"/>
    <path fill="#FFF" d="M21.903957 53.6981237C21.2038033 53.4972449 20.6615444 53.2182465 20.2771802 52.8605706 20.1849789 52.7266513 20.1152516 52.611146 20.069151 52.5140545 20.0230503 52.4175211 20 52.2942038 20 52.1452187 20 51.7875427 20.0922013 51.4192648 20.2771802 51.038711 20.4615828 50.6592732 20.6690357 50.4695543 20.9001153 50.4695543 21.0072993 50.4695543 21.1611602 50.524796 21.361698 50.6369533 21.5610834 50.7485527 21.6924702 50.8194183 21.7541299 50.8495501 22.4462159 51.2669317 23.1619285 51.4750645 23.9001153 51.4750645 24.4850173 51.4750645 24.9805993 51.3260794 25.3885901 51.0281091 25.7960046 50.7301388 26 50.2686755 26 49.6420451 26 49.0165307 25.8190549 48.5327474 25.4577411 48.1901374 25.0964272 47.8475274 24.5386093 47.4825975 23.7848636 47.0953477 23 46.692474 22.3574721 46.2873683 21.8578563 45.8772407 21.3576642 45.4676711 20.9652324 44.9760759 20.6805609 44.4024552 20.3958894 43.8288345 20.2541299 43.1324545 20.2541299 42.3133152 20.2541299 40.9718909 20.7001537 39.918393 21.5922013 39.1511474 22.4842489 38.3839018 23.6459854 38 25.0768344 38 25.6000768 38 26.1388782 38.0708656 26.6926623 38.2125968 27.2464464 38.354328 27.6924702 38.5362349 28.0307338 38.7599916 28.2462543 38.9089768 28.3540146 39.1098556 28.3540146 39.3637442 28.3540146 39.6907303 28.2693046 40.0562182 28.0998847 40.4579759 27.9304648 40.8602916 27.7385709 41.0617284 27.5230503 41.0617284 27.430849 41.0617284 27.2539378 41.0098347 26.9923166 40.9049313 26.4074145 40.6666667 25.8305801 40.5478134 25.2618133 40.5478134 24.6158279 40.5478134 24.1265847 40.7040525 23.7963888 41.0165307 23.4650403 41.3295669 23.3002305 41.7173746 23.3002305 42.178838 23.3002305 42.6257934 23.403957 43.0024412 23.6114099 43.3076655 23.8194391 43.6128897 24.0574337 43.8478064 24.3271226 44.0112994 24.5962351 44.1759085 25.084902 44.4510009 25.7925471 44.8382507 26.8845563 45.4191253 27.6924702 46.0412918 28.2157126 46.704192 28.7383788 47.3670921 29 48.264909 29 49.3965265 29 50.2608635 28.8115636 51.043175 28.4346907 51.742903 28.0578179 52.4437469 27.4965425 52.9944898 26.7502881 53.3968055 26.0040338 53.7991212 25.1079524 54 24.0614675 54 23.3232808 54 22.6035344 53.8995606 21.903957 53.6981237M30.8107587 42.7405922C30.2704573 42.5678413 30 42.3466976 30 42.0760357 30 41.7305339 30.0901524 41.3473307 30.2704573 40.9264261 30.4501489 40.5060843 30.6549851 40.2888795 30.8843525 40.2731237 30.9499737 40.2731237 31.105134 40.2995709 31.3510601 40.3524654 31.5963729 40.4053598 31.8502716 40.4312443 32.1127563 40.4312443 32.6855616 40.4312443 33.0946206 40.239924 33.3405467 39.8561581 33.5858595 39.4729549 33.7091291 38.8460997 33.7091291 37.9744672L33.7091291 27.6763734C33.7091291 27.2256454 34.1261609 27 34.9614508 27L35.747065 27C36.582355 27 37 27.2256454 37 27.6763734L37 38.2676373C37 41.4221706 35.5342562 43 32.6033818 43 31.9483967 43 31.3510601 42.9133432 30.8107587 42.7405922"/>
    <g fill="#F9AE00" transform="translate(25 12)">
      <polygon points="0 3 3 3 3 0 0 0"/>
      <polygon points="5 3 8 3 8 0 5 0"/>
      <polygon points="0 8 3 8 3 5 0 5"/>
      <polygon points="5 8 8 8 8 5 5 5"/>
    </g>
  </g>
</svg>
