<svg xmlns="http://www.w3.org/2000/svg" width="86" height="100" viewBox="0 0 86 100">
  <path fill="#FFF" fill-rule="evenodd" d="M83.6115083,18.5953219 C85.0582814,19.2724451 85.9820177,20.7148588 85.9962017,22.3036298 C86.063576,30.1399212 85.3419624,53.9803035 75.0212928,72.4195696 C66.2874638,88.0216186 47.8730205,100 43.0007992,100 C38.1268049,100 19.7123615,88.0216186 10.9803056,72.4195696 C0.657862939,53.9803035 -0.0619776152,30.1399212 0.00362361752,22.3036298 C0.0178076678,20.7148588 0.943316952,19.2724451 2.38831708,18.5953219 L41.2295659,0.394106911 C42.3518789,-0.13136897 43.6497195,-0.13136897 44.7720325,0.394106911 L83.6115083,18.5953219 Z M45,31 L50,31 L50,26 L45,26 L45,31 Z M45,23 L50,23 L50,18 L45,18 L45,23 Z M37,23 L42,23 L42,18 L37,18 L37,23 Z M37,31 L42,31 L42,26 L37,26 L37,31 Z M49.1582267,64.5946754 C49.9300859,64.8645987 50.7834239,65 51.7191169,65 C55.9060803,65 58,62.5346416 58,57.6056833 L58,41.0568334 C58,40.3525709 57.4033643,40 56.2100929,40 L55.0877869,40 C53.8945155,40 53.2987559,40.3525709 53.2987559,41.0568334 L53.2987559,57.147605 C53.2987559,58.5095308 53.1226564,59.4889921 52.7722096,60.0877471 C52.4208866,60.6873813 51.8365166,60.9863192 51.0182232,60.9863192 C50.6432451,60.9863192 50.2805327,60.9458747 49.9300859,60.8632271 C49.5787629,60.7805796 49.3571053,60.7392558 49.2633608,60.7392558 C48.935693,60.7638742 48.6430699,61.1032567 48.3863676,61.7600408 C48.1287892,62.4177042 48,63.0164592 48,63.5563058 C48,63.979215 48.3863676,64.3247521 49.1582267,64.5946754 Z M33.9617108,81.5283183 C35.0499424,81.8430634 36.169548,82 37.3178384,82 C38.9457037,82 40.3396081,81.6861268 41.5004482,81.0575085 C42.6612883,80.4288903 43.5343834,79.5683546 44.12063,78.4732859 C44.7068767,77.3799609 45,76.1575992 45,74.8070726 C45,73.0389203 44.5930337,71.6360815 43.7799974,70.6002999 C42.9660648,69.5645184 41.7093098,68.5923833 40.0106288,67.6847667 C38.9098476,67.0796889 38.1496991,66.649857 37.7310795,66.3926554 C37.3115636,66.1371975 36.9413497,65.7701402 36.6177488,65.2932273 C36.2950442,64.8163144 36.1336919,64.2278022 36.1336919,63.5294343 C36.1336919,62.8083979 36.3900627,62.2024482 36.9054937,61.7133291 C37.4191318,61.225082 38.1801767,60.9809584 39.1850429,60.9809584 C40.0697913,60.9809584 40.9670893,61.1666667 41.8769369,61.5389552 C42.2839032,61.7028667 42.5590985,61.7839506 42.7025227,61.7839506 C43.0377769,61.7839506 43.3362787,61.4692056 43.5998207,60.8405873 C43.8633628,60.2128409 43.9951338,59.6417661 43.9951338,59.1308502 C43.9951338,58.7341494 43.8275067,58.4202762 43.4922525,58.1874869 C42.9660648,57.8378671 42.27225,57.5536374 41.410808,57.3321825 C40.5493661,57.1107275 39.7112306,57 38.897298,57 C36.6715328,57 34.8643872,57.5998466 33.4767576,58.7986678 C32.0891279,59.997489 31.3953131,61.6435795 31.3953131,63.739555 C31.3953131,65.0194601 31.6158279,66.1075539 32.0586503,67.0038362 C32.5014727,67.9001186 33.1119221,68.668236 33.8899987,69.3081886 C34.6671789,69.949013 35.6666667,70.5819907 36.8875656,71.2114808 C38.0600589,71.8165586 38.9277756,72.3867615 39.4898194,72.9220897 C40.0518632,73.4574179 40.3333333,74.2133291 40.3333333,75.1906954 C40.3333333,76.1698054 40.0160072,76.8908419 39.3822512,77.3564205 C38.7475989,77.821999 37.9766936,78.0547883 37.0668459,78.0547883 C35.9185555,78.0547883 34.8052247,77.7295808 33.7286464,77.0774221 C33.6327315,77.0303411 33.4283519,76.9196136 33.118197,76.7452396 C32.8062492,76.5699937 32.56691,76.4836786 32.4001793,76.4836786 C32.0407222,76.4836786 31.7180177,76.7801144 31.4311692,77.372986 C31.1434243,77.9676013 31,78.5430355 31,79.1019042 C31,79.3346935 31.0358561,79.5273767 31.1075682,79.6782102 C31.1792803,79.8299156 31.2877449,80.0103927 31.4311692,80.2196415 C32.029069,80.7785101 32.8725829,81.2144451 33.9617108,81.5283183 Z"/>
</svg>
