<svg xmlns="http://www.w3.org/2000/svg" width="86" height="100" viewBox="0 0 86 100">
  <g fill="none" fill-rule="evenodd">
    <path fill="#002C41" d="M83.6115083,18.5953219 L44.7720325,0.394106911 C43.6497195,-0.13136897 42.3518789,-0.13136897 41.2295659,0.394106911 L2.38831708,18.5953219 C0.943316952,19.2724451 0.0178076678,20.7148588 0.00362361752,22.3036298 C-0.0619776152,30.1399212 0.657862939,53.9803035 10.9803056,72.4195696 C19.7123615,88.0216186 38.1268049,100 43.0007992,100 C47.8730205,100 66.2874638,88.0216186 75.0212928,72.4195696 C85.3419624,53.9803035 86.063576,30.1399212 85.9962017,22.3036298 C85.9820177,20.7148588 85.0582814,19.2724451 83.6115083,18.5953219"/>
    <path fill="#FFF" d="M33.9617108 81.5283183C32.8725829 81.2144451 32.029069 80.7785101 31.4311692 80.2196415 31.2877449 80.0103927 31.1792803 79.8299156 31.1075682 79.6782102 31.0358561 79.5273767 31 79.3346935 31 79.1019042 31 78.5430355 31.1434243 77.9676013 31.4311692 77.372986 31.7180177 76.7801144 32.0407222 76.4836786 32.4001793 76.4836786 32.56691 76.4836786 32.8062492 76.5699937 33.118197 76.7452396 33.4283519 76.9196136 33.6327315 77.0303411 33.7286464 77.0774221 34.8052247 77.7295808 35.9185555 78.0547883 37.0668459 78.0547883 37.9766936 78.0547883 38.7475989 77.821999 39.3822512 77.3564205 40.0160072 76.8908419 40.3333333 76.1698054 40.3333333 75.1906954 40.3333333 74.2133291 40.0518632 73.4574179 39.4898194 72.9220897 38.9277756 72.3867615 38.0600589 71.8165586 36.8875656 71.2114808 35.6666667 70.5819907 34.6671789 69.949013 33.8899987 69.3081886 33.1119221 68.668236 32.5014727 67.9001186 32.0586503 67.0038362 31.6158279 66.1075539 31.3953131 65.0194601 31.3953131 63.739555 31.3953131 61.6435795 32.0891279 59.997489 33.4767576 58.7986678 34.8643872 57.5998466 36.6715328 57 38.897298 57 39.7112306 57 40.5493661 57.1107275 41.410808 57.3321825 42.27225 57.5536374 42.9660648 57.8378671 43.4922525 58.1874869 43.8275067 58.4202762 43.9951338 58.7341494 43.9951338 59.1308502 43.9951338 59.6417661 43.8633628 60.2128409 43.5998207 60.8405873 43.3362787 61.4692056 43.0377769 61.7839506 42.7025227 61.7839506 42.5590985 61.7839506 42.2839032 61.7028667 41.8769369 61.5389552 40.9670893 61.1666667 40.0697913 60.9809584 39.1850429 60.9809584 38.1801767 60.9809584 37.4191318 61.225082 36.9054937 61.7133291 36.3900627 62.2024482 36.1336919 62.8083979 36.1336919 63.5294343 36.1336919 64.2278022 36.2950442 64.8163144 36.6177488 65.2932273 36.9413497 65.7701402 37.3115636 66.1371975 37.7310795 66.3926554 38.1496991 66.649857 38.9098476 67.0796889 40.0106288 67.6847667 41.7093098 68.5923833 42.9660648 69.5645184 43.7799974 70.6002999 44.5930337 71.6360815 45 73.0389203 45 74.8070726 45 76.1575992 44.7068767 77.3799609 44.12063 78.4732859 43.5343834 79.5683546 42.6612883 80.4288903 41.5004482 81.0575085 40.3396081 81.6861268 38.9457037 82 37.3178384 82 36.169548 82 35.0499424 81.8430634 33.9617108 81.5283183M49.1582267 64.5946754C48.3863676 64.3247521 48 63.979215 48 63.5563058 48 63.0164592 48.1287892 62.4177042 48.3863676 61.7600408 48.6430699 61.1032567 48.935693 60.7638742 49.2633608 60.7392558 49.3571053 60.7392558 49.5787629 60.7805796 49.9300859 60.8632271 50.2805327 60.9458747 50.6432451 60.9863192 51.0182232 60.9863192 51.8365166 60.9863192 52.4208866 60.6873813 52.7722096 60.0877471 53.1226564 59.4889921 53.2987559 58.5095308 53.2987559 57.147605L53.2987559 41.0568334C53.2987559 40.3525709 53.8945155 40 55.0877869 40L56.2100929 40C57.4033643 40 58 40.3525709 58 41.0568334L58 57.6056833C58 62.5346416 55.9060803 65 51.7191169 65 50.7834239 65 49.9300859 64.8645987 49.1582267 64.5946754"/>
    <polygon fill="#F9AE00" points="37 23 42 23 42 18 37 18"/>
    <polygon fill="#F9AE00" points="45 23 50 23 50 18 45 18"/>
    <polygon fill="#F9AE00" points="37 31 42 31 42 26 37 26"/>
    <polygon fill="#F9AE00" points="45 31 50 31 50 26 45 26"/>
  </g>
</svg>
