<svg xmlns="http://www.w3.org/2000/svg" width="26" height="31" viewBox="0 0 26 31">
  <g fill="none" fill-rule="evenodd">
    <path fill="#002C41" d="M25.2778978,5.76454977 L13.5357307,0.122173143 C13.1964268,-0.0407243808 12.8040564,-0.0407243808 12.4647525,0.122173143 L0.722049349,5.76454977 C0.285188846,5.97445799 0.00538371353,6.42160623 0.00109551227,6.91412525 C-0.0187374186,9.34337557 0.198888795,16.7338941 3.31962726,22.4500666 C5.95955116,27.2867018 11.5267085,31 13.0002416,31 C14.4732387,31 20.040396,27.2867018 22.680856,22.4500666 C25.8010584,16.7338941 26.0192206,9.34337557 25.9988517,6.91412525 C25.9945635,6.42160623 25.7152944,5.97445799 25.2778978,5.76454977"/>
    <g fill="#F9AE00" transform="translate(9 7.5)">
      <polygon points="0 3 3 3 3 0 0 0"/>
      <polygon points="5 3 8 3 8 0 5 0"/>
      <polygon points="0 8 3 8 3 5 0 5"/>
      <polygon points="5 8 8 8 8 5 5 5"/>
    </g>
  </g>
</svg>
