<?xml version="1.0" encoding="UTF-8"?>
<svg viewBox="0 0 400 371" version="1.1" xmlns="http://www.w3.org/2000/svg" xmlns:xlink="http://www.w3.org/1999/xlink">
    <g id="sj-logo-vert" stroke="none" stroke-width="1" fill="none" fill-rule="evenodd">
        <path d="M30.989145,330.371298 C32.5568057,330.371298 33.6392381,331.469692 33.7172679,333.084737 L33.7217844,333.273349 L33.7217844,355.068337 C33.7217844,364.248292 29.0704833,371 19.1283271,371 C12.0932342,371 5.98840149,366.439636 5.05814126,359.865604 C5,359.451025 5,358.917995 5,358.562642 C5,356.963554 6.10468401,356.015945 7.67449814,356.015945 C9.46346011,356.015945 9.96230527,356.892062 10.3081558,358.223086 L10.3489963,358.384966 C11.4536803,362.826879 13.4304833,365.965831 19.2446097,365.965831 C25.5353038,365.965831 28.0572065,361.897559 28.1382013,355.620904 L28.140223,355.305239 L28.140223,333.273349 C28.140223,331.67426 29.2449071,330.371298 30.989145,330.371298 Z M90.1021986,330.371298 C91.7841423,330.371298 92.8713988,331.582853 92.9469146,333.103197 L92.9511206,333.273349 L92.9511206,354.535308 C92.9511206,364.66287 86.8462878,371 76.6134254,371 C66.5009495,371 60.4199447,364.811102 60.2782619,354.891173 L60.2757302,354.535308 L60.2757302,333.273349 C60.2757302,331.67426 61.3804142,330.371298 63.1246522,330.371298 C64.6923129,330.371298 65.7747453,331.469692 65.8527751,333.084737 L65.8572916,333.273349 L65.8572916,355.127563 C65.8572916,361.464692 69.5201912,365.84738 76.6134254,365.84738 C83.5922526,365.84738 87.2505088,361.604929 87.3667015,355.432662 L87.3695592,355.127563 L87.3695592,333.273349 C87.3695592,331.555809 88.4742432,330.371298 90.1021986,330.371298 Z M318.746872,330.134396 C325.142411,330.134396 330.491407,332.917995 333.398471,336.649203 C333.863601,337.241458 334.154307,337.892938 334.154307,338.66287 C334.154307,340.143508 333.165905,341.150342 331.654233,341.150342 C330.549549,341.150342 329.793712,340.498861 329.2123,339.788155 C326.712225,336.94533 323.340032,335.287016 319.09572,335.287016 C309.676835,335.287016 304.734827,342.216401 304.734827,350.567198 C304.734827,358.917995 309.676835,365.84738 319.09572,365.84738 C323.340032,365.84738 326.712225,364.189066 329.2123,361.346241 C329.793712,360.635535 330.549549,359.984055 331.654233,359.984055 C333.165905,359.984055 334.154307,360.990888 334.154307,362.471526 C334.154307,363.241458 333.863601,363.892938 333.398471,364.485194 C330.491407,368.216401 325.142411,371 318.746872,371 C306.595348,371 299.095125,361.642369 299.095125,350.567198 C299.095125,339.492027 306.595348,330.134396 318.746872,330.134396 Z M376.348253,330.134396 C388.150929,330.134396 396,339.432802 396,350.567198 C396,361.701595 388.150929,371 376.348253,371 C364.545576,371 356.696506,361.701595 356.696506,350.567198 C356.696506,339.432802 364.545576,330.134396 376.348253,330.134396 Z M138.284695,330.845103 C147.122167,330.845103 151.482762,335.642369 151.482762,342.453303 C151.482762,347.616801 148.86052,351.473144 143.834653,353.020219 L143.517408,353.113895 L150.02923,366.676538 C150.203654,367.091116 150.319936,367.505695 150.319936,367.920273 C150.319936,369.341686 149.331535,370.763098 147.587297,370.763098 C146.324339,370.763098 145.631848,370.234821 145.166967,369.327946 L137.703282,353.765376 L125.377334,353.765376 L125.377334,367.861048 C125.377334,369.460137 124.27265,370.763098 122.644695,370.763098 C121.018816,370.763098 119.879499,369.551543 119.800193,368.0312 L119.795773,367.861048 L119.795773,333.747153 C119.795773,332.090953 120.82296,330.93039 122.46028,330.849605 L122.644695,330.845103 L138.284695,330.845103 Z M180.304217,330.371298 C181.871877,330.371298 182.95431,331.469692 183.03234,333.084737 L183.036856,333.273349 L183.036856,367.861048 C183.036856,369.460137 181.932172,370.763098 180.304217,370.763098 C178.678338,370.763098 177.539021,369.551543 177.459715,368.0312 L177.455295,367.861048 L177.455295,333.273349 C177.455295,331.67426 178.559979,330.371298 180.304217,330.371298 Z M271.320212,330.371298 C272.887873,330.371298 273.970306,331.469692 274.048335,333.084737 L274.052852,333.273349 L274.052852,367.861048 C274.052852,369.460137 272.948168,370.763098 271.320212,370.763098 C269.694334,370.763098 268.555017,369.551543 268.475711,368.0312 L268.47129,367.861048 L268.47129,333.273349 C268.47129,331.67426 269.575975,330.371298 271.320212,330.371298 Z M224.009835,330.845103 C235.986936,330.845103 243.429018,339.255125 243.429018,350.567198 C243.429018,361.760197 236.142787,370.111919 224.386549,370.286505 L224.009835,370.289294 L213.253702,370.289294 C211.739952,370.289294 210.496515,369.077739 210.409629,367.557396 L210.40478,367.387244 L210.40478,333.747153 C210.40478,332.205174 211.594154,330.938549 213.086665,330.850042 L213.253702,330.845103 L224.009835,330.845103 Z M376.348253,335.287016 C367.336357,335.287016 362.278067,342.453303 362.278067,350.567198 C362.278067,358.681093 367.336357,365.84738 376.348253,365.84738 C385.360149,365.84738 390.418439,358.681093 390.418439,350.567198 C390.418439,342.453303 385.360149,335.287016 376.348253,335.287016 Z M223.835412,336.056948 L215.986341,336.056948 L215.986341,365.077449 L223.835412,365.077449 C232.731025,365.077449 237.847456,359.036446 237.847456,350.567198 C237.847456,342.210873 232.866554,336.218473 224.189217,336.060161 L223.835412,336.056948 Z M139.389379,336.056948 L125.377334,336.056948 L125.377334,348.790433 L139.389379,348.790433 C143.691832,348.790433 145.9012,345.947608 145.9012,342.453303 C145.9012,339.034961 143.786848,336.183404 139.667005,336.061038 L139.389379,336.056948 Z M183.094997,319 C184.199681,319 185.246224,319.947608 185.246224,321.369021 C185.246224,321.90205 184.963658,322.387107 184.652834,322.781016 L184.548529,322.908884 L181.81589,326.166287 C181.292618,326.758542 180.769347,327.173121 179.722804,327.173121 C178.501837,327.173121 177.571577,326.107062 177.571577,324.922551 C177.571577,324.389522 177.901238,323.904465 178.22148,323.510556 L181.176336,319.947608 C181.699607,319.355353 182.222878,319 183.094997,319 Z M15.3510685,263 C18.3747638,263 21.3403111,263.57971 24.1314144,264.623188 C26.108446,265.376812 28.8414014,266.768116 28.8414014,268.565217 C28.8414014,269.898551 28.0854775,271.057971 26.4573339,271.057971 C26.050298,271.057971 25.6432621,270.942029 25.3525222,270.768116 C22.5032708,269.144928 19.2469836,267.927536 15.4092165,267.927536 C9.71071377,267.927536 6.04739061,269.550725 6.04739061,273.318841 C6.04739061,276.541806 8.57736564,277.808721 14.4644229,279.690367 L15.5836604,280.043478 C24.8873383,282.942029 30.0625091,285.434783 30.0625091,292.043478 C30.0625091,298.246377 24.9454863,303 15.2347725,303 C10.1177497,303 4.88443088,301.318841 1.51184765,298.710145 C0.639627853,298.014493 0,297.086957 0,296.101449 C0,294.652174 1.04666376,293.84058 2.38406745,293.84058 C3.08184329,293.84058 3.66332316,294.130435 4.361099,294.536232 L4.99822864,294.935519 C7.96265607,296.766957 10.8426612,298.130435 15.2929205,298.130435 C21.4566071,298.130435 24.4803024,295.637681 24.4803024,292.333333 C24.4803024,288.736983 21.5390033,287.42687 15.5640857,285.595819 L14.0718128,285.144928 C3.72147114,282.072464 0.465183893,278.884058 0.465183893,273.434783 C0.465183893,266.478261 6.62887048,263 15.3510685,263 Z M84.5305588,263.231884 C86.2103896,263.231884 87.2970949,264.414525 87.3752873,265.899794 L87.3798102,266.072464 L87.3798102,286.884058 C87.3798102,296.797101 81.2742716,303 71.0402259,303 C60.9265808,303 54.8448729,296.942193 54.7031737,287.232385 L54.7006417,286.884058 L54.7006417,266.072464 C54.7006417,264.507246 55.8054535,263.231884 57.549893,263.231884 C59.1177351,263.231884 60.2002926,264.307012 60.2783314,265.887848 L60.2828484,266.072464 L60.2828484,287.463768 C60.2828484,293.666667 63.9461716,297.956522 71.0402259,297.956522 C78.0179843,297.956522 81.6765725,293.806165 81.794651,287.767276 L81.7976035,287.463768 L81.7976035,266.072464 C81.7976035,264.391304 82.9024152,263.231884 84.5305588,263.231884 Z M381.857828,263.231884 C383.007106,263.231884 383.795826,263.694047 384.272467,264.666705 L399.70926,299 C399.883704,299.405797 400,299.753623 400,300.15942 C400,301.492754 399.12778,302.768116 397.383341,302.768116 C396.120237,302.768116 395.375799,302.147611 394.954087,301.29729 L390.987062,292.681159 L372.728594,292.681159 L368.832679,301.144928 C368.425643,302.072464 367.669719,302.768116 366.332316,302.768116 C364.587876,302.768116 363.715656,301.492754 363.715656,300.15942 C363.715656,299.821256 363.796417,299.523349 363.924289,299.198604 L364.006396,299 L379.357465,264.855072 C379.822649,263.753623 380.63672,263.231884 381.857828,263.231884 Z M336.344568,263.231884 C337.91241,263.231884 338.994968,264.307012 339.073007,265.887848 L339.077524,266.072464 L339.077524,299.927536 C339.077524,301.492754 337.972712,302.768116 336.344568,302.768116 C334.720732,302.768116 333.58218,301.585475 333.50007,300.100206 L333.495317,299.927536 L333.495317,266.072464 C333.495317,264.507246 334.600129,263.231884 336.344568,263.231884 Z M239.038066,263.695652 C247.87656,263.695652 252.237659,268.391304 252.237659,275.057971 C252.237659,280.112097 249.615115,283.886756 244.588666,285.401062 L244.271385,285.492754 L250.783959,298.768116 C250.958403,299.173913 251.074699,299.57971 251.074699,299.985507 C251.074699,301.376812 250.086184,302.768116 248.341744,302.768116 C247.078641,302.768116 246.386069,302.251029 245.921135,301.363363 L238.456586,286.130435 L226.129213,286.130435 L226.129213,299.927536 C226.129213,301.492754 225.024401,302.768116 223.396258,302.768116 C221.772421,302.768116 220.633869,301.585475 220.55176,300.100206 L220.547006,299.927536 L220.547006,266.536232 C220.547006,264.917338 221.571496,263.782251 223.205087,263.700391 L223.396258,263.695652 L239.038066,263.695652 Z M131.846406,263.695652 C140.6849,263.695652 145.045999,268.507246 145.045999,275.173913 C145.045999,281.741077 140.814111,286.339371 132.239168,286.47517 L131.846406,286.478261 L119.809773,286.478261 L119.809773,299.927536 C119.809773,301.492754 118.704961,302.768116 117.076818,302.768116 C115.452981,302.768116 114.314429,301.585475 114.23232,300.100206 L114.227566,299.927536 L114.227566,266.536232 C114.227566,264.917338 115.252056,263.782251 116.885647,263.700391 L117.076818,263.695652 L131.846406,263.695652 Z M294.26204,263.695652 C301.530538,263.695652 306.124229,267.521739 306.124229,273.26087 C306.124229,277.028986 303.856458,280.043478 300.134986,281.608696 C304.844973,282.478261 308.450148,285.492754 308.450148,291.405797 C308.450148,296.945057 304.10541,302.146797 295.304766,302.300839 L294.901668,302.304348 L280.713559,302.304348 C279.201711,302.304348 278.013387,301.121707 277.927436,299.636438 L277.922456,299.463768 L277.922456,266.478261 C277.922456,264.971014 279.054786,263.786306 280.540595,263.700618 L280.713559,263.695652 L294.26204,263.695652 Z M193.059622,263.695652 C194.513322,263.695652 195.73443,264.797101 195.73443,266.246377 C195.73443,267.639911 194.605447,268.71186 193.226269,268.792256 L193.059622,268.797101 L174.335971,268.797101 L174.335971,279.985507 L184.918904,279.985507 C186.314456,279.985507 187.477416,281.086957 187.477416,282.536232 C187.477416,283.983188 186.405632,285.002736 185.085195,285.081985 L184.918904,285.086957 L174.335971,285.086957 L174.335971,297.202899 L193.931842,297.202899 C195.385542,297.202899 196.60665,298.188406 196.60665,299.753623 C196.60665,301.147157 195.477667,302.219106 194.098488,302.299503 L193.931842,302.304348 L171.603015,302.304348 C169.979179,302.304348 168.840627,301.175464 168.758517,299.694177 L168.753764,299.521739 L168.753764,266.478261 C168.753764,264.971014 169.940015,263.786306 171.429818,263.700618 L171.603015,263.695652 L193.059622,263.695652 Z M295.308704,284.449275 L283.504662,284.449275 L283.504662,297.318841 L295.366851,297.318841 C300.134986,297.318841 302.867942,294.652174 302.867942,290.826087 C302.867942,286.90942 300.136173,284.549014 295.600646,284.452363 L295.308704,284.449275 Z M381.857,271.348 L374.763774,287.753623 L388.951883,287.753623 L381.857,271.348 Z M132.951218,268.797101 L119.809773,268.797101 L119.809773,281.376812 L132.951218,281.376812 C137.254169,281.376812 139.463792,278.594203 139.463792,275.173913 C139.463792,271.827977 137.349195,268.925865 133.228876,268.801268 L132.951218,268.797101 Z M240.142878,268.797101 L226.129213,268.797101 L226.129213,281.26087 L240.142878,281.26087 C244.445829,281.26087 246.655452,278.478261 246.655452,275.057971 C246.655452,271.712035 244.540855,268.920879 240.420536,268.801106 L240.142878,268.797101 Z M294.436484,268.681159 L283.504662,268.681159 L283.504662,279.463768 L294.55278,279.463768 C298.506843,279.463768 300.483874,276.797101 300.483874,273.956522 C300.483874,270.502528 298.153929,268.763021 294.686105,268.683982 L294.436484,268.681159 Z M272.270504,0.00312968219 L273.998373,0.000602674945 L273.998373,0.000602674945 L274.897096,0.0115591317 C276.961227,0.0617798791 276.985766,0.374318419 276.990024,3.12052873 C277.004433,12.4010615 276.991224,21.6821915 276.991825,30.9627243 L277,121.019127 L277,121.019127 C277,148.288605 277,175.557486 276.995427,202.826367 C276.994827,203.971802 276.985821,205.118432 276.946196,206.262673 C276.911975,207.222975 276.443686,207.634448 275.387632,207.664905 C274.8501,207.680432 274.3123,207.683485 273.77459,207.683617 L272.968136,207.682821 C253.956775,207.672669 234.944813,207.661919 215.933453,207.646989 C215.359497,207.646392 214.784942,207.608171 214.211587,207.572338 C213.77932,207.544867 213.303225,207.114284 213.260599,206.728491 C213.012045,204.445981 213.184952,202.169444 213.201763,200.080428 C214.048887,199.053837 215.099537,198.809581 215.989887,198.310319 C219.444425,196.371798 222.416863,193.918489 224.812946,190.735995 C227.58486,187.05185 229.081586,182.896513 229.630326,178.399575 C230.160454,174.053132 230.015764,169.709676 229.028153,165.417579 C227.852626,160.313286 225.296845,156.109574 220.987979,152.99755 C217.524437,150.496465 213.81234,148.437906 209.950751,146.628381 C209.749027,146.533426 209.507077,146.524468 209.284339,146.469526 C209.033384,146.408014 208.524269,146.725128 208.515263,146.971773 C208.466033,148.342951 208.398791,149.714726 208.387384,151.085904 C208.372175,152.842477 208.361502,154.59958 208.363369,156.356684 L208.376578,158.992273 C208.425208,164.158078 208.077593,169.306564 207.336134,174.409065 C206.383345,180.963367 204.070714,186.996908 200.030815,192.363373 C196.946107,196.460184 193.306055,199.873199 188.881918,202.482976 C183.948066,205.393145 178.631777,207.150713 172.937254,207.723431 C169.95701,208.023227 166.963559,208.106835 163.964103,207.836302 C162.972289,207.74712 161.973005,207.726948 160.973542,207.723232 L121.797618,207.719848 C120.532635,207.71925 119.267653,207.660724 118.003271,207.612948 C117.579408,207.596227 117.125528,207.139964 117.088905,206.741629 L117.020329,206.059624 C117.011257,205.945956 117.005053,205.832288 117.004253,205.718621 C116.996448,204.572588 117.009056,203.427153 117.009056,202.281121 L117.00778,102.943065 L117.00778,102.943065 L117.001703,2.11422197 C117.030419,0.159020943 117.30694,0.0144977462 119.536858,0.00697611698 L272.270504,0.00312968219 L272.270504,0.00312968219 Z M134.260127,9.33442473 C133.415205,9.33482286 132.570015,9.34530709 131.72527,9.36463877 L130.078844,9.41292501 C127.970216,9.4868056 127.695067,9.58404464 127.686933,11.6958457 L127.687862,12.0779748 C127.700469,13.9113876 127.683659,15.7448005 127.683659,17.5782133 L127.678256,142.701773 L127.678256,142.701773 L127.668621,194.264269 L127.668621,194.264269 C127.668621,195.178587 127.712477,196.093502 127.756304,197.006625 C127.776116,197.420487 128.240804,197.85107 128.676673,197.876152 C129.365299,197.915568 130.055126,197.956775 130.744953,197.958566 C134.201291,197.968122 137.65823,197.969913 141.115168,197.962747 C141.801993,197.961552 142.488218,197.907804 143.277706,197.873764 C143.277706,197.477818 143.385773,197.10815 143.259094,196.854338 C142.746978,195.830135 142.101578,194.871028 141.616478,193.835478 C139.393903,189.092492 139.124337,184.099279 139.968459,179.034402 C140.349094,176.751295 141.430363,174.702292 143.00874,172.953085 C143.952523,171.906785 145.077019,171.06234 146.423052,170.699241 C148.687052,170.0889 151.041109,170.028582 153.233065,170.862874 C156.433645,172.080571 158.537346,174.408468 159.36766,177.783859 C159.979438,180.272403 159.937412,182.734073 159.488935,185.271588 C158.905374,188.574718 157.445871,191.311101 155.029376,193.595999 C154.620523,193.98239 154.071183,194.255909 153.906681,194.861472 C153.975124,195.068702 153.993135,195.314749 154.120413,195.475397 C156.21571,198.119214 158.975017,199.619985 162.295671,200.16344 C165.620528,200.707491 168.936379,200.779753 172.263037,200.155676 C177.293549,199.212693 181.213374,196.638151 183.897034,192.301861 C185.23226,190.145361 186.203061,187.795965 186.748798,185.325337 C187.589919,181.522349 188.279145,177.688903 188.252729,173.767072 C188.235918,171.246279 188.28695,168.725485 188.27074,166.204692 C188.216106,157.7268 188.148264,149.248908 188.075019,140.770418 C188.068415,139.972555 188.037195,139.166929 187.918922,138.379815 C187.874495,138.086589 187.601926,137.743794 187.335961,137.586133 C186.846659,137.297086 186.287113,137.1233 185.753983,136.910099 C179.872745,134.557717 174.07916,132.028563 168.661409,128.71767 C166.204089,127.215705 163.833822,125.599674 161.609446,123.769247 C156.461262,119.532689 153.198243,114.102324 151.442757,107.758835 C149.735301,101.59152 149.713687,95.3011825 150.425127,89.0000949 C150.65627,86.9582582 151.032703,84.9128384 151.569435,82.9295276 C153.751185,74.8672887 157.937575,68.0484262 164.318322,62.5350491 C169.664029,57.9156848 175.822639,55.0102928 182.624847,53.312445 C183.229421,53.1613527 183.855008,53.5644646 183.868817,54.1407654 C183.895233,55.2093604 183.913911,56.2782209 183.923962,57.3469929 L183.937882,59.5720532 C183.97628,62.0645995 184.132337,62.026019 181.446918,63.5837374 C180.85075,63.9295179 180.257583,64.29202 179.710044,64.7076732 C177.038991,66.732191 174.645311,69.0117144 172.818981,71.8579833 C169.341029,77.2764051 168.220736,83.2794885 168.348015,89.5746041 C168.379835,91.1643581 168.674017,92.7672507 169.007823,94.3301306 C169.833934,98.1970193 171.424918,101.729474 174.035934,104.748335 C177.554711,108.817078 181.93382,111.729637 186.783019,113.990647 C186.849861,114.021701 186.928709,114.025417 187.005868,114.03453 L187.118627,114.056339 C187.399,114.145919 187.891905,113.871206 187.905114,113.588132 L188.011079,111.530469 C188.0441,110.844582 188.069315,110.158694 188.070216,109.472807 C188.078621,103.972568 188.041998,98.472927 188.0456,92.9732857 C188.052004,84.4177572 188.073084,75.8624941 188.082156,67.3071425 L188.082557,52.4658796 C188.078806,48.7837849 188.037657,45.1000785 187.538287,41.4364685 C187.290934,39.6173885 186.983543,37.8239883 186.281109,36.1064328 C185.445392,34.0628045 184.032718,32.6904323 181.895396,32.0502308 C180.127902,31.5205118 178.36221,31.0051257 176.502259,30.9101705 C173.281267,30.7453425 170.060875,30.5733481 166.841083,30.3959788 C165.348559,30.3135648 164.99374,29.9791312 164.979931,28.5380806 C164.966723,27.1651112 165.00935,25.7915446 165.050775,24.4185751 C165.067586,23.8536212 165.606119,23.3818309 166.207091,23.3961638 C168.625987,23.4528981 171.048486,23.4528981 173.461378,23.6045876 C181.979448,24.1402786 190.506523,24.094294 199.032397,24.0626422 C203.986062,24.0441289 208.939126,23.900203 213.891589,23.7682212 C217.000913,23.6858072 220.107835,23.5102296 223.216558,23.3991498 C224.715685,23.3454016 225.077109,23.6637107 225.113131,25.1262606 C225.146152,26.49923 225.11073,27.873991 225.074107,29.2469605 C225.055496,29.9206053 224.662252,30.3517858 224.056478,30.4043396 C222.564555,30.5321411 221.072632,30.6718865 219.577707,30.7453425 C217.833028,30.8313397 216.166997,31.2565482 214.509972,31.7581986 C211.981208,32.5250071 210.375214,34.2067304 209.697395,36.7078161 C209.309555,38.1399086 209.035185,39.6144025 208.850871,41.0865076 C208.480442,44.0438563 208.370574,47.019121 208.372375,50.0021494 C208.387384,73.0332786 208.38018,96.065005 208.383782,119.096134 C208.383782,120.122129 208.424607,121.147526 208.44442,122.06901 C209.304752,123.125462 210.478478,123.354788 211.536933,123.762678 L215.295436,125.203949 C217.79854,126.170268 220.289547,127.166137 222.726655,128.303211 C229.598506,131.508996 235.528374,135.965324 240.755208,141.398079 C245.191953,146.010276 247.852198,151.540972 249.012716,157.747702 C249.921678,162.608933 250.02134,167.526899 249.297292,172.456809 C248.020302,181.149097 244.285992,188.58069 237.991098,194.740837 L236.66828,196.016109 C236.449277,196.230129 236.23261,196.446449 236.020679,196.667414 C235.890398,196.802979 235.808147,197.132038 235.884995,197.277755 C235.969047,197.438403 236.259026,197.565607 236.466155,197.575162 C237.845208,197.643841 239.226062,197.715505 240.606316,197.716102 C247.635464,197.719088 254.664012,197.701769 261.693161,197.688631 C262.499459,197.686839 263.306359,197.677881 264.112057,197.644438 C265.13509,197.602634 265.632197,197.145176 265.664017,196.220706 C265.691034,195.41926 265.694185,194.616619 265.694185,193.814576 L265.691634,13.3452393 L265.691634,13.3452393 C265.691634,12.4297273 265.666419,11.5130208 265.629796,10.598106 C265.606381,9.99313951 265.138092,9.46222615 264.579146,9.43953244 C263.198892,9.38518697 261.817437,9.33102603 260.436583,9.33102603 C218.377565,9.33102603 176.318546,9.33102603 134.260127,9.33442473 Z M245.429992,53.2096365 C247.496447,53.2144075 249.563537,53.2466968 251.630626,53.2795526 C252.078422,53.2869169 252.595987,53.7106436 252.617552,54.090185 L252.707143,55.7137863 C252.733148,56.2551284 252.7517,56.7965413 252.752018,57.3378126 C252.759629,66.2474039 252.750115,75.1569951 252.748846,84.0665864 L252.757726,94.1708832 L252.757726,94.1708832 C252.757726,94.6053731 252.744406,95.0404294 252.718401,95.4743528 C252.674637,96.2005797 252.127261,96.7177756 251.359793,96.7262727 C249.777921,96.7432671 248.196048,96.7410012 246.614176,96.7415677 C245.27523,96.7427007 243.936284,96.7534638 242.598606,96.7251398 C242.121634,96.7149432 241.6472,96.6033467 241.213992,96.5438663 C240.455404,95.5355326 240.438913,94.4257991 240.273368,93.3619503 C239.667005,89.4787326 238.69657,85.6708567 237.227599,81.9768432 C235.715496,78.1751985 233.755599,74.5854172 230.997788,71.3428879 C227.92411,67.7281815 224.211722,64.8346037 219.660193,62.8219017 C217.919118,62.0514894 216.1254,61.3762457 214.076704,60.5446536 C213.907988,58.2039599 213.975221,56.0558692 214.036745,54.0392018 C214.861298,53.6245387 215.453707,53.7587944 216.035968,53.8936165 C222.322228,55.3466367 228.221584,57.6176535 233.765747,60.6239608 C235.220131,61.4130669 236.625041,62.2746824 238.055322,63.0994767 C238.866555,63.5673888 239.329573,63.3759187 239.517317,62.438395 L239.978103,60.0852387 L239.978103,60.0852387 L240.87656,55.3755272 C240.959015,54.9484016 241.034494,54.520143 241.130269,54.0952833 C241.221604,53.6896839 241.683987,53.3135414 242.150811,53.2954141 C243.243026,53.2529281 244.336509,53.2070432 245.429992,53.2096365 Z" id="Shape" fill="#D6AE72"></path>
    </g>
</svg>
