<svg xmlns="http://www.w3.org/2000/svg" width="30" height="35" viewBox="0 0 30 35">
  <g fill="none" fill-rule="evenodd">
    <path fill="#002C41" d="M29.1668052,6.50836265 L15.6181509,0.137937419 C15.2266463,-0.0459791397 14.7739112,-0.0459791397 14.3824067,0.137937419 L0.833133865,6.50836265 C0.329064053,6.7453558 0.00621197715,7.25020058 0.00126405262,7.80627044 C-0.0216200983,10.5489724 0.229487072,18.8931062 3.83033915,25.3468493 C6.87640519,30.8075665 13.3000482,35 15.0002788,35 C16.6998909,35 23.1235339,30.8075665 26.1702184,25.3468493 C29.770452,18.8931062 30.0221777,10.5489724 29.998675,7.80627044 C29.9937271,7.25020058 29.6714935,6.7453558 29.1668052,6.50836265"/>
    <polygon fill="#F9AE00" points="10 11 14 11 14 7 10 7"/>
    <polygon fill="#F9AE00" points="10 17 14 17 14 13 10 13"/>
    <polygon fill="#F9AE00" points="16 11 20 11 20 7 16 7"/>
    <polygon fill="#F9AE00" points="16 17 20 17 20 13 16 13"/>
  </g>
</svg>
