<svg xmlns="http://www.w3.org/2000/svg" width="86" height="100" viewBox="0 0 86 100">
  <g fill="none" fill-rule="evenodd">
    <path fill="#002C41" d="M83.6115083,18.5953219 L44.7720325,0.394106911 C43.6497195,-0.13136897 42.3518789,-0.13136897 41.2295659,0.394106911 L2.38831708,18.5953219 C0.943316952,19.2724451 0.0178076678,20.7148588 0.00362361752,22.3036298 C-0.0619776152,30.1399212 0.657862939,53.9803035 10.9803056,72.4195696 C19.7123615,88.0216186 38.1268049,100 43.0007992,100 C47.8730205,100 66.2874638,88.0216186 75.0212928,72.4195696 C85.3419624,53.9803035 86.063576,30.1399212 85.9962017,22.3036298 C85.9820177,20.7148588 85.0582814,19.2724451 83.6115083,18.5953219"/>
    <g fill="#F9AE00" transform="translate(37 18)">
      <polygon points="0 5 5 5 5 0 0 0"/>
      <polygon points="8 5 13 5 13 0 8 0"/>
      <polygon points="0 13 5 13 5 8 0 8"/>
      <polygon points="8 13 13 13 13 8 8 8"/>
    </g>
  </g>
</svg>
