<svg xmlns="http://www.w3.org/2000/svg" width="283" height="100" viewBox="0 0 283 100">
  <g fill="none" fill-rule="evenodd">
    <path fill="#002C41" d="M83.6115083,18.5953219 L44.7720325,0.394106911 C43.6497195,-0.13136897 42.3518789,-0.13136897 41.2295659,0.394106911 L2.38831708,18.5953219 C0.943316952,19.2724451 0.0178076678,20.7148588 0.00362361752,22.3036298 C-0.0619776152,30.1399212 0.657862939,53.9803035 10.9803056,72.4195696 C19.7123615,88.0216186 38.1268049,100 43.0007992,100 C47.8730205,100 66.2874638,88.0216186 75.0212928,72.4195696 C85.3419624,53.9803035 86.063576,30.1399212 85.9962017,22.3036298 C85.9820177,20.7148588 85.0582814,19.2724451 83.6115083,18.5953219"/>
    <g fill="#FFF" transform="translate(31 40)">
      <path d="M2.96171085 41.5283183C1.87258292 41.2144451 1.02906902 40.7785101.431169164 40.2196415.28774491 40.0103927.179280318 39.8299156.107568191 39.6782102.0358560635 39.5273767 0 39.3346935 0 39.1019042 0 38.5430355.143424254 37.9676013.431169164 37.372986.718017672 36.7801144 1.04072224 36.4836786 1.40017928 36.4836786 1.56690998 36.4836786 1.8062492 36.5699937 2.11819695 36.7452396 2.4283519 36.9196136 2.63273146 37.0303411 2.72864643 37.0774221 3.80522474 37.7295808 4.91855551 38.0547883 6.06684595 38.0547883 6.97669356 38.0547883 7.74759892 37.821999 8.38225125 37.3564205 9.01600717 36.8908419 9.33333333 36.1698054 9.33333333 35.1906954 9.33333333 34.2133291 9.05186323 33.4574179 8.48981944 32.9220897 7.92777564 32.3867615 7.06005891 31.8165586 5.88756563 31.2114808 4.66666667 30.5819907 3.6671789 29.949013 2.88999872 29.3081886 2.11192214 28.668236 1.50147266 27.9001186 1.05865028 27.0038362.615827891 26.1075539.3953131 25.0194601.3953131 23.739555.3953131 21.6435795 1.08912793 19.997489 2.47675759 18.7986678 3.86438725 17.5998466 5.67153285 17 7.89729799 17 8.71123063 17 9.54936612 17.1107275 10.410808 17.3321825 11.27225 17.5536374 11.9660648 17.8378671 12.4922525 18.1874869 12.8275067 18.4202762 12.9951338 18.7341494 12.9951338 19.1308502 12.9951338 19.6417661 12.8633628 20.2128409 12.5998207 20.8405873 12.3362787 21.4692056 12.0377769 21.7839506 11.7025227 21.7839506 11.5590985 21.7839506 11.2839032 21.7028667 10.8769369 21.5389552 9.96708926 21.1666667 9.06979127 20.9809584 8.1850429 20.9809584 7.18017672 20.9809584 6.41913177 21.225082 5.90549366 21.7133291 5.39006275 22.2024482 5.13369189 22.8083979 5.13369189 23.5294343 5.13369189 24.2278022 5.29504418 24.8163144 5.61774875 25.2932273 5.94134972 25.7701402 6.31156358 26.1371975 6.73107952 26.3926554 7.14969907 26.649857 7.90984761 27.0796889 9.01062876 27.6847667 10.7093098 28.5923833 11.9660648 29.5645184 12.7799974 30.6002999 13.5930337 31.6360815 14 33.0389203 14 34.8070726 14 36.1575992 13.7068767 37.3799609 13.12063 38.4732859 12.5343834 39.5683546 11.6612883 40.4288903 10.5004482 41.0575085 9.33960814 41.6861268 7.94570368 42 6.31783839 42 5.16954796 42 4.04994237 41.8430634 2.96171085 41.5283183M18.1582267 24.5946754C17.3863676 24.3247521 17 23.979215 17 23.5563058 17 23.0164592 17.1287892 22.4177042 17.3863676 21.7600408 17.6430699 21.1032567 17.935693 20.7638742 18.2633608 20.7392558 18.3571053 20.7392558 18.5787629 20.7805796 18.9300859 20.8632271 19.2805327 20.9458747 19.6432451 20.9863192 20.0182232 20.9863192 20.8365166 20.9863192 21.4208866 20.6873813 21.7722096 20.0877471 22.1226564 19.4889921 22.2987559 18.5095308 22.2987559 17.147605L22.2987559 1.05683337C22.2987559.352570866 22.8945155 0 24.0877869 0L25.2100929 0C26.4033643 0 27 .352570866 27 1.05683337L27 17.6056833C27 22.5346416 24.9060803 25 20.7191169 25 19.7834239 25 18.9300859 24.8645987 18.1582267 24.5946754"/>
    </g>
    <g fill="#F9AE00" transform="translate(37 18)">
      <polygon points="0 5 5 5 5 0 0 0"/>
      <polygon points="8 5 13 5 13 0 8 0"/>
      <polygon points="0 13 5 13 5 8 0 8"/>
      <polygon points="8 13 13 13 13 8 8 8"/>
    </g>
    <text fill="#002C41" font-family="AsapCondensed-SemiBold, Asap Condensed" font-size="23.48" font-style="condensed" font-weight="500">
      <tspan x="129" y="30.5">Superbia Jurídico</tspan>
    </text>
    <path stroke="#002C41" stroke-linecap="round" stroke-width="2" d="M109,1 L109,99.020406"/>
  </g>
</svg>
