<svg xmlns="http://www.w3.org/2000/svg" width="232" height="44" viewBox="0 0 232 44">
  <g fill="none" fill-rule="evenodd">
    <text fill="#002C41" font-family="AsapCondensed-SemiBold, Asap Condensed" font-size="23.48" font-style="condensed" font-weight="500">
      <tspan x="78" y="23">Superbia Jurídico</tspan>
    </text>
    <path fill="#002C41" d="M35.9723931,7.9959884 L19.2623861,0.169465972 C18.7795305,-0.0564886573 18.2211572,-0.0564886573 17.7383016,0.169465972 L1.02753177,7.9959884 C0.405845665,8.28715141 0.00766143849,8.90738928 0.00155899823,9.59056083 C-0.0266647879,12.9601661 0.283034055,23.2115305 4.72408495,31.1404149 C8.48089973,37.849296 16.4033928,43 18.5003438,43 C20.5965321,43 28.5190251,37.849296 32.2766027,31.1404149 C36.7168908,23.2115305 37.0273524,12.9601661 36.9983659,9.59056083 C36.9922634,8.90738928 36.594842,8.28715141 35.9723931,7.9959884"/>
    <polygon fill="#F9AE00" points="12 16 17 16 17 11 12 11"/>
    <polygon fill="#F9AE00" points="20 16 25 16 25 11 20 11"/>
    <polygon fill="#F9AE00" points="12 23 17 23 17 18 12 18"/>
    <polygon fill="#F9AE00" points="20 23 25 23 25 18 20 18"/>
    <path stroke="#002C41" stroke-linecap="round" stroke-width="2" d="M58,1 L58,43"/>
  </g>
</svg>
