<?xml version="1.0" encoding="UTF-8"?>
<svgviewBox="0 0 608 208" version="1.1" xmlns="http://www.w3.org/2000/svg" xmlns:xlink="http://www.w3.org/1999/xlink">
    <title>sj-logo-horiz</title>
    <desc>Created with Sketch.</desc>
    <g id="sj-logo-horiz" stroke="none" stroke-width="1" fill="none" fill-rule="evenodd">
        <path d="M155.270504,0.00312968219 L156.998373,0.000602674945 L156.998373,0.000602674945 L157.897096,0.0115591317 C159.961227,0.0617798791 159.985766,0.374318419 159.990024,3.12052873 C160.004433,12.4010615 159.991224,21.6821915 159.991825,30.9627243 L160,121.019127 L160,121.019127 C160,148.288605 160,175.557486 159.995427,202.826367 C159.994827,203.971802 159.985821,205.118432 159.946196,206.262673 C159.911975,207.222975 159.443686,207.634448 158.387632,207.664905 C157.8501,207.680432 157.3123,207.683485 156.77459,207.683617 L155.968136,207.682821 C136.956775,207.672669 117.944813,207.661919 98.9334525,207.646989 C98.3594975,207.646392 97.784942,207.608171 97.2115873,207.572338 C96.7793199,207.544867 96.3032254,207.114284 96.260599,206.728491 C96.0120453,204.445981 96.1849522,202.169444 96.2017626,200.080428 C97.0488867,199.053837 98.0995367,198.809581 98.9898874,198.310319 C102.444425,196.371798 105.416863,193.918489 107.812946,190.735995 C110.58486,187.05185 112.081586,182.896513 112.630326,178.399575 C113.160454,174.053132 113.015764,169.709676 112.028153,165.417579 C110.852626,160.313286 108.296845,156.109574 103.987979,152.99755 C100.524437,150.496465 96.8123404,148.437906 92.9507515,146.628381 C92.7490267,146.533426 92.507077,146.524468 92.2843392,146.469526 C92.033384,146.408014 91.524269,146.725128 91.5152635,146.971773 C91.466033,148.342951 91.3987914,149.714726 91.3873844,151.085904 C91.3721749,152.842477 91.3615017,154.59958 91.3633695,156.356684 L91.3765777,158.992273 C91.4252077,164.158078 91.0775927,169.306564 90.336134,174.409065 C89.3833446,180.963367 87.070714,186.996908 83.0308148,192.363373 C79.9461065,196.460184 76.3060547,199.873199 71.8819178,202.482976 C66.9480656,205.393145 61.6317768,207.150713 55.937254,207.723431 C52.9570104,208.023227 49.9635586,208.106835 46.964103,207.836302 C45.9722895,207.74712 44.9730046,207.726948 43.9735419,207.723232 L4.79761783,207.719848 C3.53263528,207.71925 2.26765273,207.660724 1.00327055,207.612948 C0.579408343,207.596227 0.125527561,207.139964 0.0889049053,206.741629 L0.0203291494,206.059624 C0.0112568704,205.945956 0.00505303253,205.832288 0.00425253732,205.718621 C-0.00355229093,204.572588 0.00905550856,203.427153 0.00905550856,202.281121 L0.00777971932,102.943065 L0.00777971932,102.943065 L0.00170339011,2.11422197 C0.0304194665,0.159020943 0.306940015,0.0144977462 2.53685769,0.00697611698 L155.270504,0.00312968219 L155.270504,0.00312968219 Z M17.2601274,9.33442473 C16.4152048,9.33482286 15.5700152,9.34530709 14.7252704,9.36463877 L13.0788437,9.41292501 C10.9702158,9.4868056 10.6950665,9.58404464 10.6869327,11.6958457 L10.6878617,12.0779748 C10.7004695,13.9113876 10.6836591,15.7448005 10.6836591,17.5782133 L10.6782557,142.701773 L10.6782557,142.701773 L10.6686211,194.264269 L10.6686211,194.264269 C10.6686211,195.178587 10.7124769,196.093502 10.756304,197.006625 C10.7761163,197.420487 11.2408037,197.85107 11.6766734,197.876152 C12.3652994,197.915568 13.0551261,197.956775 13.7449529,197.958566 C17.201291,197.968122 20.6582296,197.969913 24.1151681,197.962747 C24.801993,197.961552 25.4882175,197.907804 26.2777059,197.873764 C26.2777059,197.477818 26.3857728,197.10815 26.2590944,196.854338 C25.7469776,195.830135 25.1015784,194.871028 24.6164783,193.835478 C22.3939033,189.092492 22.1243366,184.099279 22.9684588,179.034402 C23.3490942,176.751295 24.4303631,174.702292 26.0087395,172.953085 C26.9525234,171.906785 28.077019,171.06234 29.4230517,170.699241 C31.6870523,170.0889 34.0411086,170.028582 36.2330646,170.862874 C39.4336445,172.080571 41.5373459,174.408468 42.3676596,177.783859 C42.979438,180.272403 42.937412,182.734073 42.4889346,185.271588 C41.9053736,188.574718 40.4458707,191.311101 38.0293758,193.595999 C37.6205229,193.98239 37.071183,194.255909 36.9066813,194.861472 C36.9751236,195.068702 36.9931348,195.314749 37.1204135,195.475397 C39.2157097,198.119214 41.9750167,199.619985 45.2956709,200.16344 C48.6205277,200.707491 51.936379,200.779753 55.263037,200.155676 C60.293549,199.212693 64.2133739,196.638151 66.897034,192.301861 C68.23226,190.145361 69.2030606,187.795965 69.7487982,185.325337 C70.5899185,181.522349 71.2791449,177.688903 71.2527286,173.767072 C71.2359182,171.246279 71.2869497,168.725485 71.2707397,166.204692 C71.2161059,157.7268 71.1482639,149.248908 71.0750186,140.770418 C71.0684145,139.972555 71.0371952,139.166929 70.9189221,138.379815 C70.8744946,138.086589 70.601926,137.743794 70.3359614,137.586133 C69.8466587,137.297086 69.2871126,137.1233 68.7539828,136.910099 C62.8727445,134.557717 57.0791605,132.028563 51.6614089,128.71767 C49.2040887,127.215705 46.8338224,125.599674 44.6094464,123.769247 C39.4612616,119.532689 36.198243,114.102324 34.442757,107.758835 C32.7353008,101.59152 32.7136874,95.3011825 33.4251275,89.0000949 C33.6562705,86.9582582 34.0327034,84.9128384 34.5694354,82.9295276 C36.7511851,74.8672887 40.9375749,68.0484262 47.3183222,62.5350491 C52.6640291,57.9156848 58.822639,55.0102928 65.624847,53.312445 C66.229421,53.1613527 66.855008,53.5644646 66.8688166,54.1407654 C66.8952329,55.2093604 66.9139111,56.2782209 66.9239618,57.3469929 L66.9378816,59.5720532 C66.97628,62.0645995 67.1323367,62.026019 64.4469183,63.5837374 C63.8507495,63.9295179 63.2575826,64.29202 62.7100439,64.7076732 C60.0389915,66.732191 57.6453107,69.0117144 55.8189809,71.8579833 C52.3410293,77.2764051 51.2207363,83.2794885 51.348015,89.5746041 C51.3798347,91.1643581 51.6740167,92.7672507 52.0078232,94.3301306 C52.8339343,98.1970193 54.4249185,101.729474 57.0359337,104.748335 C60.5547105,108.817078 64.9338195,111.729637 69.7830194,113.990647 C69.8498607,114.021701 69.9287095,114.025417 70.0058683,114.03453 L70.118627,114.056339 C70.3990004,114.145919 70.8919054,113.871206 70.9051135,113.588132 L71.0110791,111.530469 C71.0440995,110.844582 71.0693151,110.158694 71.0702157,109.472807 C71.0786209,103.972568 71.0419982,98.472927 71.0456004,92.9732857 C71.0520044,84.4177572 71.0730841,75.8624941 71.0821564,67.3071425 L71.082557,52.4658796 C71.0788056,48.7837849 71.0376571,45.1000785 70.5382866,41.4364685 C70.2909336,39.6173885 69.9835434,37.8239883 69.2811089,36.1064328 C68.4453919,34.0628045 67.032718,32.6904323 64.8953958,32.0502308 C63.1279024,31.5205118 61.3622101,31.0051257 59.5022594,30.9101705 C56.2812669,30.7453425 53.0608746,30.5733481 49.8410828,30.3959788 C48.3485595,30.3135648 47.99374,29.9791312 47.9799315,28.5380806 C47.9667233,27.1651112 48.0093497,25.7915446 48.0507753,24.4185751 C48.0675857,23.8536212 48.6061188,23.3818309 49.2070906,23.3961638 C51.625987,23.4528981 54.0484856,23.4528981 56.4613783,23.6045876 C64.9794478,24.1402786 73.5065228,24.094294 82.0323971,24.0626422 C86.9860616,24.0441289 91.9391257,23.900203 96.8915894,23.7682212 C100.000913,23.6858072 103.107835,23.5102296 106.216558,23.3991498 C107.715685,23.3454016 108.077109,23.6637107 108.113131,25.1262606 C108.146152,26.49923 108.11073,27.873991 108.074107,29.2469605 C108.055496,29.9206053 107.662252,30.3517858 107.056478,30.4043396 C105.564555,30.5321411 104.072632,30.6718865 102.577707,30.7453425 C100.833028,30.8313397 99.166997,31.2565482 97.5099719,31.7581986 C94.9812076,32.5250071 93.3752141,34.2067304 92.6973948,36.7078161 C92.3095548,38.1399086 92.0351851,39.6144025 91.8508711,41.0865076 C91.4804419,44.0438563 91.370574,47.019121 91.3723751,50.0021494 C91.3873844,73.0332786 91.3801799,96.065005 91.3837821,119.096134 C91.3837821,120.122129 91.4246074,121.147526 91.4444196,122.06901 C92.3047519,123.125462 93.478478,123.354788 94.5369327,123.762678 L98.2954356,125.203949 C100.79854,126.170268 103.289547,127.166137 105.726655,128.303211 C112.598506,131.508996 118.528374,135.965324 123.755208,141.398079 C128.191953,146.010276 130.852198,151.540972 132.012716,157.747702 C132.921678,162.608933 133.02134,167.526899 132.297292,172.456809 C131.020302,181.149097 127.285992,188.58069 120.991098,194.740837 L119.66828,196.016109 C119.449277,196.230129 119.23261,196.446449 119.020679,196.667414 C118.890398,196.802979 118.808147,197.132038 118.884995,197.277755 C118.969047,197.438403 119.259026,197.565607 119.466155,197.575162 C120.845208,197.643841 122.226062,197.715505 123.606316,197.716102 C130.635464,197.719088 137.664012,197.701769 144.693161,197.688631 C145.499459,197.686839 146.306359,197.677881 147.112057,197.644438 C148.13509,197.602634 148.632197,197.145176 148.664017,196.220706 C148.691034,195.41926 148.694185,194.616619 148.694185,193.814576 L148.691634,13.3452393 L148.691634,13.3452393 C148.691634,12.4297273 148.666419,11.5130208 148.629796,10.598106 C148.606381,9.99313951 148.138092,9.46222615 147.579146,9.43953244 C146.198892,9.38518697 144.817437,9.33102603 143.436583,9.33102603 C101.377565,9.33102603 59.3185458,9.33102603 17.2601274,9.33442473 Z M233.989145,118.371298 C235.556806,118.371298 236.639238,119.469692 236.717268,121.084737 L236.721784,121.273349 L236.721784,143.068337 C236.721784,152.248292 232.070483,159 222.128327,159 C215.093234,159 208.988401,154.439636 208.058141,147.865604 C208,147.451025 208,146.917995 208,146.562642 C208,144.963554 209.104684,144.015945 210.674498,144.015945 C212.46346,144.015945 212.962305,144.892062 213.308156,146.223086 L213.348996,146.384966 C214.45368,150.826879 216.430483,153.965831 222.24461,153.965831 C228.535304,153.965831 231.057207,149.897559 231.138201,143.620904 L231.140223,143.305239 L231.140223,121.273349 C231.140223,119.67426 232.244907,118.371298 233.989145,118.371298 Z M293.102199,118.371298 C294.784142,118.371298 295.871399,119.582853 295.946915,121.103197 L295.951121,121.273349 L295.951121,142.535308 C295.951121,152.66287 289.846288,159 279.613425,159 C269.50095,159 263.419945,152.811102 263.278262,142.891173 L263.27573,142.535308 L263.27573,121.273349 C263.27573,119.67426 264.380414,118.371298 266.124652,118.371298 C267.692313,118.371298 268.774745,119.469692 268.852775,121.084737 L268.857292,121.273349 L268.857292,143.127563 C268.857292,149.464692 272.520191,153.84738 279.613425,153.84738 C286.592253,153.84738 290.250509,149.604929 290.366702,143.432662 L290.369559,143.127563 L290.369559,121.273349 C290.369559,119.555809 291.474243,118.371298 293.102199,118.371298 Z M521.746872,118.134396 C528.142411,118.134396 533.491407,120.917995 536.398471,124.649203 C536.863601,125.241458 537.154307,125.892938 537.154307,126.66287 C537.154307,128.143508 536.165905,129.150342 534.654233,129.150342 C533.549549,129.150342 532.793712,128.498861 532.2123,127.788155 C529.712225,124.94533 526.340032,123.287016 522.09572,123.287016 C512.676835,123.287016 507.734827,130.216401 507.734827,138.567198 C507.734827,146.917995 512.676835,153.84738 522.09572,153.84738 C526.340032,153.84738 529.712225,152.189066 532.2123,149.346241 C532.793712,148.635535 533.549549,147.984055 534.654233,147.984055 C536.165905,147.984055 537.154307,148.990888 537.154307,150.471526 C537.154307,151.241458 536.863601,151.892938 536.398471,152.485194 C533.491407,156.216401 528.142411,159 521.746872,159 C509.595348,159 502.095125,149.642369 502.095125,138.567198 C502.095125,127.492027 509.595348,118.134396 521.746872,118.134396 Z M579.348253,118.134396 C591.150929,118.134396 599,127.432802 599,138.567198 C599,149.701595 591.150929,159 579.348253,159 C567.545576,159 559.696506,149.701595 559.696506,138.567198 C559.696506,127.432802 567.545576,118.134396 579.348253,118.134396 Z M474.320212,118.371298 C475.887873,118.371298 476.970306,119.469692 477.048335,121.084737 L477.052852,121.273349 L477.052852,155.861048 C477.052852,157.460137 475.948168,158.763098 474.320212,158.763098 C472.694334,158.763098 471.555017,157.551543 471.475711,156.0312 L471.47129,155.861048 L471.47129,121.273349 C471.47129,119.67426 472.575975,118.371298 474.320212,118.371298 Z M383.304217,118.371298 C384.871877,118.371298 385.95431,119.469692 386.03234,121.084737 L386.036856,121.273349 L386.036856,155.861048 C386.036856,157.460137 384.932172,158.763098 383.304217,158.763098 C381.678338,158.763098 380.539021,157.551543 380.459715,156.0312 L380.455295,155.861048 L380.455295,121.273349 C380.455295,119.67426 381.559979,118.371298 383.304217,118.371298 Z M341.284695,118.845103 C350.122167,118.845103 354.482762,123.642369 354.482762,130.453303 C354.482762,135.616801 351.86052,139.473144 346.834653,141.020219 L346.517408,141.113895 L353.02923,154.676538 C353.203654,155.091116 353.319936,155.505695 353.319936,155.920273 C353.319936,157.341686 352.331535,158.763098 350.587297,158.763098 C349.324339,158.763098 348.631848,158.234821 348.166967,157.327946 L340.703282,141.765376 L328.377334,141.765376 L328.377334,155.861048 C328.377334,157.460137 327.27265,158.763098 325.644695,158.763098 C324.018816,158.763098 322.879499,157.551543 322.800193,156.0312 L322.795773,155.861048 L322.795773,121.747153 C322.795773,120.090953 323.82296,118.93039 325.46028,118.849605 L325.644695,118.845103 L341.284695,118.845103 Z M427.009835,118.845103 C438.986936,118.845103 446.429018,127.255125 446.429018,138.567198 C446.429018,149.760197 439.142787,158.111919 427.386549,158.286505 L427.009835,158.289294 L416.253702,158.289294 C414.739952,158.289294 413.496515,157.077739 413.409629,155.557396 L413.40478,155.387244 L413.40478,121.747153 C413.40478,120.205174 414.594154,118.938549 416.086665,118.850042 L416.253702,118.845103 L427.009835,118.845103 Z M579.348253,123.287016 C570.336357,123.287016 565.278067,130.453303 565.278067,138.567198 C565.278067,146.681093 570.336357,153.84738 579.348253,153.84738 C588.360149,153.84738 593.418439,146.681093 593.418439,138.567198 C593.418439,130.453303 588.360149,123.287016 579.348253,123.287016 Z M426.835412,124.056948 L418.986341,124.056948 L418.986341,153.077449 L426.835412,153.077449 C435.731025,153.077449 440.847456,147.036446 440.847456,138.567198 C440.847456,130.210873 435.866554,124.218473 427.189217,124.060161 L426.835412,124.056948 Z M342.389379,124.056948 L328.377334,124.056948 L328.377334,136.790433 L342.389379,136.790433 C346.691832,136.790433 348.9012,133.947608 348.9012,130.453303 C348.9012,127.034961 346.786848,124.183404 342.667005,124.061038 L342.389379,124.056948 Z M386.094997,107 C387.199681,107 388.246224,107.947608 388.246224,109.369021 C388.246224,109.90205 387.963658,110.387107 387.652834,110.781016 L387.548529,110.908884 L384.81589,114.166287 C384.292618,114.758542 383.769347,115.173121 382.722804,115.173121 C381.501837,115.173121 380.571577,114.107062 380.571577,112.922551 C380.571577,112.389522 380.901238,111.904465 381.22148,111.510556 L384.176336,107.947608 C384.699607,107.355353 385.222878,107 386.094997,107 Z M128.429992,53.2096365 C130.496447,53.2144075 132.563537,53.2466968 134.630626,53.2795526 C135.078422,53.2869169 135.595987,53.7106436 135.617552,54.090185 L135.707143,55.7137863 C135.733148,56.2551284 135.7517,56.7965413 135.752018,57.3378126 C135.759629,66.2474039 135.750115,75.1569951 135.748846,84.0665864 L135.757726,94.1708832 L135.757726,94.1708832 C135.757726,94.6053731 135.744406,95.0404294 135.718401,95.4743528 C135.674637,96.2005797 135.127261,96.7177756 134.359793,96.7262727 C132.777921,96.7432671 131.196048,96.7410012 129.614176,96.7415677 C128.27523,96.7427007 126.936284,96.7534638 125.598606,96.7251398 C125.121634,96.7149432 124.6472,96.6033467 124.213992,96.5438663 C123.455404,95.5355326 123.438913,94.4257991 123.273368,93.3619503 C122.667005,89.4787326 121.69657,85.6708567 120.227599,81.9768432 C118.715496,78.1751985 116.755599,74.5854172 113.997788,71.3428879 C110.92411,67.7281815 107.211722,64.8346037 102.660193,62.8219017 C100.919118,62.0514894 99.1253999,61.3762457 97.0767043,60.5446536 C96.9079882,58.2039599 96.9752209,56.0558692 97.0367452,54.0392018 C97.8612976,53.6245387 98.4537068,53.7587944 99.0359676,53.8936165 C105.322228,55.3466367 111.221584,57.6176535 116.765747,60.6239608 C118.220131,61.4130669 119.625041,62.2746824 121.055322,63.0994767 C121.866555,63.5673888 122.329573,63.3759187 122.517317,62.438395 L122.978103,60.0852387 L122.978103,60.0852387 L123.87656,55.3755272 C123.959015,54.9484016 124.034494,54.520143 124.130269,54.0952833 C124.221604,53.6896839 124.683987,53.3135414 125.150811,53.2954141 C126.243026,53.2529281 127.336509,53.2070432 128.429992,53.2096365 Z M223.351068,51 C226.374764,51 229.340311,51.5797101 232.131414,52.6231884 C234.108446,53.3768116 236.841401,54.7681159 236.841401,56.5652174 C236.841401,57.8985507 236.085478,59.057971 234.457334,59.057971 C234.050298,59.057971 233.643262,58.942029 233.352522,58.7681159 C230.503271,57.1449275 227.246984,55.9275362 223.409216,55.9275362 C217.710714,55.9275362 214.047391,57.5507246 214.047391,61.3188406 C214.047391,64.541806 216.577366,65.8087214 222.464423,67.6903671 L223.58366,68.0434783 C232.887338,70.942029 238.062509,73.4347826 238.062509,80.0434783 C238.062509,86.2463768 232.945486,91 223.234772,91 C218.11775,91 212.884431,89.3188406 209.511848,86.7101449 C208.639628,86.0144928 208,85.0869565 208,84.1014493 C208,82.6521739 209.046664,81.8405797 210.384067,81.8405797 C211.081843,81.8405797 211.663323,82.1304348 212.361099,82.5362319 L212.998229,82.9355191 C215.962656,84.7669565 218.842661,86.1304348 223.29292,86.1304348 C229.456607,86.1304348 232.480302,83.6376812 232.480302,80.3333333 C232.480302,76.7369834 229.539003,75.4268702 223.564086,73.5958191 L222.071813,73.1449275 C211.721471,70.0724638 208.465184,66.884058 208.465184,61.4347826 C208.465184,54.4782609 214.62887,51 223.351068,51 Z M292.530559,51.2318841 C294.21039,51.2318841 295.297095,52.4145246 295.375287,53.8997936 L295.37981,54.0724638 L295.37981,74.884058 C295.37981,84.7971014 289.274272,91 279.040226,91 C268.926581,91 262.844873,84.9421935 262.703174,75.2323855 L262.700642,74.884058 L262.700642,54.0724638 C262.700642,52.5072464 263.805453,51.2318841 265.549893,51.2318841 C267.117735,51.2318841 268.200293,52.3070118 268.278331,53.8878477 L268.282848,54.0724638 L268.282848,75.4637681 C268.282848,81.6666667 271.946172,85.9565217 279.040226,85.9565217 C286.017984,85.9565217 289.676573,81.8061648 289.794651,75.7672759 L289.797603,75.4637681 L289.797603,54.0724638 C289.797603,52.3913043 290.902415,51.2318841 292.530559,51.2318841 Z M339.846406,51.6956522 C348.6849,51.6956522 353.045999,56.5072464 353.045999,63.173913 C353.045999,69.7410772 348.814111,74.3393706 340.239168,74.4751702 L339.846406,74.4782609 L327.809773,74.4782609 L327.809773,87.9275362 C327.809773,89.4927536 326.704961,90.7681159 325.076818,90.7681159 C323.452981,90.7681159 322.314429,89.5854754 322.23232,88.1002064 L322.227566,87.9275362 L322.227566,54.5362319 C322.227566,52.9173376 323.252056,51.7822508 324.885647,51.7003911 L325.076818,51.6956522 L339.846406,51.6956522 Z M447.038066,51.6956522 C455.87656,51.6956522 460.237659,56.3913043 460.237659,63.057971 C460.237659,68.112097 457.615115,71.8867561 452.588666,73.4010616 L452.271385,73.4927536 L458.783959,86.7681159 C458.958403,87.173913 459.074699,87.5797101 459.074699,87.9855072 C459.074699,89.3768116 458.086184,90.7681159 456.341744,90.7681159 C455.078641,90.7681159 454.386069,90.2510288 453.921135,89.3633626 L446.456586,74.1304348 L434.129213,74.1304348 L434.129213,87.9275362 C434.129213,89.4927536 433.024401,90.7681159 431.396258,90.7681159 C429.772421,90.7681159 428.633869,89.5854754 428.55176,88.1002064 L428.547006,87.9275362 L428.547006,54.5362319 C428.547006,52.9173376 429.571496,51.7822508 431.205087,51.7003911 L431.396258,51.6956522 L447.038066,51.6956522 Z M544.344568,51.2318841 C545.91241,51.2318841 546.994968,52.3070118 547.073007,53.8878477 L547.077524,54.0724638 L547.077524,87.9275362 C547.077524,89.4927536 545.972712,90.7681159 544.344568,90.7681159 C542.720732,90.7681159 541.58218,89.5854754 541.50007,88.1002064 L541.495317,87.9275362 L541.495317,54.0724638 C541.495317,52.5072464 542.600129,51.2318841 544.344568,51.2318841 Z M589.857828,51.2318841 C591.007106,51.2318841 591.795826,51.6940474 592.272467,52.666705 L607.70926,87 C607.883704,87.4057971 608,87.7536232 608,88.1594203 C608,89.4927536 607.12778,90.7681159 605.383341,90.7681159 C604.120237,90.7681159 603.375799,90.1476114 602.954087,89.2972903 L598.987062,80.6811594 L580.728594,80.6811594 L576.832679,89.1449275 C576.425643,90.0724638 575.669719,90.7681159 574.332316,90.7681159 C572.587876,90.7681159 571.715656,89.4927536 571.715656,88.1594203 C571.715656,87.821256 571.796417,87.5233494 571.924289,87.1986044 L572.006396,87 L587.357465,52.8550725 C587.822649,51.7536232 588.63672,51.2318841 589.857828,51.2318841 Z M401.059622,51.6956522 C402.513322,51.6956522 403.73443,52.7971014 403.73443,54.2463768 C403.73443,55.6399108 402.605447,56.71186 401.226269,56.7922562 L401.059622,56.7971014 L382.335971,56.7971014 L382.335971,67.9855072 L392.918904,67.9855072 C394.314456,67.9855072 395.477416,69.0869565 395.477416,70.5362319 C395.477416,71.9831884 394.405632,73.0027362 393.085195,73.0819849 L392.918904,73.0869565 L382.335971,73.0869565 L382.335971,85.2028986 L401.931842,85.2028986 C403.385542,85.2028986 404.60665,86.1884058 404.60665,87.7536232 C404.60665,89.1471572 403.477667,90.2191064 402.098488,90.2995026 L401.931842,90.3043478 L379.603015,90.3043478 C377.979179,90.3043478 376.840627,89.1754637 376.758517,87.6941766 L376.753764,87.5217391 L376.753764,54.4782609 C376.753764,52.9710145 377.940015,51.7863064 379.429818,51.7006178 L379.603015,51.6956522 L401.059622,51.6956522 Z M502.26204,51.6956522 C509.530538,51.6956522 514.124229,55.5217391 514.124229,61.2608696 C514.124229,65.0289855 511.856458,68.0434783 508.134986,69.6086957 C512.844973,70.4782609 516.450148,73.4927536 516.450148,79.4057971 C516.450148,84.9450573 512.10541,90.1467968 503.304766,90.3008387 L502.901668,90.3043478 L488.713559,90.3043478 C487.201711,90.3043478 486.013387,89.1217073 485.927436,87.6364383 L485.922456,87.4637681 L485.922456,54.4782609 C485.922456,52.9710145 487.054786,51.7863064 488.540595,51.7006178 L488.713559,51.6956522 L502.26204,51.6956522 Z M503.308704,72.4492754 L491.504662,72.4492754 L491.504662,85.3188406 L503.366851,85.3188406 C508.134986,85.3188406 510.867942,82.6521739 510.867942,78.826087 C510.867942,74.9094203 508.136173,72.5490137 503.600646,72.4523634 L503.308704,72.4492754 Z M589.857,59.348 L582.763774,75.7536232 L596.951883,75.7536232 L589.857,59.348 Z M340.951218,56.7971014 L327.809773,56.7971014 L327.809773,69.3768116 L340.951218,69.3768116 C345.254169,69.3768116 347.463792,66.5942029 347.463792,63.173913 C347.463792,59.8279773 345.349195,56.925865 341.228876,56.8012675 L340.951218,56.7971014 Z M448.142878,56.7971014 L434.129213,56.7971014 L434.129213,69.2608696 L448.142878,69.2608696 C452.445829,69.2608696 454.655452,66.4782609 454.655452,63.057971 C454.655452,59.7120353 452.540855,56.9208789 448.420536,56.8011055 L448.142878,56.7971014 Z M502.436484,56.6811594 L491.504662,56.6811594 L491.504662,67.4637681 L502.55278,67.4637681 C506.506843,67.4637681 508.483874,64.7971014 508.483874,61.9565217 C508.483874,58.5025278 506.153929,56.7630211 502.686105,56.6839819 L502.436484,56.6811594 Z" id="Shape" fill="#D6AE72"></path>
    </g>
</svg>