<svg xmlns="http://www.w3.org/2000/svg" width="37" height="43" viewBox="0 0 37 43">
  <g fill="none" fill-rule="evenodd">
    <path fill="#002C41" d="M35.9723931,7.9959884 L19.2623861,0.169465972 C18.7795305,-0.0564886573 18.2211572,-0.0564886573 17.7383016,0.169465972 L1.02753177,7.9959884 C0.405845665,8.28715141 0.00766143849,8.90738928 0.00155899823,9.59056083 C-0.0266647879,12.9601661 0.283034055,23.2115305 4.72408495,31.1404149 C8.48089973,37.849296 16.4033928,43 18.5003438,43 C20.5965321,43 28.5190251,37.849296 32.2766027,31.1404149 C36.7168908,23.2115305 37.0273524,12.9601661 36.9983659,9.59056083 C36.9922634,8.90738928 36.594842,8.28715141 35.9723931,7.9959884"/>
    <g fill="#F9AE00" transform="translate(12 9)">
      <polygon points="0 5 5 5 5 0 0 0"/>
      <polygon points="8 5 13 5 13 0 8 0"/>
      <polygon points="0 13 5 13 5 8 0 8"/>
      <polygon points="8 13 13 13 13 8 8 8"/>
    </g>
  </g>
</svg>
