<svg xmlns="http://www.w3.org/2000/svg" width="154" height="23" viewBox="0 0 154 23">
  <path fill="#002C41" fill-rule="evenodd" d="M4.78991991,17.66436 C4.03855616,17.66436 3.30677016,17.5587011 2.59453995,17.34738 C1.88230974,17.136059 1.33053526,16.8425619 0.939199982,16.46688 C0.845279514,16.3259993 0.77484022,16.2046872 0.727879986,16.10294 C0.680919752,16.0011929 0.657439987,15.8720541 0.657439987,15.71552 C0.657439987,15.3398382 0.751359046,14.952422 0.939199982,14.5532601 C1.12704092,14.1540981 1.3383588,13.9545201 1.57315997,13.9545201 C1.68273385,13.9545201 1.83926561,14.0132195 2.04275996,14.1306201 C2.24625431,14.2480207 2.37930631,14.3223732 2.44191995,14.3536801 C3.14632346,14.7919756 3.87419617,15.01112 4.62555991,15.01112 C5.22038954,15.01112 5.72520448,14.8545883 6.14001988,14.5415201 C6.55483528,14.2284518 6.76223987,13.7432034 6.76223987,13.0857601 C6.76223987,12.4283168 6.57831504,11.9195886 6.21045988,11.5595601 C5.84260471,11.1995317 5.27517707,10.8160288 4.50815991,10.4090401 C3.70983594,9.98639803 3.05631582,9.55984897 2.54757995,9.12938016 C2.03884408,8.69891135 1.63968808,8.18235653 1.35009997,7.57970019 C1.06051186,6.97704386 0.915719982,6.24525786 0.915719982,5.38432024 C0.915719982,3.97551322 1.3696621,2.86805098 2.27755996,2.0619003 C3.18545781,1.25574962 4.36727264,0.852680325 5.82303989,0.852680325 C6.35525587,0.852680325 6.90311705,0.927032913 7.46663985,1.07574032 C8.03016266,1.22444773 8.48410478,1.41619914 8.82847983,1.65100031 C9.04762759,1.80753442 9.15719982,2.0188523 9.15719982,2.2849603 C9.15719982,2.62933535 9.07110735,3.01283817 8.89891983,3.43548027 C8.7267323,3.85812238 8.5310676,4.06944026 8.31191984,4.06944026 C8.21799937,4.06944026 8.03798784,4.01465414 7.77187985,3.90508027 C7.17705022,3.65462568 6.5900561,3.52940027 6.01087988,3.52940027 C5.35343661,3.52940027 4.85644825,3.69375863 4.51989991,4.02248026 C4.18335157,4.3512019 4.01507992,4.75818449 4.01507992,5.24344024 C4.01507992,5.71304258 4.12073886,6.10828528 4.33205992,6.42918022 C4.54338097,6.75007515 4.7860052,6.99661268 5.0599399,7.1688002 C5.3338746,7.34098773 5.83086295,7.63057149 6.55091987,8.03756018 C7.66231207,8.64804322 8.48410384,9.30156334 9.01631982,9.99814015 C9.54853581,10.6947169 9.81463981,11.6378208 9.81463981,12.8274801 C9.81463981,13.7353779 9.6228884,14.5571697 9.23937982,15.29288 C8.85587124,16.0285904 8.2845303,16.6077579 7.52533985,17.0304 C6.76614941,17.4530421 5.85435187,17.66436 4.78991991,17.66436 Z M14.3697597,17.68784 C13.4462085,17.68784 12.7418155,17.4021695 12.2565598,16.83082 C11.771304,16.2594705 11.5286798,15.441592 11.5286798,14.3771601 L11.5286798,5.85392023 C11.5286798,5.3999713 11.9278358,5.17300024 12.7261598,5.17300024 L13.3131597,5.17300024 C13.7358018,5.17300024 14.0410388,5.22778636 14.2288797,5.33736024 C14.4167207,5.44693412 14.5106397,5.61911906 14.5106397,5.85392023 L14.5106397,13.7666801 C14.5106397,14.2519358 14.6006455,14.6158722 14.7806597,14.8585001 C14.9606739,15.1011279 15.254171,15.22244 15.6611597,15.22244 C15.9742279,15.22244 16.2638117,15.1246077 16.5299197,14.9289401 C16.7960277,14.7332724 17.0151721,14.4789083 17.1873597,14.1658401 L17.1873597,5.85392023 C17.1873597,5.3999713 17.5865157,5.17300024 18.3848396,5.17300024 L18.9953196,5.17300024 C19.7779902,5.17300024 20.1693196,5.3999713 20.1693196,5.85392023 L20.1693196,13.6258001 C20.1693196,14.690232 20.2084525,15.461151 20.2867196,15.93858 C20.3649867,16.4160091 20.4041196,16.7016795 20.4041196,16.7956 C20.4041196,17.0460546 20.1380156,17.2260661 19.6057996,17.33564 C19.0735836,17.4452139 18.5961618,17.5 18.1735196,17.5 C17.9074117,17.5 17.7274001,17.4099942 17.6334797,17.22998 C17.5395592,17.0499658 17.4730332,16.826908 17.4338997,16.5608 C17.3947661,16.294692 17.3595465,16.0833741 17.3282397,15.92684 C16.9838646,16.4434026 16.5612288,16.8660384 16.0603197,17.19476 C15.5594105,17.5234816 14.9958962,17.68784 14.3697597,17.68784 Z M24.2313595,22.3603599 C23.4173821,22.3603599 23.0103996,22.1333888 23.0103996,21.6794399 L23.0103996,9.14112016 C23.0103996,8.07668819 22.9673533,7.30185596 22.8812596,6.81660021 C22.7951658,6.33134446 22.7521196,6.0339341 22.7521196,5.92436023 C22.7521196,5.70521247 23.0182236,5.53694082 23.5504395,5.41954024 C24.0826555,5.30213965 24.5444242,5.24344024 24.9357595,5.24344024 C25.2175209,5.24344024 25.4131856,5.36866565 25.5227595,5.61912023 C25.6323334,5.86957481 25.734079,6.23742446 25.8279995,6.72268021 C26.1097609,6.20611764 26.4736973,5.79913505 26.9198195,5.50172023 C27.3659417,5.20430542 27.8629301,5.05560024 28.4107994,5.05560024 C29.1308564,5.05560024 29.7608967,5.30996436 30.3009394,5.81870023 C30.8409821,6.32743609 31.2597046,7.0592221 31.5571194,8.01408018 C31.8545342,8.96893827 32.0032394,10.1037936 32.0032394,11.4186801 C32.0032394,13.4066634 31.6549562,14.9445879 30.9583794,16.0325 C30.2618026,17.1204121 29.3108721,17.66436 28.1055595,17.66436 C27.2602752,17.66436 26.5558823,17.3826028 25.9923595,16.81908 L25.9923595,21.6794399 C25.9923595,22.1333888 25.5775503,22.3603599 24.7479195,22.3603599 L24.2313595,22.3603599 Z M27.3072395,15.2694 C27.8707623,15.2694 28.2894847,14.9602498 28.5634194,14.3419401 C28.8373541,13.7236303 28.9743194,12.7335669 28.9743194,11.3717201 C28.9743194,8.78890726 28.4812444,7.4975202 27.4950795,7.4975202 C26.9159032,7.4975202 26.4150016,7.88884961 25.9923595,8.67152017 L25.9923595,14.6824001 C26.352388,15.0737353 26.7906769,15.2694 27.3072395,15.2694 Z M39.0237592,17.66436 C37.2549238,17.66436 35.9517968,17.1438919 35.1143393,16.10294 C34.2768818,15.0619882 33.8581593,13.5084104 33.8581593,11.4421601 C33.8581593,7.18443225 35.4547833,5.05560024 38.6480792,5.05560024 C41.4970001,5.05560024 42.9214392,7.13747272 42.9214392,11.3012801 C42.9214392,11.4734676 42.7844739,11.7239185 42.5105392,12.0526401 C42.2366045,12.3813617 42.0213733,12.5457201 41.8648392,12.5457201 L36.9340393,12.5457201 C36.9809995,13.5162316 37.1844908,14.2167112 37.5445193,14.6471801 C37.9045477,15.0776489 38.4289291,15.29288 39.1176792,15.29288 C39.5246679,15.29288 39.884691,15.2341806 40.1977592,15.11678 C40.5108274,14.9993795 40.8004112,14.8663275 41.0665192,14.7176201 C41.3326272,14.5689126 41.489159,14.4945601 41.5361192,14.4945601 C41.7396135,14.4945601 41.9704979,14.7019646 42.2287792,15.11678 C42.4870605,15.5315954 42.6161992,15.8485723 42.6161992,16.06772 C42.6161992,16.3651348 42.4244478,16.6351521 42.0409392,16.87778 C41.6574306,17.1204079 41.1800087,17.3121593 40.6086592,17.45304 C40.0373097,17.5939207 39.509015,17.66436 39.0237592,17.66436 Z M40.1273192,10.5968801 C40.1273192,9.45418111 40.0060071,8.61673617 39.7633792,8.08452018 C39.5207513,7.5523042 39.1333352,7.2862002 38.6011192,7.2862002 C38.0532499,7.2862002 37.6384407,7.54056432 37.3566793,8.04930018 C37.0749179,8.55803605 36.9027329,9.40722088 36.8401193,10.5968801 L40.1273192,10.5968801 Z M46.3729991,17.54696 C45.5433683,17.54696 45.1285591,17.3199889 45.1285591,16.86604 L45.1285591,9.11764016 C45.1285591,8.06886161 45.0815996,7.30185596 44.9876791,6.81660021 C44.8937587,6.33134446 44.8467991,6.0339341 44.8467991,5.92436023 C44.8467991,5.70521247 45.1050765,5.53694082 45.6216391,5.41954024 C46.1382017,5.30213965 46.5999704,5.24344024 47.0069591,5.24344024 C47.2574137,5.24344024 47.4374252,5.35301247 47.5469991,5.57216023 C47.656573,5.79130799 47.7387521,6.03001893 47.7935391,6.28830022 C47.848326,6.5465815 47.8835457,6.72267974 47.8991991,6.81660021 C48.4783753,5.64259436 49.1749416,5.05560024 49.988919,5.05560024 C50.4272145,5.05560024 50.7402781,5.16908577 50.928119,5.39606024 C51.1159599,5.6230347 51.209879,5.88522541 51.209879,6.18264022 C51.209879,6.49570845 51.1550929,6.87921127 51.045519,7.3331602 C50.9359451,7.78710913 50.8028931,8.01408018 50.646359,8.01408018 C50.5524385,8.01408018 50.3919935,7.97886054 50.165019,7.90842019 C49.9380446,7.83797984 49.7228134,7.80276019 49.519319,7.80276019 C49.1905974,7.80276019 48.893187,7.93581219 48.6270791,8.20192018 C48.3609711,8.46802817 48.1809595,8.75761194 48.0870391,9.07068016 L48.0870391,16.86604 C48.0870391,17.3199889 47.6644033,17.54696 46.8191191,17.54696 L46.3729991,17.54696 Z M58.3008389,17.66436 C57.7686229,17.66436 57.2638079,17.5156548 56.7863789,17.21824 C56.3089498,16.9208252 55.9293603,16.5138426 55.6475989,15.99728 L55.4362789,17.05388 C55.3736653,17.2417209 55.2523532,17.3708597 55.0723389,17.4413 C54.8923247,17.5117404 54.6457872,17.54696 54.3327189,17.54696 L54.0979189,17.54696 C53.3152484,17.54696 52.923919,17.3199889 52.923919,16.86604 L52.923919,0.477000332 C52.923919,0.0387048156 53.3309016,-0.180439655 54.1448789,-0.180439655 L54.6614389,-0.180439655 C55.4754163,-0.180439655 55.8823989,0.0387048156 55.8823989,0.477000332 L55.8823989,5.92436023 C56.4615751,5.34518401 57.1737947,5.05560024 58.0190789,5.05560024 C59.2400449,5.05560024 60.1948887,5.59954813 60.8836388,6.68746021 C61.5723889,7.7753723 61.9167588,9.32895006 61.9167588,11.3482401 C61.9167588,12.6474733 61.7680536,13.774502 61.4706388,14.7293601 C61.173224,15.6842181 60.7505882,16.4120909 60.2027188,16.913 C59.6548494,17.4139092 59.0208958,17.66436 58.3008389,17.66436 Z M57.3851189,15.22244 C57.9016815,15.22244 58.281271,14.9093765 58.5238989,14.2832401 C58.7665267,13.6571036 58.8878389,12.6709535 58.8878389,11.3247601 C58.8878389,9.94725993 58.7508736,8.95719651 58.4769389,8.35454018 C58.2030042,7.75188384 57.7842817,7.4505602 57.2207589,7.4505602 C56.7198497,7.4505602 56.2737342,7.6462249 55.8823989,8.03756018 L55.8823989,14.1423601 C56.3363478,14.862417 56.8372495,15.22244 57.3851189,15.22244 Z M65.8613987,3.69376027 C64.9065406,3.69376027 64.4291187,3.46678921 64.4291187,3.01284028 L64.4291187,1.69796031 C64.4291187,1.24401138 64.898714,1.01704032 65.8379187,1.01704032 C66.7927768,1.01704032 67.2701987,1.24401138 67.2701987,1.69796031 L67.2701987,3.01284028 C67.2701987,3.46678921 66.8006034,3.69376027 65.8613987,3.69376027 Z M65.5796387,17.54696 C64.7500079,17.54696 64.3351987,17.3199889 64.3351987,16.86604 L64.3351987,5.85392023 C64.3351987,5.3999713 64.7500079,5.17300024 65.5796387,5.17300024 L66.0492387,5.17300024 C66.8788695,5.17300024 67.2936787,5.3999713 67.2936787,5.85392023 L67.2936787,16.86604 C67.2936787,17.3199889 66.8788695,17.54696 66.0492387,17.54696 L65.5796387,17.54696 Z M73.0932386,17.66436 C72.04446,17.66436 71.2344081,17.3395566 70.6630586,16.68994 C70.0917091,16.0403234 69.8060386,15.1441791 69.8060386,14.0014801 C69.8060386,12.6709401 70.2717206,11.6143507 71.2030986,10.8316801 C72.1344766,10.0490096 73.5863087,9.65768015 75.5586385,9.65768015 L75.5586385,9.02372017 C75.5586385,7.9592882 75.0107773,7.4270802 73.9150386,7.4270802 C73.4923965,7.4270802 73.1245468,7.47795302 72.8114786,7.57970019 C72.4984104,7.68144737 72.1618671,7.81841266 71.8018386,7.99060019 C71.5983443,8.11582748 71.4496391,8.17844018 71.3557186,8.17844018 C71.1522243,8.17844018 70.9213399,7.963209 70.6630586,7.53274019 C70.4047773,7.10227138 70.2756386,6.76964138 70.2756386,6.53484021 C70.2756386,6.28438563 70.4595635,6.04567469 70.8274186,5.81870023 C71.1952738,5.59172576 71.676609,5.40780094 72.2714386,5.26692024 C72.8662682,5.12603954 73.4767421,5.05560024 74.1028786,5.05560024 C75.605606,5.05560024 76.7169816,5.39997013 77.4370385,6.08872022 C78.1570954,6.77747032 78.5171185,7.7244875 78.5171185,8.92980017 L78.5171185,13.6023201 C78.5171185,14.666752 78.564078,15.4454976 78.6579985,15.93858 C78.7519189,16.4316625 78.7988785,16.7329861 78.7988785,16.84256 C78.7988785,17.0617078 78.5406011,17.2299794 78.0240385,17.34738 C77.5074759,17.4647806 77.0457072,17.52348 76.6387185,17.52348 C76.4039173,17.52348 76.2317324,17.4217344 76.1221585,17.21824 C76.0125846,17.0147457 75.9030124,16.6938555 75.7934385,16.25556 C75.5273305,16.6468953 75.1633942,16.9795253 74.7016185,17.25346 C74.2398429,17.5273947 73.7037216,17.66436 73.0932386,17.66436 Z M73.9150386,15.3868 C74.2437602,15.3868 74.5529104,15.3007076 74.8424985,15.12852 C75.1320866,14.9563325 75.3707976,14.7215349 75.5586385,14.4241201 L75.5586385,11.5830401 C73.5550019,11.5830401 72.5531986,12.326566 72.5531986,13.8136401 C72.5531986,14.3145492 72.6666841,14.7019654 72.8936586,14.9759 C73.120633,15.2498347 73.4610896,15.3868 73.9150386,15.3868 Z M85.9837583,17.66436 C85.3576219,17.66436 84.7862809,17.5743542 84.2697184,17.39434 C83.7531558,17.2143258 83.4948784,16.9834414 83.4948784,16.70168 C83.4948784,16.3416516 83.5809708,15.9424956 83.7531584,15.5042 C83.9253459,15.0659045 84.1210106,14.8389335 84.3401584,14.8232801 C84.402772,14.8232801 84.5514772,14.8506731 84.7862783,14.9054601 C85.0210795,14.960247 85.2637038,14.98764 85.5141583,14.98764 C86.0620277,14.98764 86.4533571,14.788062 86.6881583,14.3889001 C86.9229595,13.9897381 87.0403583,13.336218 87.0403583,12.4283201 L87.0403583,1.69796031 C87.0403583,1.22835797 87.4395143,0.993560322 88.2378383,0.993560322 L88.9891983,0.993560322 C89.7875222,0.993560322 90.1866782,1.22835797 90.1866782,1.69796031 L90.1866782,12.7335601 C90.1866782,16.0207765 88.7857189,17.66436 85.9837583,17.66436 Z M95.7514381,17.68784 C94.8278869,17.68784 94.1234939,17.4021695 93.6382382,16.83082 C93.1529824,16.2594705 92.9103582,15.441592 92.9103582,14.3771601 L92.9103582,5.85392023 C92.9103582,5.3999713 93.3095142,5.17300024 94.1078382,5.17300024 L94.6948382,5.17300024 C95.1174803,5.17300024 95.4227172,5.22778636 95.6105581,5.33736024 C95.7983991,5.44693412 95.8923181,5.61911906 95.8923181,5.85392023 L95.8923181,13.7666801 C95.8923181,14.2519358 95.9823239,14.6158722 96.1623381,14.8585001 C96.3423524,15.1011279 96.6358494,15.22244 97.0428381,15.22244 C97.3559063,15.22244 97.6454901,15.1246077 97.9115981,14.9289401 C98.1777061,14.7332724 98.3968506,14.4789083 98.5690381,14.1658401 L98.5690381,5.85392023 C98.5690381,5.3999713 98.9681941,5.17300024 99.7665181,5.17300024 L100.376998,5.17300024 C101.159669,5.17300024 101.550998,5.3999713 101.550998,5.85392023 L101.550998,13.6258001 C101.550998,14.690232 101.590131,15.461151 101.668398,15.93858 C101.746665,16.4160091 101.785798,16.7016795 101.785798,16.7956 C101.785798,17.0460546 101.519694,17.2260661 100.987478,17.33564 C100.455262,17.4452139 99.9778402,17.5 99.5551981,17.5 C99.2890901,17.5 99.1090785,17.4099942 99.0151581,17.22998 C98.9212376,17.0499658 98.8547116,16.826908 98.8155781,16.5608 C98.7764445,16.294692 98.7412249,16.0833741 98.7099181,15.92684 C98.365543,16.4434026 97.9429073,16.8660384 97.4419981,17.19476 C96.9410889,17.5234816 96.3775746,17.68784 95.7514381,17.68784 Z M105.730438,17.54696 C104.900807,17.54696 104.485998,17.3199889 104.485998,16.86604 L104.485998,9.11764016 C104.485998,8.06886161 104.439038,7.30185596 104.345118,6.81660021 C104.251197,6.33134446 104.204238,6.0339341 104.204238,5.92436023 C104.204238,5.70521247 104.462515,5.53694082 104.979078,5.41954024 C105.495641,5.30213965 105.957409,5.24344024 106.364398,5.24344024 C106.614853,5.24344024 106.794864,5.35301247 106.904438,5.57216023 C107.014012,5.79130799 107.096191,6.03001893 107.150978,6.28830022 C107.205765,6.5465815 107.240984,6.72267974 107.256638,6.81660021 C107.835814,5.64259436 108.53238,5.05560024 109.346358,5.05560024 C109.784653,5.05560024 110.097717,5.16908577 110.285558,5.39606024 C110.473399,5.6230347 110.567318,5.88522541 110.567318,6.18264022 C110.567318,6.49570845 110.512532,6.87921127 110.402958,7.3331602 C110.293384,7.78710913 110.160332,8.01408018 110.003798,8.01408018 C109.909877,8.01408018 109.749432,7.97886054 109.522458,7.90842019 C109.295483,7.83797984 109.080252,7.80276019 108.876758,7.80276019 C108.548036,7.80276019 108.250626,7.93581219 107.984518,8.20192018 C107.71841,8.46802817 107.538398,8.75761194 107.444478,9.07068016 L107.444478,16.86604 C107.444478,17.3199889 107.021842,17.54696 106.176558,17.54696 L105.730438,17.54696 Z M113.502318,3.92856026 C113.267517,3.92856026 113.107072,3.9050805 113.020978,3.85812027 C112.934884,3.81116003 112.891838,3.72506756 112.891838,3.59984027 C112.891838,3.52157321 112.942711,3.36895474 113.044458,3.14198028 C113.146205,2.91500582 113.255777,2.68412146 113.373178,2.44932029 C113.490578,2.21451912 113.580584,2.04233418 113.643198,1.9327603 L114.159758,0.899640324 C114.347599,0.49265163 114.903286,0.289160336 115.826838,0.289160336 C116.233826,0.289160336 116.527323,0.3126401 116.707338,0.359600334 C116.887352,0.406560568 116.977358,0.484826451 116.977358,0.59440033 C116.977358,0.703974209 116.930398,0.833112915 116.836478,0.981820322 C116.742557,1.13052773 116.48428,1.47098432 116.061638,2.0032003 L115.005038,3.38852028 C114.87981,3.5607078 114.707626,3.6937598 114.488478,3.78768027 C114.26933,3.88160074 113.940613,3.92856026 113.502318,3.92856026 Z M113.619718,17.54696 C112.790087,17.54696 112.375278,17.3199889 112.375278,16.86604 L112.375278,5.85392023 C112.375278,5.3999713 112.790087,5.17300024 113.619718,5.17300024 L114.089318,5.17300024 C114.918949,5.17300024 115.333758,5.3999713 115.333758,5.85392023 L115.333758,16.86604 C115.333758,17.3199889 114.918949,17.54696 114.089318,17.54696 L113.619718,17.54696 Z M121.344638,17.66436 C120.640234,17.66436 120.01802,17.4099959 119.477978,16.90126 C118.937935,16.3925241 118.515299,15.6607381 118.210058,14.7058801 C117.904816,13.751022 117.752198,12.6161667 117.752198,11.3012801 C117.752198,9.31329689 118.100481,7.7753723 118.797058,6.68746021 C119.493634,5.59954813 120.444565,5.05560024 121.649878,5.05560024 C122.479508,5.05560024 123.191728,5.33735742 123.786558,5.90088023 L123.786558,0.477000332 C123.786558,0.0387048156 124.19354,-0.180439655 125.007518,-0.180439655 L125.524078,-0.180439655 C126.338055,-0.180439655 126.745038,0.0387048156 126.745038,0.477000332 L126.745038,13.6023201 C126.745038,14.6510986 126.791997,15.4337575 126.885918,15.95032 C126.979838,16.4668826 127.026798,16.764293 127.026798,16.84256 C127.026798,17.0617078 126.75678,17.2299794 126.216738,17.34738 C125.676695,17.4647806 125.211013,17.52348 124.819678,17.52348 C124.537916,17.52348 124.342251,17.3943413 124.232678,17.13606 C124.123104,16.8777787 124.021358,16.4981892 123.927438,15.99728 C123.645676,16.5138426 123.28174,16.9208252 122.835618,17.21824 C122.389495,17.5156548 121.892507,17.66436 121.344638,17.66436 Z M122.283838,15.22244 C122.565599,15.22244 122.835616,15.1167811 123.093898,14.9054601 C123.352179,14.694139 123.583063,14.4084685 123.786558,14.0484401 L123.786558,8.03756018 C123.395222,7.6462249 122.956933,7.4505602 122.471678,7.4505602 C121.892501,7.4505602 121.465952,7.75971043 121.192018,8.37802018 C120.918083,8.99632992 120.781118,9.98639334 120.781118,11.3482401 C120.781118,12.6631267 120.906343,13.6375369 121.156798,14.2715001 C121.407252,14.9054632 121.782928,15.22244 122.283838,15.22244 Z M131.159277,3.69376027 C130.204419,3.69376027 129.726997,3.46678921 129.726997,3.01284028 L129.726997,1.69796031 C129.726997,1.24401138 130.196593,1.01704032 131.135797,1.01704032 C132.090656,1.01704032 132.568077,1.24401138 132.568077,1.69796031 L132.568077,3.01284028 C132.568077,3.46678921 132.098482,3.69376027 131.159277,3.69376027 Z M130.877517,17.54696 C130.047887,17.54696 129.633077,17.3199889 129.633077,16.86604 L129.633077,5.85392023 C129.633077,5.3999713 130.047887,5.17300024 130.877517,5.17300024 L131.347117,5.17300024 C132.176748,5.17300024 132.591557,5.3999713 132.591557,5.85392023 L132.591557,16.86604 C132.591557,17.3199889 132.176748,17.54696 131.347117,17.54696 L130.877517,17.54696 Z M139.940797,17.66436 C138.281536,17.66436 137.041021,17.1517185 136.219217,16.12642 C135.397413,15.1011216 134.986517,13.5162375 134.986517,11.3717201 C134.986517,9.21154936 135.40524,7.61883865 136.242697,6.59354021 C137.080155,5.56824177 138.328496,5.05560024 139.987757,5.05560024 C140.817388,5.05560024 141.564827,5.20039213 142.230097,5.48998023 C142.895367,5.77956834 143.227997,6.11219834 143.227997,6.48788021 C143.227997,6.7383348 143.118425,7.0670515 142.899277,7.4740402 C142.680129,7.88102889 142.476638,8.08452018 142.288797,8.08452018 C142.226184,8.08452018 142.100958,8.02973407 141.913117,7.92016019 C141.631356,7.76362607 141.369165,7.64231396 141.126537,7.55622019 C140.883909,7.47012643 140.590412,7.4270802 140.246037,7.4270802 C139.510327,7.4270802 138.958552,7.72840384 138.590697,8.33106018 C138.222842,8.93371651 138.038917,9.93160652 138.038917,11.3247601 C138.038917,12.7335671 138.211102,13.7471103 138.555477,14.3654201 C138.899852,14.9837298 139.45554,15.29288 140.222557,15.29288 C140.598239,15.29288 140.915216,15.2459205 141.173497,15.152 C141.431779,15.0580796 141.701796,14.9406808 141.983557,14.7998001 C142.046171,14.7684932 142.11661,14.7293603 142.194877,14.6824001 C142.273144,14.6354398 142.335757,14.6119601 142.382717,14.6119601 C142.586212,14.6119601 142.793616,14.8115381 143.004937,15.2107 C143.216258,15.609862 143.321917,15.942492 143.321917,16.2086 C143.321917,16.4590546 143.137992,16.6977655 142.770137,16.92474 C142.402282,17.1517145 141.94834,17.331726 141.408297,17.46478 C140.868255,17.597834 140.379093,17.66436 139.940797,17.66436 Z M149.285837,17.66436 C147.751803,17.66436 146.585641,17.1243254 145.787317,16.04424 C144.988993,14.9641546 144.589837,13.4066636 144.589837,11.3717201 C144.589837,9.32112324 144.98508,7.75580559 145.775577,6.67572021 C146.566074,5.59563483 147.736149,5.05560024 149.285837,5.05560024 C150.835525,5.05560024 152.0056,5.59563483 152.796097,6.67572021 C153.586594,7.75580559 153.981837,9.32112324 153.981837,11.3717201 C153.981837,13.422317 153.582681,14.9837214 152.784357,16.05598 C151.986033,17.1282387 150.819871,17.66436 149.285837,17.66436 Z M149.285837,15.29288 C149.880667,15.29288 150.307216,14.9876431 150.565497,14.3771601 C150.823778,13.766677 150.952917,12.7570471 150.952917,11.3482401 C150.952917,9.9394331 150.823778,8.93371651 150.565497,8.33106018 C150.307216,7.72840384 149.880667,7.4270802 149.285837,7.4270802 C148.691007,7.4270802 148.260545,7.72840384 147.994437,8.33106018 C147.728329,8.93371651 147.595277,9.9394331 147.595277,11.3482401 C147.595277,12.7570471 147.728329,13.766677 147.994437,14.3771601 C148.260545,14.9876431 148.691007,15.29288 149.285837,15.29288 Z"/>
</svg>
