<?xml version="1.0" encoding="UTF-8"?>
<svg viewBox="0 0 112 185" version="1.1" xmlns="http://www.w3.org/2000/svg" xmlns:xlink="http://www.w3.org/1999/xlink">
    <g id="logo-anagrama" stroke="none" stroke-width="1" fill="none" fill-rule="evenodd">
        <path d="M84.3728852,5.85764303 C84.3549517,6.53195641 83.961871,6.96348496 83.3573327,7.01608717 C81.8684548,7.14400618 80.379577,7.28388024 78.8877035,7.35740378 C77.1465852,7.44348013 75.483955,7.86907983 73.830312,8.37119184 C71.306709,9.13870591 69.7039935,10.8219767 69.0275576,13.3253637 C68.6405093,14.7587739 68.3666996,16.2346246 68.1827617,17.7080842 C67.8130886,20.6681541 67.7034449,23.6461565 67.7052424,26.6319297 C67.720221,49.6842508 67.7130313,72.7371696 67.7166261,95.7894906 C67.7166261,96.8164292 67.7573681,97.8427701 67.7771399,98.765102 C68.6357161,99.822526 69.8070466,100.052063 70.863341,100.460328 L74.6141725,101.902926 C77.1121676,102.870133 79.5980909,103.866919 82.0302243,105.005039 C88.8880495,108.213774 94.8058146,112.674202 100.02198,118.111956 C104.449669,122.728398 107.104485,128.264183 108.262634,134.476623 C109.169741,139.342328 109.269199,144.264819 108.546629,149.199265 C107.272246,157.899551 103.491797,164.037688 97.5928851,171.188188 C88.3188608,182.429907 82.0302243,184.347105 75.2508872,184.421824 C74.6129989,184.428855 74.1047209,184.382971 73.5325364,184.347105 C73.1011513,184.319609 72.6260285,183.888629 72.5834892,183.502481 C72.3354427,181.217872 72.5079968,178.93924 72.5247729,176.848302 C73.3701679,175.820765 74.4186734,175.576285 75.3072069,175.076564 C78.754693,173.136259 81.7210649,170.680692 84.1122566,167.49527 C86.8785138,163.807735 88.3721848,159.648574 88.9198042,155.147499 C89.4488501,150.797057 89.304456,146.449604 88.3188608,142.153557 C87.1457329,137.044568 84.5951683,132.836988 80.2950974,129.722101 C76.8386241,127.218714 73.1341043,125.158261 69.2803972,123.347071 C69.0790842,123.252029 68.8376283,123.243063 68.6153452,123.188069 C68.3649021,123.126501 67.8568263,123.443907 67.8478391,123.690779 C67.7987091,125.063219 67.7316048,126.436256 67.720221,127.808695 C67.7050427,129.566884 67.6943912,131.325605 67.6962552,133.084325 L67.7094364,135.722339 C67.7579672,140.892897 67.4110617,146.046121 66.6711164,151.153317 C65.7202716,157.71365 63.4123612,163.752742 59.3807077,169.124145 C56.3022955,173.224727 52.9834548,176.292581 48.2545664,179.25306 C37.623316,185.908659 25.229408,185.128496 19.8502638,184.77516 C14.4711196,184.421824 5.111619,176.923618 2.72486208,173.619243 C2.15486243,172.8301 1.56970858,171.634108 1.08559861,170.597605 C-1.13243992,165.850255 -1.40145647,160.852448 -0.559057186,155.78291 C-0.179198617,153.497702 0.899863343,151.446814 2.4750182,149.695997 C3.41687572,148.648735 4.53907619,147.803513 5.88236154,147.440079 C8.14174114,146.829176 10.4909926,146.768803 12.6784747,147.603864 C15.8725221,148.822681 17.9719297,151.15272 18.8005486,154.531216 C19.4110784,157.02205 19.3691382,159.485986 18.9215761,162.025836 C18.3392062,165.332004 16.8826822,168.070905 14.4711196,170.357906 C14.0631011,170.744652 13.5148825,171.018423 13.3507165,171.624543 C13.4190192,171.831964 13.4369936,172.078238 13.5640125,172.239033 C15.6550321,174.885283 18.4087071,176.387435 21.7225837,176.931389 C25.0406543,177.475942 28.3497377,177.54827 31.6696057,176.923618 C36.6898501,175.979767 40.6016744,173.402857 43.2798571,169.062577 C44.6123578,166.904093 45.5811769,164.552535 46.1258006,162.079633 C46.9652042,158.273146 47.6530238,154.436173 47.6266614,150.510733 C47.6098853,147.987621 47.6608127,145.464508 47.6446357,142.941395 C47.5901134,134.455702 47.5224099,125.970009 47.4493141,117.483718 C47.4427235,116.685121 47.4115679,115.878753 47.2935362,115.090915 C47.2491994,114.797419 46.9771871,114.454309 46.7117654,114.296502 C46.2234614,114.00719 45.6650573,113.833244 45.1330157,113.619847 C39.2637814,111.2653 33.4820224,108.733819 28.0753288,105.419879 C25.6230242,103.916532 23.2575958,102.299014 21.0377598,100.466903 C15.9000828,96.2264476 12.6437242,90.7910851 10.8918213,84.4417592 C9.18785007,78.2687702 9.16628081,71.9726442 9.87626883,65.6657587 C10.10694,63.6220433 10.4826046,61.5747414 11.0182411,59.5896057 C13.1955377,51.5199484 17.3733828,44.6948115 23.7411066,39.1763614 C29.0759027,34.5527467 35.2219424,31.6446813 42.0102667,29.9452712 C42.6136067,29.7940399 43.2379168,30.1975227 43.2516972,30.7743538 C43.2780596,31.8439321 43.2966997,32.913776 43.3067299,33.9835314 L43.3206213,36.2106391 L43.3358944,37.2660637 C43.3320853,38.7369894 43.0680233,38.9267215 40.8347422,40.2260146 C40.2397902,40.5721133 39.647834,40.934949 39.1014128,41.3509846 C36.4358122,43.3773652 34.0470171,45.6589861 32.2244149,48.507874 C28.7535621,53.9312815 27.6355557,59.9398886 27.7625746,66.2407965 C27.7943293,67.8320134 28.0879109,69.4363808 28.4210361,71.0006988 C29.245461,74.8711456 30.8331979,78.406851 33.4388839,81.4284893 C36.9504786,85.5009764 41.3206496,88.4162148 46.1599519,90.6793054 C46.2266568,90.7103885 46.3053447,90.7141079 46.382346,90.7232291 L46.4948745,90.7450582 C46.7746757,90.834721 47.2665746,90.5597549 47.2797558,90.2764203 L47.3855051,88.2168644 C47.4184581,87.5303458 47.4436222,86.8438272 47.444521,86.1573085 C47.452909,80.652009 47.4163611,75.1473072 47.419956,69.6426054 C47.4263469,61.0792046 47.4473836,52.5160695 47.4564373,43.9528458 L47.4568371,29.0979269 C47.4530934,25.4124441 47.4120288,21.7253482 46.9136776,18.0583671 C46.6668294,16.2376133 46.3600667,14.4425629 45.6590659,12.723427 C44.8250546,10.6779183 43.4152641,9.30428333 41.2823043,8.66349276 C39.5184184,8.13328639 37.75633,7.61742607 35.9001757,7.52238344 C32.6857574,7.35740378 29.4719382,7.18525109 26.2587181,7.00771863 C24.7692412,6.9252288 24.4151459,6.59048746 24.4013655,5.14811094 C24.3881843,3.77387818 24.4307237,2.39904768 24.4720647,1.02481493 C24.4888408,0.459341164 25.0262748,-0.012883227 25.6260199,0.000268241685 C28.0399792,0.0582493078 30.4575333,0.0582493078 32.8655012,0.210078416 C41.3661847,0.746262312 49.8758555,0.700235378 58.3843279,0.668554501 C63.3278816,0.650024177 68.2708362,0.50596585 73.2131916,0.373862571 C76.3161688,0.291372741 79.4167494,0.115633538 82.5191274,0.00445159236 C84.015195,-0.049346123 84.4094331,4.48341028 84.3728852,5.85764303 Z M104.687223,29.842263 C106.74946,29.8471435 108.81233,29.8794625 110.875201,29.9123486 C111.322082,29.9197196 111.838591,30.3438362 111.860112,30.7237268 L111.94952,32.3488221 C111.975472,32.8906623 111.993987,33.4325733 111.994303,33.9743427 C112.001899,42.892132 111.992404,51.8099214 111.991138,60.7277108 L112,70.8413049 C112,71.2761946 111.986707,71.7116512 111.960755,72.1459739 C111.91708,72.872869 111.370821,73.3905407 110.60492,73.3990458 C109.026276,73.4160558 107.447633,73.4137878 105.86899,73.4143548 C104.532776,73.4154888 103.196563,73.4262618 101.861616,73.3979118 C101.385617,73.3877057 100.912151,73.2760066 100.479828,73.2164715 C99.722788,72.20721 99.7063306,71.0964553 99.5411237,70.0316277 C98.9359982,66.1448369 97.9675442,62.3334572 96.5015706,58.6360446 C94.9925546,54.8309019 93.0366573,51.2378175 90.2844755,47.9923047 C87.2170714,44.3742722 83.51226,41.4780319 78.9700207,39.4634779 C77.2325003,38.6923567 75.4424427,38.0164917 73.3979287,37.1841345 C73.2295569,34.841287 73.2966524,32.6912197 73.3580511,30.6726967 C74.1809206,30.2576521 74.7721206,30.3920313 75.353193,30.5269775 C81.6266231,31.9813347 87.5139374,34.2544411 93.0467849,37.2635146 C94.4982,38.0533468 95.9002429,38.9157551 97.3276049,39.7413083 C98.1371819,40.209651 98.5992547,40.0180047 98.7866157,39.0796183 L99.2464614,36.7242968 L100.306439,31.1550464 C100.334806,31.0127082 100.364415,30.87058 100.396275,30.7288298 C100.487424,30.3228572 100.948863,29.9463686 101.414734,29.9282246 C102.50472,29.8856995 103.595971,29.8397725 104.687223,29.842263 Z" id="Shape" fill="#393435"></path>
    </g>
</svg>
