<?xml version="1.0" encoding="UTF-8"?>
<svg width="60px" height="60px" viewBox="0 0 60 60" version="1.1" xmlns="http://www.w3.org/2000/svg" xmlns:xlink="http://www.w3.org/1999/xlink">
    <!-- Generator: Sketch 60.1 (88133) - https://sketch.com -->
    <title>dashed</title>
    <desc>Created with Sketch.</desc>
    <g id="dashed" stroke="none" stroke-width="1" fill="none" fill-rule="evenodd">
        <path d="M60,45 L60,47 C60,54.1797017 54.1797017,60 47,60 L45,60 L45,53 L47,53 C50.2383969,53 52.8775718,50.4344251 52.9958615,47.2249383 L53,47 L53,45 L60,45 Z M7,45 L7,47 C7,50.2383969 9.56557489,52.8775718 12.7750617,52.9958615 L13,53 L15,53 L15,60 L13,60 C5.82029825,60 0,54.1797017 0,47 L0,45 L7,45 Z M37,53 L37,60 L23,60 L23,53 L37,53 Z M7,23 L7,37 L0,37 L0,23 L7,23 Z M60,23 L60,37 L53,37 L53,23 L60,23 Z M15,3.9862919e-16 L15,7 L13,7 C9.76160306,7 7.12242824,9.56557489 7.00413847,12.7750617 L7,13 L7,15 L0,15 L0,13 C0,5.82029825 5.82029825,3.9862919e-16 13,3.9862919e-16 L15,3.9862919e-16 Z M47,-1.37772765e-15 C54.1797017,-1.37772765e-15 60,5.82029825 60,13 L60,15 L53,15 L53,13 C53,9.76160306 50.4344251,7.12242824 47.2249383,7.00413847 L47,7 L45,7 L45,-1.37772765e-15 L47,-1.37772765e-15 Z M37,-1.37772765e-15 L37,7 L23,7 L23,-1.37772765e-15 L37,-1.37772765e-15 Z" id="Shape" fill="#FFFFFF" fill-rule="nonzero"></path>
    </g>
</svg>